<?xml version="1.0" encoding="UTF-8"?>
<svg width="16px" height="16px" viewBox="0 0 16 16" version="1.1" xmlns="http://www.w3.org/2000/svg" xmlns:xlink="http://www.w3.org/1999/xlink">
    <!-- Generator: Sketch 58 (84663) - https://sketch.com -->
    <title>Icons / FUNCTIONS / 16PX / Account</title>
    <desc>Created with Sketch.</desc>
    <g id="Icons-/-FUNCTIONS-/-16PX-/-Account" stroke="none" stroke-width="1" fill="none" fill-rule="evenodd">
        <path d="M8,8 C10.21,8 12,6.21 12,4 C12,1.79 10.21,0 8,0 C5.79,0 4,1.79 4,4 C4,6.21 5.79,8 8,8 Z M8,10 C5.33,10 0,11.34 0,14 L0,15 C0,15.55 0.45,16 1,16 L15,16 C15.55,16 16,15.55 16,15 L16,14 C16,11.34 10.67,10 8,10 Z" id="Shape" fill="#FFFFFF" fill-rule="nonzero"></path>
    </g>
</svg>