<svg xmlns="http://www.w3.org/2000/svg" id="icon-user-32" viewBox="0 0 32 32" preserveAspectRatio="xMidYMin slice" width="100%"><path class="path1" fill="#FFF" d="m 15.991386,16.008293 c -5.489762,0 -9.9748612,4.194383 -9.9748614,9.465366 l 0,0.55317 0.9499868,0 0,-0.55317 c 2e-7,-4.670144 4.0212256,-8.481952 9.0248746,-8.481952 5.003648,0 9.024874,3.811808 9.024874,8.481952 l 0,0.55317 0.949986,0 0,-0.55317 c 0,-5.270983 -4.485098,-9.465366 -9.97486,-9.465366 z M 16,5.9971104 c -2.755645,0 -5.00625,2.2491221 -5.00625,5.0044806 0,2.755358 2.250605,5.00448 5.00625,5.00448 2.755645,0 5.00625,-2.249122 5.00625,-5.00448 0,-2.7553585 -2.250605,-5.0044806 -5.00625,-5.0044806 z m 0,1.012142 c 2.214918,0 3.99375,1.7771337 3.99375,3.9923386 0,2.215204 -1.778832,3.992338 -3.99375,3.992338 -2.214918,0 -3.99375,-1.777134 -3.99375,-3.992338 0,-2.2152049 1.778832,-3.9923386 3.99375,-3.9923386 z"></path></svg>