<svg xmlns="http://www.w3.org/2000/svg" width="24" height="24" viewBox="0 0 24 24">
    <defs>
        <linearGradient id="swr7ir745a" x1="27.459%" x2="73.96%" y1="-6.725%" y2="110.296%">
            <stop offset="0%" stop-color="#666"/>
            <stop offset="100%" stop-color="#1C1C1C"/>
        </linearGradient>
    </defs>
    <g fill="none" fill-rule="evenodd">
        <g fill-rule="nonzero">
            <g>
                <path fill="url(#swr7ir745a)" d="M11.783 23.567C5.367 23.567 0 18.317 0 11.783 0 5.367 5.25 0 11.783 0 18.2 0 23.567 5.25 23.567 11.783c0 6.417-5.367 11.784-11.784 11.784z" transform="translate(-30 -184) translate(30 184.117)"/>
                <path fill="#FFF" d="M15.698 8.068c.247.247.247.647 0 .894l-2.92 2.921 2.92 2.922c.247.247.247.647 0 .893-.246.247-.646.247-.893 0l-2.922-2.92-2.921 2.92c-.247.247-.647.247-.894 0-.246-.246-.246-.646 0-.893l2.921-2.922-2.92-2.921c-.247-.247-.247-.647 0-.894.246-.246.646-.246.893 0l2.921 2.921 2.922-2.92c.247-.247.647-.247.893 0z" transform="translate(-30 -184) translate(30 184.117) rotate(45 11.883 11.883)"/>
            </g>
        </g>
    </g>
</svg>
