<svg xmlns="http://www.w3.org/2000/svg" width="31" height="28" viewBox="0 0 31 28">
    <g fill="none" fill-rule="evenodd">
        <g fill="#0371E2">
            <g>
                <path fill-rule="nonzero" d="M17 0c7.732 0 14 6.268 14 14l-.001.111v.056l-.001.028v.007l-.001.078v-.036l-.003.157c-.002.097-.006.194-.01.29l-.007.123-.013.192-.016.208-.015.162-.016.154-.001.016c-.01.092-.021.183-.033.274l-.03.216-.018.119-.027.168-.043.247-.017.09-.045.22c-.01.054-.022.107-.034.16-.075.34-.162.674-.262 1.003l-.021.07c-.057.186-.117.37-.182.55-.063.18-.13.358-.2.535l-.072.175c-.025.06-.05.12-.077.18-.17.395-.359.78-.564 1.155l-.075.136-.05.09-.097.165c-.172.292-.355.578-.547.856l-.04.057-.12.169-.104.142c-.129.175-.261.345-.397.512l-.076.092-.12.143-.055.064C25.043 26.114 21.242 28 17 28c-2.725 0-5.268-.778-7.419-2.125.324-.383.6-.805.82-1.259C12.315 25.811 14.577 26.5 17 26.5c3.606 0 6.856-1.527 9.137-3.97l.213-.139c-.273-.133-1.228-.668-2.593-.935-1.365-.133-2.32-.267-3.003-.667-.683-.401-.683-2.27-.683-2.938.41-.401.683-.935.82-1.202.136-.267.272-1.87.409-2.137.136-.267.41-.267.546-.4.273-.134.273-.668.273-.802s.273-1.068.41-1.603c0-.445-.19-.797-.254-.902l-.02-.032-.048.023-.154.076-.07.034s.272-1.068.409-2.003c.136-.935.136-2.003 0-2.537-.137-.535-.41-.802-.41-1.069-.273-.267-.546-.667-.955-.935-.546-.133-1.092-.267-1.638-.534-.546-.267-1.365-.534-2.048-.534-.819 0-1.228.4-1.638.4-.41 0-1.365.268-1.638.535l-.819.801s-.41.134-.682 0c-.273.267-.546 1.069-.683 1.603-.136.4 0 1.202 0 1.87.137.667.273 1.735.41 2.136 0 0-.273 0-.41.134-.136.267 0 .8 0 1.068 0 .267.41 1.202.41 1.603 0 .4.41.667.546.8.136.134.273.936.41 1.87 0 1.069.818 1.603.818 1.603s.137 2.003-.546 2.804c-.51.599-1.552.601-2.558.787C10.618 18.32 8.08 16 5 16c-.633 0-1.242.098-1.815.28l.017.105-.037-.23-.011-.071-.037-.263c-.026-.2-.047-.402-.065-.605l-.016-.21c-.005-.064-.01-.128-.013-.192l-.006-.123c-.005-.092-.008-.185-.011-.278l-.002-.08C3 14.223 3 14.11 3 14 3 6.268 9.268 0 17 0z" transform="translate(-294 -831) translate(294 831)"/>
                <path d="M5 17c2.761 0 5 2.239 5 5s-2.239 5-5 5-5-2.239-5-5 2.239-5 5-5zm0 1.5c-.276 0-.5.224-.5.5v2.5H2l-.09.008c-.233.042-.41.247-.41.492 0 .276.224.5.5.5h2.5V25l.008.09c.042.233.247.41.492.41.276 0 .5-.224.5-.5v-2.5H8l.09-.008c.233-.042.41-.247.41-.492 0-.276-.224-.5-.5-.5H5.5V19l-.008-.09c-.042-.233-.247-.41-.492-.41z" transform="translate(-294 -831) translate(294 831)"/>
            </g>
        </g>
    </g>
</svg>
