<svg xmlns="http://www.w3.org/2000/svg" width="14" height="26" viewBox="0 0 14 26">
    <g fill="none" fill-rule="evenodd">
        <g fill="#FFF">
            <g transform="translate(-200 -148) translate(200 147.7)">
                <rect width="12" height="1.5" x="1" y="12.55" rx=".75" transform="matrix(1 0 0 -1 0 26.6)"/>
                <g>
                    <g transform="translate(0 .5)">
                        <g transform="translate(0 5)">
                            <rect width="9" height="1.5" x="5.212" y="3" rx=".75" transform="scale(1 -1) rotate(45 18.766 0)"/>
                            <rect width="9" height="1.5" x="-.188" y="3" rx=".75" transform="rotate(-135 4.312 3.75)"/>
                        </g>
                        <rect width="12" height="1.5" x="1" y="5.5" rx=".75" transform="matrix(0 1 1 0 .75 -.75)"/>
                    </g>
                    <g transform="matrix(1 0 0 -1 0 26)">
                        <g transform="translate(0 5)">
                            <rect width="9" height="1.5" x="5.212" y="3" rx=".75" transform="scale(1 -1) rotate(45 18.766 0)"/>
                            <rect width="9" height="1.5" x="-.188" y="3" rx=".75" transform="rotate(-135 4.312 3.75)"/>
                        </g>
                        <rect width="12" height="1.5" x="1" y="5.5" rx=".75" transform="matrix(0 1 1 0 .75 -.75)"/>
                    </g>
                </g>
            </g>
        </g>
    </g>
</svg>
