<svg xmlns="http://www.w3.org/2000/svg" width="12" height="16" viewBox="0 0 12 16">
    <g fill="none" fill-rule="evenodd">
        <g fill="#FFF">
            <path d="M95.25 154c.414 0 .75.336.75.75s-.336.75-.75.75h-3.94l4.372 4.371c.293.293.293.768 0 1.061-.293.293-.768.293-1.06 0l-3.872-3.872V169c0 .414-.336.75-.75.75s-.75-.336-.75-.75v-11.94l-3.871 3.872c-.267.266-.683.29-.977.073l-.084-.073c-.293-.293-.293-.768 0-1.06l4.371-4.372H84.75c-.414 0-.75-.336-.75-.75s.336-.75.75-.75h10.5z" transform="translate(-84 -154)"/>
        </g>
    </g>
</svg>
