<svg xmlns="http://www.w3.org/2000/svg" id="payment-method-amazon" viewBox="0 0 68 68"><g id="Icons-/-APPS-/-EXTERNAL-/-AMAZON-1" stroke="none" stroke-width="1" fill="none" fill-rule="evenodd"><path d="M50.9993724,40.7145007 C49.6700374,38.9098097 48.2441046,37.4415315 48.2441046,34.0833324 L48.2441046,22.9354553 C48.2441046,18.2107321 48.5892902,13.8733382 45.0412354,10.6228228 C42.2484284,7.98686384 37.6091059,7.05684627 34.0610511,7.05684627 C27.1217933,7.05684627 19.3807422,9.59713909 17.7573898,18.0148931 C17.5855542,18.9090161 18.2472329,19.3770688 18.8470635,19.5086296 L25.9129664,20.2591742 C26.5746451,20.226205 27.0524533,19.5878507 27.180533,18.9449107 C27.7864209,16.0442489 30.2613001,14.6507643 33.0421519,14.6507643 C34.5418879,14.6507643 36.2450212,15.1890249 37.1327323,16.5092972 C38.15466,17.9789985 38.0174944,19.998978 38.0174944,21.6959854 L38.0174944,22.6304305 C33.7913425,23.0939766 28.2628742,23.4020059 24.3048369,25.1049429 C19.739477,27.0456223 16.5335791,30.9944217 16.5335791,36.7985915 C16.5335791,44.2369927 21.30401,47.9554817 27.4459377,47.9554817 C32.6293001,47.9554817 35.4659427,46.7548316 39.4645479,42.7538507 C40.7910137,44.6406881 41.225066,45.549754 43.6441544,47.5249048 C44.18668,47.8090571 44.886137,47.7820176 45.3668144,47.3545242 L45.3684882,47.3529429 L45.3849863,47.3708902 C46.8409664,46.1000322 49.4846526,43.8453148 50.9753026,42.6193646 C51.5705903,42.1393734 51.465066,41.3633704 50.9993724,40.7145007 Z M36.6535691,37.4998799 C35.4961494,39.5183572 33.6526625,40.7533206 31.6043437,40.7533206 C28.811457,40.7533206 27.1715268,38.6600498 27.1715268,35.563549 C27.1715268,29.467795 32.7452653,28.361388 38.0160598,28.361388 L38.0160598,29.9058829 L38.0175741,29.9058829 C38.0175741,32.6943543 38.0854795,35.0162753 36.6535691,37.4998799 Z" id="path3673" fill="#FFF" fill-rule="nonzero"></path><path d="M59.7138618,52.8790038 C52.7343149,57.9874298 42.6125035,60.7054284 33.8954116,60.7054284 C21.6829991,60.7054284 10.6824631,56.2275444 2.35856212,48.7727122 C1.70563676,48.1865153 2.28840772,47.3860377 3.07283179,47.8411414 C12.0548789,53.0259576 23.1604834,56.1469463 34.6305644,56.1469463 C42.369084,56.1469463 50.8740813,54.555378 58.6997229,51.2605694 C59.8802745,50.7653285 60.8696147,52.034181 59.7138618,52.8790038 L59.7138618,52.8790038 Z" id="path3719" fill="#FFF" fill-rule="nonzero"></path><path d="M62.6182539,49.5884031 C61.726151,48.4558228 56.7151691,49.0517303 54.4679443,49.3210378 C53.7843468,49.3996937 53.6792783,48.8112309 54.293374,48.3794327 C58.289238,45.595402 64.8370907,46.4010586 65.5986738,47.3316583 C66.3661303,48.2752055 65.3983259,54.7861668 61.6527336,57.8922659 C61.0764886,58.3716461 60.5292843,58.1191704 60.7837979,57.4866863 C61.6263033,55.3966402 63.5136198,50.7229256 62.6182539,49.5884031 Z" id="path3721" fill="#FFF" fill-rule="nonzero"></path></g></svg>