<svg xmlns="http://www.w3.org/2000/svg" id="icon-api" viewBox="0 0 16 9"><g id="Page-1" stroke="none" stroke-width="1" fill="#FFF" fill-rule="evenodd"><g id="Icons-/-FUNCTIONS-/-CONNECT-/-APPS-/-Shopsystems-/-API" transform="translate(0.000000, -4.000000)" fill="#FFF"><path d="M2.02976612,8.92133239 L5.21615875,8.92133239 L3.65131113,4.77108434 L2.02976612,8.92133239 Z M3.25442948,4 L4.11622962,4 L7.29128278,12.0963855 L6.46350106,12.0963855 L5.47696669,9.57902197 L1.79163714,9.57902197 L0.81644224,12.0963855 L0,12.0963855 L3.25442948,4 Z M8.79943303,7.96881644 L11.4528703,7.96881644 C11.9896082,7.96881644 12.4242837,7.8327441 12.75691,7.56059532 C13.0895363,7.28844655 13.2558469,6.87266994 13.2558469,6.31325301 C13.2558469,5.75383609 13.0895363,5.33805948 12.75691,5.0659107 C12.4242837,4.79376193 11.9896082,4.65768958 11.4528703,4.65768958 L8.79943303,4.65768958 L8.79943303,7.96881644 Z M8.02834869,4 L11.6229624,4 C11.9858275,4 12.314669,4.05102713 12.6094968,4.15308292 C12.9043246,4.25513871 13.1575704,4.40633021 13.3692417,4.60666194 C13.5809129,4.80699368 13.7434438,5.05078996 13.8568391,5.33805811 C13.9702344,5.62532627 14.0269313,5.95038798 14.0269313,6.31325301 C14.0269313,6.67611804 13.9702344,7.00117976 13.8568391,7.28844791 C13.7434438,7.57571606 13.5809129,7.81951235 13.3692417,8.01984408 C13.1575704,8.22017582 12.9043246,8.37136731 12.6094968,8.4734231 C12.314669,8.57547889 11.9858275,8.62650602 11.6229624,8.62650602 L8.79943303,8.62650602 L8.79943303,12.0963855 L8.02834869,12.0963855 L8.02834869,4 Z M15.2289157,4 L16,4 L16,12.0963855 L15.2289157,12.0963855 L15.2289157,4 Z" id="API"></path></g></g></svg>