<svg xmlns="http://www.w3.org/2000/svg" width="28" height="28" viewBox="0 0 28 28">
    <g fill="none" fill-rule="evenodd">
        <g>
            <g transform="translate(-198 -831) translate(198 831)">
                <circle cx="14" cy="14" r="13.25" stroke="#0371E2" stroke-width="1.5"/>
                <path fill="#0371E2" fill-rule="nonzero" d="M12.28 15.22c.267.266.29.683.073.976l-.073.084c-.266.267-.683.29-.976.073l-.084-.073-4-4-.027-.028-.044-.053.07.081c-.036-.037-.069-.077-.096-.119-.014-.02-.026-.041-.037-.063l-.014-.026c-.012-.027-.024-.055-.034-.085l-.006-.019C7.012 11.9 7 11.826 7 11.75c0-.038.003-.076.008-.113l.007-.035c.005-.025.01-.05.018-.073l.012-.036.028-.067.019-.036c.013-.024.027-.046.042-.068l.013-.018c.026-.034.048-.06.073-.084l4-4c.293-.293.767-.293 1.06 0 .267.266.29.683.073.976l-.073.084L9.56 11h6.19c2.623 0 4.75 2.127 4.75 4.75 0 2.55-2.01 4.631-4.533 4.745l-.217.005h-2c-.414 0-.75-.336-.75-.75 0-.38.282-.693.648-.743L13.75 19h2c1.795 0 3.25-1.455 3.25-3.25 0-1.733-1.356-3.15-3.066-3.245l-.184-.005H9.56l2.72 2.72z"/>
            </g>
        </g>
    </g>
</svg>
