<svg xmlns="http://www.w3.org/2000/svg" width="16" height="16" viewBox="0 0 16 16">
    <g fill="none" fill-rule="evenodd">
        <g fill-rule="nonzero">
            <g>
                <path fill="#5F5F5F" d="M16 15c0 .552-.448 1-1 1H1c-.552 0-1-.448-1-1V1c0-.552.448-1 1-1h14c.552 0 1 .448 1 1v14zM7.5 8.5H1V15h6.5V8.5zm7.5 0H8.5V15H15V8.5zM7.5 1H1v6.5h6.5V1zM15 1H8.5v6.5H15V1z" transform="translate(-1291 -408) translate(1291 408)"/>
                <path fill="#FFF" d="M16 15L16 16 0 16 0 15z" transform="translate(-1291 -408) translate(1291 408)"/>
            </g>
        </g>
    </g>
</svg>
