<svg xmlns="http://www.w3.org/2000/svg" width="16" height="16" viewBox="0 0 16 16">
    <g fill="none" fill-rule="evenodd">
        <g fill-rule="nonzero">
            <g>
                <path fill="#5F5F5F" d="M1 16c-.552 0-1-.448-1-1V1c0-.552.448-1 1-1h14c.552 0 1 .448 1 1v14c0 .552-.448 1-1 1H1zM7.5 1H1v14h6.5V1zM15 1H8.5v14H15V1z" transform="translate(-1214 -408) translate(1214 408)"/>
                <path fill="#FFF" d="M16 7.5L16 8.5 0 8.5 0 7.5z" transform="translate(-1214 -408) translate(1214 408)"/>
            </g>
        </g>
    </g>
</svg>
