<svg xmlns="http://www.w3.org/2000/svg" id="icon-bubble-16" viewBox="0 0 16 16" preserveAspectRatio="xMidYMin slice" width="100%"><g id="Icons-/-FUNCTIONS-/-16PX-/-Bubble" stroke="none" stroke-width="1" fill="none" fill-rule="evenodd"><g id="Group-3-Copy-2" transform="translate(2.000000, 2.000000)" fill="#FFFFFF" fill-rule="nonzero"><path class="path2" fill="#FFF" d="M10.794,0 L1.2,0 C0.54,0 0,0.54 0,1.2 L0,12 L2.394,9.6 L10.794,9.6 C11.454,9.6 11.994,9.06 11.994,8.4 L11.994,1.2 C11.994,0.54 11.454,0 10.794,0 Z M2.73564274,4.2 C2.40564274,4.2 2.13564274,3.93 2.13564274,3.6 C2.13564274,3.27 2.40564274,3 2.73564274,3 L9.56804046,3 C9.89804046,3 10.1680405,3.27 10.1680405,3.6 C10.1680405,3.93 9.89804046,4.2 9.56804046,4.2 L2.73564274,4.2 Z M2.73564274,6.2 C2.40564274,6.2 2.13564274,5.93 2.13564274,5.6 C2.13564274,5.27 2.40564274,5 2.73564274,5 L9.56804046,5 C9.89804046,5 10.1680405,5.27 10.1680405,5.6 C10.1680405,5.93 9.89804046,6.2 9.56804046,6.2 L2.73564274,6.2 Z" id="icon/action/feedback_24px"></path></g></g></svg>