<svg xmlns="http://www.w3.org/2000/svg" id="icon-account-circle-24" viewBox="0 0 17 17" width="100%"><g id="General" stroke="none" stroke-width="1" fill="none" fill-rule="evenodd"><g id="2" transform="translate(-1077.000000, -6.000000)" fill="#FFFFFF" fill-rule="nonzero"><path class="path1" fill="#FFF" d="M1085.33333,6.33333333 C1080.91733,6.33333333 1077.33333,9.91733333 1077.33333,14.3333333 C1077.33333,18.7493333 1080.91733,22.3333333 1085.33333,22.3333333 C1089.74933,22.3333333 1093.33333,18.7493333 1093.33333,14.3333333 C1093.33333,9.91733333 1089.74933,6.33333333 1085.33333,6.33333333 Z M1085.33333,8.73333333 C1086.66133,8.73333333 1087.73333,9.80533333 1087.73333,11.1333333 C1087.73333,12.4613333 1086.66133,13.5333333 1085.33333,13.5333333 C1084.00533,13.5333333 1082.93333,12.4613333 1082.93333,11.1333333 C1082.93333,9.80533333 1084.00533,8.73333333 1085.33333,8.73333333 Z M1085.33333,20.0933333 C1083.33333,20.0933333 1081.56533,19.0693333 1080.53333,17.5173333 C1080.55733,15.9253333 1083.73333,15.0533333 1085.33333,15.0533333 C1086.92533,15.0533333 1090.10933,15.9253333 1090.13333,17.5173333 C1089.10133,19.0693333 1087.33333,20.0933333 1085.33333,20.0933333 Z"></path></g></g></svg>