<svg xmlns="http://www.w3.org/2000/svg" id="icon-ep-button-16" viewBox="0 0 16 16" preserveAspectRatio="xMidYMin slice" width="100%"><path class="path1" fill="#FFF" d="M11.5,7 L11.5,6 L13,6 C14.1045695,6 15,5.1045695 15,4 L15,3 C15,1.8954305 14.1045695,1 13,1 L3,1 C1.8954305,1 1,1.8954305 1,3 L1,4 C1,5.1045695 1.8954305,6 3,6 L5,6 L5,7 L3,7 C1.34314575,7 0,5.65685425 0,4 L0,3 C0,1.34314575 1.34314575,0 3,0 L13,0 C14.6568542,0 16,1.34314575 16,3 L16,4 C16,5.65685425 14.6568542,7 13,7 L11.5,7 Z M12.8859754,16 L6.39499287,16 L3.29810103,11.5344875 C3.01773311,11.1208009 2.87511309,10.4431343 3.1413076,9.94130672 C3.31891824,9.6060168 3.65243648,9.41378982 4.05549306,9.41378982 C4.82617266,9.41378982 5.55698953,9.70655949 6.60183619,10.9950118 L6.60183619,4.50137173 C6.60183619,4.01327465 6.84809932,3.55441024 7.2604572,3.27315647 C7.69939024,2.97418594 8.24550975,2.91704935 8.75929616,3.11946347 C9.32313244,3.34092313 9.70227137,3.9251337 9.70227137,4.57312466 L9.70227137,8.46638541 L12.6875475,9.43549287 C13.5450393,9.7021303 13.9649268,10.6508635 13.7044903,11.7413308 L12.8859754,16 Z"></path></svg>