<?xml version="1.0" encoding="UTF-8"?>
<svg width="44px" height="42px" viewBox="0 0 44 42" version="1.1" xmlns="http://www.w3.org/2000/svg" xmlns:xlink="http://www.w3.org/1999/xlink">
    <!-- Generator: Sketch 59 (86127) - https://sketch.com -->
    <title>Combined Shape</title>
    <desc>Created with Sketch.</desc>
    <g id="Page-1" stroke="none" stroke-width="1" fill="none" fill-rule="evenodd">
        <g id="1" transform="translate(-705.000000, -239.000000)" fill="#FFFFFF" fill-rule="nonzero">
            <path d="M748.810701,278.717601 C748.810701,279.822171 747.915271,280.717601 746.810701,280.717601 L746.810701,280.717601 L713.4107,280.717601 C712.306131,280.717601 711.4107,279.822171 711.4107,278.717601 L711.4107,278.717601 L711.4107,260.617601 C711.4107,259.563239 712.226578,258.699435 713.261438,258.623086 L713.4107,258.617601 L746.810701,258.617601 C747.915271,258.617601 748.810701,259.513031 748.810701,260.617601 L748.810701,260.617601 Z M741.329412,261.336825 L718.890412,261.336825 L717.7806,262.447701 C717.799867,262.541767 717.831223,262.630545 717.849986,262.723604 L717.8656,262.867601 C717.8656,264.086501 716.8796,265.074201 715.6607,265.074201 C715.5111,265.074201 715.3802,265.018101 715.2391,264.989201 L715.2391,264.989201 L714.130412,266.096825 L714.130412,273.235825 L715.2408,274.346001 C715.334867,274.327868 715.423645,274.29689 715.516704,274.278253 L715.6607,274.262701 C716.8796,274.262701 717.8673,275.248701 717.8673,276.467601 C717.8673,276.516901 717.861067,276.564501 717.851686,276.611283 L717.7823,276.889201 L718.889412,277.996825 L741.330412,277.996825 L742.440801,276.887501 C742.421534,276.793434 742.390179,276.704657 742.371416,276.611597 L742.355801,276.467601 C742.355801,275.248701 743.341801,274.261001 744.560701,274.261001 C744.710301,274.261001 744.841201,274.317101 744.982301,274.346001 L744.982301,274.346001 L746.090412,273.236825 L746.090412,266.097825 L744.980601,264.989201 C744.886534,265.007334 744.797757,265.038312 744.704697,265.056949 L744.560701,265.072501 C743.341801,265.072501 742.354101,264.086501 742.354101,262.867601 C742.354101,262.718001 742.410201,262.587101 742.439101,262.446001 L742.439101,262.446001 L741.329412,261.336825 Z M730.110701,263.863801 C733.79676,263.863801 736.784901,266.462251 736.784901,269.667601 C736.784901,272.872951 733.79676,275.471401 730.110701,275.471401 C726.424642,275.471401 723.436501,272.872951 723.436501,269.667601 C723.436501,266.462251 726.424642,263.863801 730.110701,263.863801 Z M741.160701,267.461001 C742.379373,267.461001 743.367301,268.448929 743.367301,269.667601 C743.367301,270.886272 742.379373,271.874201 741.160701,271.874201 C739.942029,271.874201 738.954101,270.886272 738.954101,269.667601 C738.954101,268.448929 739.942029,267.461001 741.160701,267.461001 Z M719.0607,267.462701 C720.278433,267.462701 721.2656,268.449868 721.2656,269.667601 C721.2656,270.885334 720.278433,271.872501 719.0607,271.872501 C717.842968,271.872501 716.8558,270.885334 716.8558,269.667601 C716.8558,268.449868 717.842968,267.462701 719.0607,267.462701 Z M736.050615,240.053558 C737.019565,239.523764 738.234731,239.878893 738.765896,240.847092 L738.765896,240.847092 L742.706001,248.0385 L742.704301,248.0385 L747.100501,256.067601 L740.587801,256.067601 C740.762901,255.5729 741.094401,255.1275 741.592501,254.8555 C741.723401,254.7841 741.866201,254.7688 742.000501,254.728 L742.000501,254.728 L742.440801,253.2218 L739.011901,246.9624 L737.504001,246.5204 C737.396901,246.6139 737.308501,246.7244 737.179301,246.7958 C736.108301,247.3806 734.768701,246.9913 734.183901,245.9203 C734.159534,245.876667 734.14159,245.831711 734.126919,245.786126 L734.053001,245.5106 L732.548501,245.072 L712.8047,256.067601 L711.4107,256.067601 C710.0031,256.067601 708.8607,257.210001 708.8607,258.617601 L708.8607,258.617601 L708.8607,264.106901 L705.960637,258.811189 L705.960637,258.811189 L705.890785,258.671191 C705.465284,257.728144 705.831501,256.601626 706.754209,256.096402 L706.754209,256.096402 L713.9471,252.1576 L728.856101,243.9925 Z M723.922701,252.6778 C727.156101,250.9081 731.023601,251.7513 732.565501,254.5631 C732.827301,255.0408 732.975201,255.5491 733.073801,256.067601 L733.073801,256.067601 L720.7777,256.067601 C721.3761,254.7144 722.442,253.487 723.922701,252.6778 Z M736.404101,250.2536 C737.621834,250.2536 738.609001,251.240768 738.609001,252.4585 C738.609001,253.676233 737.621834,254.6634 736.404101,254.6634 C735.186368,254.6634 734.199201,253.676233 734.199201,252.4585 C734.199201,251.240768 735.186368,250.2536 736.404101,250.2536 Z" id="Combined-Shape"></path>
        </g>
    </g>
</svg>