<svg xmlns="http://www.w3.org/2000/svg" width="24" height="22" viewBox="0 0 24 22">
    <defs>
        <linearGradient id="lmpul3p1ta" x1="66.767%" x2="13.417%" y1="9.465%" y2="96.957%">
            <stop offset="0%" stop-color="#FABF00"/>
            <stop offset="100%" stop-color="#F28200"/>
        </linearGradient>
    </defs>
    <g fill="none" fill-rule="evenodd">
        <g fill="url(#lmpul3p1ta)" transform="translate(-30 -630)">
            <path d="M50.468 649.894c-.998 0-1.81-.812-1.81-1.81 0-.999.812-1.811 1.81-1.811.999 0 1.811.812 1.811 1.81 0 1-.812 1.811-1.81 1.811m-8.473-3.61c-1.7 0-3.084-1.383-3.084-3.084 0-1.7 1.384-3.084 3.084-3.084 1.701 0 3.085 1.384 3.085 3.084 0 1.701-1.384 3.085-3.085 3.085m-1.81-12.813c0-.999.812-1.811 1.81-1.811.999 0 1.811.812 1.811 1.81 0 1-.812 1.811-1.81 1.811-.999 0-1.811-.812-1.811-1.81m-6.714 16.422c-.999 0-1.811-.812-1.811-1.81 0-.999.812-1.811 1.81-1.811.999 0 1.811.812 1.811 1.81 0 1-.812 1.811-1.81 1.811m16.996-5.282c-.955 0-1.82.388-2.449 1.013l-1.536-.884c.167-.483.259-1.001.259-1.54 0-2.334-1.693-4.277-3.915-4.671v-1.688c1.514-.373 2.641-1.742 2.641-3.37 0-1.915-1.557-3.472-3.472-3.472-1.914 0-3.471 1.557-3.471 3.472 0 1.628 1.127 2.997 2.641 3.37v1.688c-2.222.394-3.914 2.338-3.914 4.67 0 .538.09 1.054.256 1.536l-1.583.894c-.629-.629-1.496-1.018-2.453-1.018-1.915 0-3.472 1.557-3.472 3.472 0 1.914 1.557 3.471 3.472 3.471 1.914 0 3.471-1.557 3.471-3.471 0-.36-.055-.707-.157-1.034l1.528-.862c.87 1.071 2.197 1.757 3.682 1.757 1.483 0 2.809-.684 3.68-1.752l1.48.852c-.104.328-.16.677-.16 1.039 0 1.914 1.558 3.471 3.472 3.471s3.472-1.557 3.472-3.471c0-1.915-1.558-3.472-3.472-3.472"/>
        </g>
    </g>
</svg>
