<svg xmlns="http://www.w3.org/2000/svg" xmlns:xlink="http://www.w3.org/1999/xlink" width="26" height="19" viewBox="0 0 26 19">
    <defs>
        <path id="xozw3vgora" d="M0 17.263L21.228 17.263 21.228 2.666 0 2.666z"/>
    </defs>
    <g fill="none" fill-rule="evenodd">
        <g>
            <g>
                <g transform="translate(-29 -574) translate(30 575)">
                    <path stroke="#1D1D20" stroke-width="1.067" d="M19.33 16.871H1.898c-.832 0-1.506-.674-1.506-1.505V4.564c0-.831.674-1.506 1.506-1.506H19.33c.832 0 1.507.675 1.507 1.506v10.802c0 .83-.675 1.505-1.507 1.505z"/>
                    <path stroke="#1D1D20" stroke-width="1.067" d="M21.333 14.205h.664c.832 0 1.506-.675 1.506-1.506V1.897c0-.83-.674-1.506-1.506-1.506H4.565c-.832 0-1.506.675-1.506 1.506v.77"/>
                    <mask id="2sf1iimulb" fill="#fff">
                        <use xlink:href="#xozw3vgora"/>
                    </mask>
                    <path fill="#1D1D20" d="M0.392 9.964L20.836 9.964 20.836 7.298 0.392 7.298z" mask="url(#2sf1iimulb)"/>
                </g>
            </g>
        </g>
    </g>
</svg>
