<svg xmlns="http://www.w3.org/2000/svg" width="28" height="28" viewBox="0 0 28 28">
    <g fill="none" fill-rule="evenodd">
        <g>
            <g transform="translate(-29 -472) translate(29.571 472.375)">
                <rect width="27.107" height="27.107" fill="#86868B" rx="6.777"/>
                <g fill="#FFF" fill-rule="nonzero">
                    <path d="M13.483 10.133L7.23 3.997c-.25-.245-.597-.395-.98-.395H1.39C.625 3.602 0 4.215 0 4.965v4.773c0 .375.153.715.41.968l6.251 6.136c.25.245.598.395.98.395s.73-.15.98-.402l4.862-4.773c.257-.245.41-.586.41-.96 0-.376-.16-.724-.41-.969zM2.43 7.011c-.576 0-1.042-.457-1.042-1.023 0-.566.466-1.023 1.042-1.023.577 0 1.042.457 1.042 1.023 0 .566-.465 1.023-1.042 1.023z" transform="matrix(-1 0 0 1 22.179 4.929)"/>
                    <path fill-opacity=".6" d="M7.882 1.8c.377 0 .72.15.968.395l6.18 6.116c.248.245.406.591.406.965s-.15.714-.405.958l-.057.058c-.06-.28-.203-.532-.398-.724L8.01 3.069c-.263-.26-.628-.419-1.029-.419H1.872l-.072.004c.204-.499.7-.853 1.274-.853z" transform="matrix(-1 0 0 1 22.179 4.929)"/>
                    <path fill-opacity=".4" d="M9.168 0c.378 0 .721.15.968.394l6.181 6.116c.248.245.405.592.405.965 0 .374-.15.714-.405.959l-.056.057c-.061-.28-.204-.532-.398-.724L9.295 1.268C9.033 1.008 8.668.85 8.266.85H3.16l-.073.004C3.29.354 3.786 0 4.36 0z" transform="matrix(-1 0 0 1 22.179 4.929)"/>
                </g>
            </g>
        </g>
    </g>
</svg>