<svg xmlns="http://www.w3.org/2000/svg" id="icon-b-collections-40" viewBox="0 0 39 40" preserveAspectRatio="xMidYMin slice" width="100%"><g stroke="none" stroke-width="1" fill="#FFF" fill-rule="evenodd"><path d="M31.056,22.828 L16.656,8.428 C16.08,7.852 15.28,7.5 14.4,7.5 L3.2,7.5 C1.44,7.5 0,8.94 0,10.7 L0,21.9 C0,22.78 0.352,23.58 0.944,24.172 L15.344,38.572 C15.92,39.148 16.72,39.5 17.6,39.5 C18.48,39.5 19.28,39.148 19.856,38.556 L31.056,27.356 C31.648,26.78 32,25.98 32,25.1 C32,24.22 31.632,23.404 31.056,22.828 Z M5.6,15.5 C4.272,15.5 3.2,14.428 3.2,13.1 C3.2,11.772 4.272,10.7 5.6,10.7 C6.928,10.7 8,11.772 8,13.1 C8,14.428 6.928,15.5 5.6,15.5 Z"></path><path d="M17.7304313,4 C18.6104313,4 19.4104313,4.352 19.9864313,4.928 L19.9864313,4.928 L34.3864313,19.328 C34.9624313,19.904 35.3304313,20.72 35.3304313,21.6 C35.3304313,22.48 34.9784313,23.28 34.3864313,23.856 L34.3864313,23.856 L34.2546703,23.990306 C34.1130237,23.3329199 33.7808928,22.7394615 33.3274313,22.286 L18.0274313,6.986 C17.4154313,6.374 16.5654313,6 15.6304313,6 L3.73043127,6 L3.56315262,6.0051246 C4.03904973,4.83247548 5.19224322,4 6.53043127,4 L6.53043127,4 Z"></path><path d="M20.6672787,2.66453526e-14 C21.5472787,2.66453526e-14 22.3472787,0.352 22.9232787,0.928 L22.9232787,0.928 L37.3232787,15.328 C37.8992787,15.904 38.2672787,16.72 38.2672787,17.6 C38.2672787,18.48 37.9152787,19.28 37.3232787,19.856 L37.3232787,19.856 L37.1915177,19.990306 C37.0498711,19.3329199 36.7177402,18.7394615 36.2642786,18.286 L20.9642786,2.986 C20.3522786,2.374 19.5022786,2 18.5672786,2 L6.66727865,2 L6.5,2.0051246 C6.97589711,0.83247548 8.1290906,2.66453526e-14 9.46727865,2.66453526e-14 L9.46727865,2.66453526e-14 Z"></path></g></svg>