<svg xmlns="http://www.w3.org/2000/svg" width="18" height="18" viewBox="0 0 18 18">
    <g fill="none" fill-rule="evenodd">
        <g fill="#FFF" fill-rule="nonzero">
            <path d="M37 380c-2.761 0-5-2.239-5-5v-8c0-2.761 2.239-5 5-5h8c2.761 0 5 2.239 5 5v8c0 2.761-2.239 5-5 5h-8zm.25-16.5H37c-1.869 0-3.395 1.464-3.495 3.308L33.5 367v8c0 1.869 1.464 3.395 3.308 3.495l.192.005h.25v-15zm7.75 0h-.25v15H45c1.869 0 3.395-1.464 3.495-3.308L48.5 375v-8c0-1.869-1.464-3.395-3.308-3.495L45 363.5zm-1.75 0h-4.5v15h4.5v-15z" transform="translate(-32 -362)"/>
        </g>
    </g>
</svg>
