<svg id="icon-conn-api" viewBox="0 0 68 68" xmlns="http://www.w3.org/2000/svg"><g id="Page-2" stroke="none" stroke-width="1" fill="#FFF" fill-rule="evenodd"><path d="M14.463236,32.3944025 C14.7063933,32.3891561 14.9445511,32.4852934 15.1181699,32.6597985 L15.1181699,32.6597985 L36.2651247,53.8587556 C36.4391981,54.0332608 36.5350975,54.2720093 36.5278255,54.5175923 C36.5223715,54.7631752 36.4160186,54.9964562 36.2346733,55.1618488 C33.2895162,57.8386574 28.511817,58.4009011 25.0230785,58.4009011 C22.1170084,58.4009011 18.8255227,57.99676 16.1944248,57.318787 L16.1944248,57.318787 L10.7899707,62.7366476 C10.6140794,62.9129752 10.3836481,63 10.1545803,63 C9.92551257,63 9.69462681,62.9129752 9.52055348,62.7366476 L9.52055348,62.7366476 L6.26270074,59.4725358 C6.09408141,59.3034982 6,59.0738622 6,58.8351137 C6,58.5968207 6.09408141,58.3671847 6.26270074,58.1999696 L6.26270074,58.1999696 L11.6689728,52.778464 C11.3617311,51.5058978 8.42884557,38.6399028 13.8205737,32.6898699 C13.985557,32.5085303 14.2164428,32.4019136 14.463236,32.3944025 Z M39.4893445,37.3942186 C40.1601858,37.3942186 40.7905767,37.6557485 41.2664377,38.1309674 C42.2445208,39.1132992 42.2445208,40.7098162 41.2664377,41.692148 L41.2664377,41.692148 L34.5643874,48.4090012 C34.3903141,48.5853288 34.1594283,48.6728092 33.9303606,48.6728092 C33.6994748,48.6728092 33.470407,48.5853288 33.2949702,48.4090012 L33.2949702,48.4090012 L31.0115645,46.1203868 C30.8429452,45.9513492 30.7488638,45.7235357 30.7488638,45.4852427 C30.7488638,45.2464942 30.8429452,45.0168582 31.0115645,44.8478206 L31.0115645,44.8478206 L37.7136148,38.1309674 C38.1876578,37.6557485 38.8180487,37.3942186 39.4893445,37.3942186 Z M29.1226644,27 C29.7921422,27 30.4238966,27.2615299 30.8979396,27.7367488 C31.3719826,28.2119678 31.6328654,28.845745 31.6328654,29.518706 C31.6328654,30.1912115 31.3719826,30.8231661 30.8979396,31.2983851 L30.8979396,31.2983851 L24.1977073,38.0152382 C24.021816,38.1915658 23.7927482,38.2804131 23.5623169,38.2804131 C23.3332492,38.2804131 23.1041814,38.1915658 22.9282901,38.0152382 L22.9282901,38.0152382 L20.6453389,35.7279907 C20.2935562,35.375791 20.2935562,34.8062573 20.6453389,34.4540576 L20.6453389,34.4540576 L27.3455712,27.7367488 C27.8196142,27.2615299 28.4513685,27 29.1226644,27 Z" id="Combined-Shape"></path><path d="M42.5899589,5.26560005 C42.4163401,5.09109491 42.1781823,4.99495761 41.935025,5.00020402 C41.6882318,5.00771517 41.457346,5.11433188 41.2923627,5.29567143 C35.9006346,11.2457043 38.8335201,24.1116994 39.1407618,25.3842656 L33.7344897,30.8057712 C33.5658704,30.9729863 33.471789,31.2026223 33.471789,31.4409152 C33.471789,31.6796637 33.5658704,31.9092997 33.7344897,32.0783374 L36.9923425,35.3424491 C37.1664158,35.5187768 37.3973016,35.6058015 37.6263693,35.6058015 C37.8554371,35.6058015 38.0858684,35.5187768 38.2617597,35.3424491 L43.6662138,29.9245886 C46.2973117,30.6025615 49.5887974,31.0067027 52.4948675,31.0067027 C55.983606,31.0067027 60.7613052,30.444459 63.7064623,27.7676504 C63.8878076,27.6022578 63.9941605,27.3689767 63.9996145,27.1233938 C64.0068865,26.8778108 63.9109871,26.6390623 63.7369137,26.4645572 L42.5899589,5.26560005 Z" id="Combined-Shape-Copy" transform="translate(48.735895, 20.302901) rotate(-180.000000) translate(-48.735895, -20.302901) "></path></g></svg>