<svg xmlns="http://www.w3.org/2000/svg" id="icon-contacts" viewBox="0 0 16 16"><g fill="none"><path fill="#D6D6D6" d="M5.147 10.465s0-1.301.623-1.867c.622-.566 1.074-.622 1.584-.849.509-.226 1.187-.113 1.47-.452.283-.34.227-1.188.227-1.188s-.34-.226-.34-.679c-.056-.396-.113-.735-.17-.792-.056-.056-.226-.056-.226-.282 0-.227-.17-.566-.17-.68 0-.112-.056-.339 0-.452.057-.056.17-.056.17-.056-.056-.17-.113-.623-.17-.905 0-.283-.056-.623 0-.792.057-.17.17-.566.283-.68.113 0 .283-.056.283-.056l.34-.339C9.164.283 9.56.17 9.729.17c.17 0 .34-.17.68-.17.338 0 .621.113.848.226.226.113.452.17.678.227.227.056.283.282.396.395.057.17.17.227.227.453.056.226.056.679 0 1.075-.057.396-.17.848-.17.848l.113-.056s.113.17.113.396c-.056.226-.17.622-.17.678 0 .057 0 .283-.113.34-.113.056-.17.056-.226.17-.057.113-.113.791-.17.905-.056.113-.17.339-.339.509 0 .282 0 1.074.283 1.244.283.17.679.226 1.244.283.566.113.962.34 1.075.396.17.056.622.283.848.679.227.396.396.565.396 1.64-.678.057-10.295.057-10.295.057z" opacity=".58" transform="translate(.5 2.5)"></path><path fill="#FFF" d="M0 10.465s0-1.301.622-1.867c.622-.566 1.075-.622 1.584-.849.51-.226 1.188-.113 1.47-.452.284-.34.227-1.188.227-1.188s-.34-.226-.34-.679c-.056-.396-.112-.735-.17-.792-.056-.056-.225-.17-.225-.339 0-.17-.17-.566-.17-.679 0-.113-.057-.34 0-.452.057-.057.17-.057.17-.057-.057-.17-.113-.622-.17-.905 0-.283-.057-.622 0-.792.057-.226.17-.566.283-.679.113.057.283 0 .283 0l.339-.339c.113-.113.51-.226.679-.226.17 0 .34-.17.679-.17.282 0 .622.113.848.226.226.113.453.17.679.227.17.113.283.282.396.395 0 .114.113.227.17.453.056.226.056.679 0 1.075-.057.396-.17.848-.17.848l.113-.056s.113.17.113.396c-.056.226-.17.622-.17.678 0 .057 0 .283-.113.34-.056.056-.17.056-.226.17-.057.113-.113.791-.17.905-.056.113-.17.339-.34.509 0 .282 0 1.074.284 1.244.283.17.679.226 1.244.283.566.113.962.34 1.075.396.113.056.622.283.848.679.227.396.396.565.396 1.64C9.56 10.465 0 10.465 0 10.465z" transform="translate(.5 2.5)"></path></g></svg>