<svg xmlns="http://www.w3.org/2000/svg" width="11" height="13" viewBox="0 0 11 13">
    <path fill="#FFF" d="M7.28.383C7.02.137 6.67 0 6.305 0H1.375C.619 0 0 .585 0 1.3v10.4c0 .715.612 1.3 1.368 1.3h8.257c.756 0 1.375-.585 1.375-1.3V4.44c0-.345-.144-.676-.406-.917L7.281.383zM7.563 10.4H3.438c-.378 0-.687-.292-.687-.65 0-.358.31-.65.688-.65h4.124c.379 0 .688.292.688.65 0 .358-.31.65-.688.65zm0-2.6H3.438c-.378 0-.687-.293-.687-.65 0-.357.31-.65.688-.65h4.124c.379 0 .688.293.688.65 0 .357-.31.65-.688.65zM6.188 3.9V.975L9.97 4.55H6.875c-.378 0-.688-.293-.688-.65z"/>
</svg>
