<svg xmlns="http://www.w3.org/2000/svg" id="icon-communications-device-payments-white" viewBox="0 0 32 32"><g id="phone-white" stroke="none" stroke-width="1" fill="none" fill-rule="evenodd"><path d="M9.5,1 L22.5,1 C23.3284271,1 24,1.67157288 24,2.5 L24,29.5 C24,30.3284271 23.3284271,31 22.5,31 L9.5,31 C8.67157288,31 8,30.3284271 8,29.5 L8,2.5 C8,1.67157288 8.67157288,1 9.5,1 Z M9.59999996,4 C9.26862913,4 9,4.26862913 9,4.59999996 L9,26.4 C9,26.7313709 9.26862913,27 9.59999996,27 L22.4,27 C22.7313709,27 23,26.7313709 23,26.4 L23,4.59999996 C23,4.26862913 22.7313709,4 22.4,4 L9.59999996,4 Z M14.5,2 C14.2238576,2 14,2.22385763 14,2.5 C14,2.77614237 14.2238576,3 14.5,3 L17.5,3 C17.7761424,3 18,2.77614237 18,2.5 C18,2.22385763 17.7761424,2 17.5,2 L14.5,2 Z M19.5,2 C19.2238576,2 19,2.22385763 19,2.5 C19,2.77614237 19.2238576,3 19.5,3 C19.7761424,3 20,2.77614237 20,2.5 C20,2.22385763 19.7761424,2 19.5,2 Z M16,30 C16.5522847,30 17,29.5522847 17,29 C17,28.4477153 16.5522847,28 16,28 C15.4477153,28 15,28.4477153 15,29 C15,29.5522847 15.4477153,30 16,30 Z" id="Combined-Shape" fill="#FFF" fill-rule="nonzero"></path></g></svg>