<?xml version="1.0" encoding="UTF-8"?>
<svg width="30px" height="57px" viewBox="0 0 30 57" version="1.1" xmlns="http://www.w3.org/2000/svg" xmlns:xlink="http://www.w3.org/1999/xlink">
    <!-- Generator: Sketch 63.1 (92452) - https://sketch.com -->
    <title>device</title>
    <desc>Created with Sketch.</desc>
    <g id="Icons" stroke="none" stroke-width="1" fill="none" fill-rule="evenodd">
        <g id="Icons-/-APPS-/-EXTERNAL-/-Device-3" transform="translate(-19.000000, -6.000000)" fill="#FFFFFF">
            <path d="M46.15,6 C47.7240116,6 49,7.27598845 49,8.84999996 L49,60.15 C49,61.7240116 47.7240116,63 46.15,63 L21.85,63 C20.2759884,63 19,61.7240116 19,60.15 L19,8.84999996 C19,7.27598845 20.2759884,6 21.85,6 L46.15,6 Z M34,57.2999994 C32.9644661,57.2999994 32.125,58.1506583 32.125,59.1999993 C32.125,60.2493403 32.9644661,61.0999993 34,61.0999993 C35.0355339,61.0999993 35.875,60.2493403 35.875,59.1999993 C35.875,58.1506583 35.0355339,57.2999994 34,57.2999994 Z M45.9850001,11.6999999 L22.0149999,11.6999999 C21.427369,11.6999999 20.9435825,12.144611 20.8816894,12.7157843 L20.875,12.8399998 L20.875,54.2599995 C20.875,54.8476304 21.3196111,55.3314168 21.8907844,55.39331 L22.0149999,55.3999994 L45.9850001,55.3999994 C46.572631,55.3999994 47.0564175,54.9553883 47.1183106,54.384215 L47.125,54.2599995 L47.125,12.8399998 C47.125,12.2103953 46.6146047,11.6999999 45.9850001,11.6999999 Z M36.8,7.89999998 L31.2,7.89999998 C30.6753295,7.89999998 30.25,8.32532946 30.25,8.84999996 C30.25,9.37467047 30.6753295,9.79999995 31.2,9.79999995 L31.2,9.79999995 L36.8,9.79999995 C37.3246705,9.79999995 37.75,9.37467047 37.75,8.84999996 C37.75,8.32532946 37.3246705,7.89999998 36.8,7.89999998 L36.8,7.89999998 Z M40.5625,7.89999998 C40.044733,7.89999998 39.625,8.31973302 39.625,8.83749998 L39.625,8.83749998 L39.625,8.86249995 C39.625,9.38026691 40.044733,9.79999995 40.5625,9.79999995 C41.080267,9.79999995 41.5,9.38026691 41.5,8.86249995 L41.5,8.86249995 L41.5,8.83749998 C41.5,8.31973302 41.080267,7.89999998 40.5625,7.89999998 Z" id="device"></path>
        </g>
    </g>
</svg>