<svg xmlns="http://www.w3.org/2000/svg" id="icon-shipping-dhl-32" viewBox="0 0 32 32" preserveAspectRatio="xMidYMin slice" width="100%"><g id="Icons-/-APPS-/-EXTERNAL-/-DHL-32" stroke="none" stroke-width="1" fill="none" fill-rule="evenodd"><path d="M6.04656199,17.2938689 C5.65674066,17.2938689 5.62208988,17.0401691 5.71737953,16.845666 C5.7953438,16.6849894 6.31510558,15.653277 6.41905793,15.4587738 C6.54033568,15.2135307 6.50568489,14.9598309 5.90795885,14.9598309 L2.53817001,14.9598309 L0,20 L6.68760152,20 C8.51543043,20 9.84082296,19.3572939 10.7504061,17.5560254 C10.7937195,17.4714588 10.837033,17.3784355 10.8803465,17.2938689 L6.04656199,17.2938689 Z M11.6513265,17.2938689 L10.2912832,20 L14.4407147,20 L15.8094207,17.2938689 L11.6513265,17.2938689 Z M17.4899838,17.2938689 L16.1299404,20 L20.279372,20 L21.648078,17.2938689 L17.4899838,17.2938689 Z M21.7780184,17.0317125 L24.3075257,12 L20.1580942,12 L18.7893882,14.7315011 L17.0914997,14.7315011 L18.4688684,12 L14.3107742,12 L11.7899296,17.0317125 L21.7780184,17.0317125 Z M25.3643747,12 L29.5224689,12 L26.9842989,17.0317125 L22.8348674,17.0317125 L25.3643747,12 Z M22.7049269,17.2938689 L32,17.2938689 L30.6399567,20 L23.7877639,20 C22.3584191,20 21.8992962,18.9344609 22.4103952,17.9027484 C22.4537087,17.7843552 22.7049269,17.2938689 22.7049269,17.2938689 Z M11.3879908,17.0317125 L8.0701781,17.0317125 C7.68035676,17.0317125 7.74099564,16.7272727 7.86227338,16.4820296 C7.96622574,16.2790698 8.33005898,15.551797 8.50331291,15.205074 C8.67656683,14.8498943 8.46866212,14.7315011 7.88826147,14.7315011 L0.455668079,14.7315011 L1.83303679,12 L9.80271735,12 C12.2282723,12 12.9559388,13.9281184 12.2542604,15.3065539 C12.1069946,15.5940803 11.7778121,16.2621564 11.3879908,17.0317125 Z" id="Shape" fill="#FFF" fill-rule="nonzero"></path></g></svg>