<?xml version="1.0" encoding="UTF-8"?>
<svg width="16px" height="16px" viewBox="0 0 16 16" version="1.1" xmlns="http://www.w3.org/2000/svg" xmlns:xlink="http://www.w3.org/1999/xlink">
    <!-- Generator: Sketch 59 (86127) - https://sketch.com -->
    <title>Artboard</title>
    <desc>Created with Sketch.</desc>
    <g id="Artboard" stroke="none" stroke-width="1" fill="none" fill-rule="evenodd">
        <path d="M11.8246848,13.6071429 C12.1976237,13.6071429 12.5,13.9185021 12.5,14.3036966 C12.5,14.6878899 12.1976237,15 11.8246848,15 L4.17483026,15 C3.80213385,15 3.5,14.6878899 3.5,14.3036966 C3.5,13.9185021 3.80213385,13.6071429 4.17483026,13.6071429 L11.8246848,13.6071429 Z M15.47568,2 C15.80368,2 16,2.18922751 16,2.50445286 L16,2.50445286 L16,11.7099867 C16,12.025212 15.80384,12.2142857 15.47568,12.2142857 L15.47568,12.2142857 L0.65584,12.2142857 C0.32784,12.2142857 0,12.025212 0,11.7099867 L0,11.7099867 L0,2.50445286 C0,2.18922751 0.1968,2 0.5248,2 L0.5248,2 Z" id="1-copy" fill="#FFFFFF"></path>
    </g>
</svg>