<svg xmlns="http://www.w3.org/2000/svg"  id="icon-products-ebay" viewBox="0 0 68 68"><g id="Icons-/-APPS-/-EXTERNAL-/-EBAY-1" stroke="none" stroke-width="1" fill="none" fill-rule="evenodd"><path d="M9.55196525,26.8510408 C4.89911754,26.8510408 1.02190261,28.7863071 1.02190261,34.6249173 C1.02190261,39.2503819 3.62904899,42.1632216 9.6721069,42.1632216 C16.785069,42.1632216 17.2410357,37.5695673 17.2410357,37.5695673 L13.7944699,37.5695673 C13.7944699,37.5695673 13.0554973,40.0430735 9.46185891,40.0430735 C6.53493859,40.0430735 4.42978274,38.1046221 4.42978274,35.3876004 L17.6014609,35.3876004 L17.6014609,33.6826292 C17.6014609,30.9946405 15.8609509,26.8510408 9.55196525,26.8510408 L9.55196525,26.8510408 Z M9.43182338,29.0300819 C12.2179485,29.0300819 14.1173508,30.7034536 14.1173508,33.211485 L4.50601266,33.211485 C4.50601266,30.5489029 6.98521662,29.0300819 9.43182338,29.0300819 L9.43182338,29.0300819 Z" id="e" fill="#FFF" fill-rule="nonzero"></path><path d="M17.599016,21.1973124 L17.599016,39.2310945 C17.599016,40.2547491 17.5244945,41.6920777 17.5244945,41.6920777 L20.811792,41.6920777 C20.811792,41.6920777 20.9297843,40.659768 20.9297843,39.7163375 C20.9297843,39.7163375 22.5539216,42.2073913 26.9700713,42.2073913 C31.6204548,42.2073913 34.7792829,39.0420879 34.7792829,34.5071311 C34.7792829,30.2883262 31.8777972,26.8952105 26.977579,26.8952105 C22.3888708,26.8952105 20.9629844,29.3245469 20.9629844,29.3245469 L20.9629844,21.1973124 L17.599016,21.1973124 Z M26.129078,29.125783 C29.2870502,29.125783 31.2951738,31.4235889 31.2951738,34.5071311 C31.2951738,37.8136705 28.9758581,39.9768188 26.1516054,39.9768188 C22.7811072,39.9768188 20.9629844,37.3967494 20.9629844,34.5365777 C20.9629844,31.871455 22.5944393,29.125783 26.129078,29.125783 Z" id="b" fill="#FFF" fill-rule="nonzero"></path><path d="M42.94892,26.8510408 C35.9490625,26.8510408 35.5001337,30.6086676 35.5001337,31.2091231 L38.9842429,31.2091231 C38.9842429,31.2091231 39.1669486,29.0153586 42.7086371,29.0153586 C45.0100835,29.0153586 46.7934567,30.0481122 46.7934567,32.033625 L46.7934567,32.7403411 L42.7086371,32.7403411 C37.2857491,32.7403411 34.4188575,34.2956441 34.4188575,37.4517813 C34.4188575,40.5578737 37.0677736,42.2478803 40.6474559,42.2478803 C45.526007,42.2478803 47.0975636,39.6050569 47.0975636,39.6050569 C47.0975636,40.6562274 47.1802272,41.6920777 47.1802272,41.6920777 L50.2775659,41.6920777 C50.2775659,41.6920777 50.1574233,40.4081088 50.1574233,39.5866527 L50.1574233,32.486365 C50.1574233,27.8308037 46.327123,26.8510408 42.94892,26.8510408 L42.94892,26.8510408 Z M46.7934567,34.8604891 L46.7934567,35.8027772 C46.7934567,37.0317777 46.0199092,40.0872432 41.4659218,40.0872432 C38.9721738,40.0872432 37.9029689,38.8670815 37.9029689,37.4517813 C37.9029689,34.8770711 41.5036098,34.8604891 46.7934567,34.8604891 L46.7934567,34.8604891 Z" id="a" fill="#FFF" fill-rule="nonzero"></path><polygon id="y" fill="#FFF" fill-rule="nonzero" points="48.2812825 27.4405644 52.2009069 27.4405644 57.8261126 38.4893123 63.4384483 27.4405644 66.9890659 27.4405644 56.7662923 47.1108207 53.041898 47.1108207 55.9918074 41.6274685"></polygon></g></svg>