<svg xmlns="http://www.w3.org/2000/svg" id="icon-contact" viewBox="0 0 17 16"><g id="Icons-/-FUNCTIONS-/-16PX-/-Mail" stroke="none" stroke-width="1" fill="#FFF" fill-rule="evenodd"><g id="Group-3-Copy-3" transform="translate(2.000000, 2.000000)" fill="#FFF" fill-rule="nonzero"><path d="M11.7,0 L1.3,0 C0.585,0 0,0.585 0,1.3 L0,9.1 C0,9.815 0.585,10.4 1.3,10.4 L11.7,10.4 C12.415,10.4 13,9.815 13,9.1 L13,1.3 C13,0.585 12.415,0 11.7,0 Z M11.44,2.7625 L7.189,5.421 C6.7665,5.6875 6.2335,5.6875 5.811,5.421 L1.56,2.7625 C1.3975,2.6585 1.3,2.483 1.3,2.2945 C1.3,1.859 1.7745,1.599 2.145,1.8265 L6.5,4.55 L10.855,1.8265 C11.2255,1.599 11.7,1.859 11.7,2.2945 C11.7,2.483 11.6025,2.6585 11.44,2.7625 Z" id="icon/content/mail_24px"></path></g></g></svg>