<svg xmlns="http://www.w3.org/2000/svg" width="34" height="34" viewBox="0 0 34 34">
    <g fill="none" fill-rule="evenodd">
        <g fill="#FFF">
            <g>
                <g>
                    <path d="M46 29.103C46 19.657 38.389 12 29 12s-17 7.657-17 17.103C12 37.64 18.217 44.716 26.344 46V34.048h-4.316v-4.945h4.316v-3.768c0-4.287 2.537-6.654 6.42-6.654 1.86 0 3.807.333 3.807.333v4.21h-2.145c-2.11 0-2.77 1.318-2.77 2.67v3.21h4.716l-.754 4.944h-3.962V46C39.783 44.716 46 37.64 46 29.103" transform="translate(-442 -202) translate(412 135) translate(18 55)"/>
                </g>
            </g>
        </g>
    </g>
</svg>
