<svg xmlns="http://www.w3.org/2000/svg" d="icon-filter-overnight_stay" viewBox="0 0 22 22" preserveaspectratio="xMidYMin slice" width="100%">
        <g fill="none" fill-rule="evenodd">
          <rect width="22" height="22" fill="#86868B" rx="5.5"></rect>
          <path fill="#FFF" d="M9.29 12.914v4.646c0 .243-.19.44-.425.44H6.297c-.235 0-.426-.197-.426-.44v-6.194c0-.243-.19-.44-.426-.44H4.427c-.392 0-.576-.5-.283-.77l6.573-6.045c.162-.148.404-.148.566 0l6.573 6.045c.293.27.109.77-.283.77h-1.018c-.236 0-.426.197-.426.44v6.194c0 .243-.19.44-.426.44h-2.568c-.235 0-.425-.197-.425-.44v-4.646c0-.244-.191-.44-.426-.44H9.716c-.235 0-.426.196-.426.44z"></path>
        </g>
</svg>