<svg xmlns="http://www.w3.org/2000/svg" id="icon-filter-retail_b2c" viewBox="0 0 22 22" preserveaspectratio="xMidYMin slice" width="100%">
        <g fill="none" fill-rule="evenodd">
          <rect width="22" height="22" fill="#86868B" rx="5.5"></rect>
          <path fill="#FFF" d="M16.23 9.384c-.633 0-1.147-.538-1.147-1.198 0-.03.002-.061.004-.092h2.285c.002.03.005.061.005.092 0 .66-.515 1.198-1.148 1.198zm-.195 6.999H13.19v-4.727H8.81v4.727H5.895c-.03 0-.054-.026-.054-.057v-5.944c.695-.025 1.307-.402 1.673-.967.378.585 1.019.969 1.742.969.725 0 1.365-.384 1.744-.97.379.586 1.019.97 1.744.97.723 0 1.364-.384 1.742-.97.354.547.937.918 1.603.964v5.948c0 .03-.025.057-.054.057zm-6.236 0h2.403V12.69H9.799v3.693zm-5.17-8.29h2.284c.002.032.004.062.004.093 0 .66-.514 1.198-1.146 1.198-.633 0-1.148-.538-1.148-1.198 0-.03.003-.061.005-.092zm5.775.093c0 .66-.515 1.198-1.148 1.198-.632 0-1.146-.538-1.146-1.198 0-.03.001-.061.004-.092h2.285c.003.03.005.061.005.092zm3.486 0c0 .66-.514 1.198-1.146 1.198-.633 0-1.148-.538-1.148-1.198 0-.03.002-.061.005-.092h2.285c.003.03.004.061.004.092zM4.623 5.66c0-.042.034-.077.074-.077h12.606c.04 0 .074.035.074.077v1.435H4.623V5.66zm13.71 2.526c0-.03 0-.061-.002-.092h.002V5.66c0-.593-.462-1.077-1.03-1.077H4.697c-.568 0-1.03.484-1.03 1.077v2.434h.002c-.002.03-.002.061-.002.092 0 .868.484 1.62 1.184 1.976v6.164c0 .601.469 1.09 1.044 1.09h10.14c.575 0 1.043-.489 1.043-1.09v-6.13c.738-.34 1.255-1.114 1.255-2.01z"></path>
        </g>
</svg>