<svg xmlns="http://www.w3.org/2000/svg" id="icon-filter-services" viewBox="0 0 22 22" preserveaspectratio="xMidYMin slice" width="100%">
        <g fill="none" fill-rule="evenodd">
          <rect width="22" height="22" fill="#86868B" rx="5.5"></rect>
          <path fill="#FFF" d="M11.488 8.293c-.13.123-.306.185-.484.173-.181.013-.359-.05-.492-.173-.12-.127-.184-.298-.173-.473-.012-.179.051-.354.173-.484.133-.122.308-.185.488-.173.33-.035.626.204.66.534.005.04.005.082 0 .123.012.175-.051.346-.172.473zm-1.078 6.545h1.177V9.29H10.41v5.548zM11 4c-3.866 0-7 3.134-7 7s3.134 7 7 7 7-3.134 7-7-3.134-7-7-7z"></path>
        </g>
</svg>
