<svg xmlns="http://www.w3.org/2000/svg" id="icon-filter-food" viewBox="0 0 22 22" preserveaspectratio="xMidYMin slice" width="100%">
        <g fill="none" fill-rule="evenodd">
          <rect width="22" height="22" fill="#86868B" rx="5.5"></rect>
          <path fill="#FFF" d="M9.298 4c.378.52.968.844 1.611.875-.008.082-.013.165-.013.247 0 1.343 1.079 2.436 2.404 2.436.111 0 .223-.008.334-.024.173 1.193 1.201 2.1 2.433 2.079-.017.105-.025.21-.025.317 0 1.103.875 2.003 1.958 2.025-.445 3.124-2.908 5.587-5.954 6.045-.096-.913-.86-1.626-1.786-1.626-.794 0-1.468.521-1.704 1.252C6.069 16.68 4.245 14.353 4 11.57c.116.027.235.046.357.046.881 0 1.598-.726 1.598-1.62 0-.863-.67-1.569-1.51-1.616.81-2.127 2.598-3.805 4.853-4.38zm2.286 6.357c-.732 0-1.327.604-1.327 1.346 0 .742.595 1.345 1.327 1.345s1.327-.603 1.327-1.345-.595-1.346-1.327-1.346z"></path>
        </g>
</svg>