<svg xmlns="http://www.w3.org/2000/svg" id="icon-filter-retail_b2b" viewBox="0 0 22 22" preserveaspectratio="xMidYMin slice" width="100%">
        <g fill="none" fill-rule="evenodd">
          <rect width="22" height="22" fill="#86868B" rx="5.5"></rect>
          <path fill="#FFF" d="M13.45 6.118V5.64c0-.228-.188-.412-.422-.412H8.975c-.233-.002-.424.18-.426.408v.482c0 .14-.114.253-.258.255h-.33c-.144 0-.261-.114-.261-.255V5.64c.002-.685.573-1.24 1.276-1.24h4.049c.702 0 1.273.555 1.275 1.24v.478c0 .14-.117.255-.261.255h-.327c-.144 0-.261-.114-.261-.255M4.374 10.626c4.387.655 8.854.655 13.24 0l.155-.024c.54-.08.937-.526.931-1.048V7.6c-.018-.41-.372-.734-.803-.734H4.103c-.436 0-.793.332-.803.748v1.955c-.006.521.39.968.931 1.048l.143.01z"></path>
          <path fill="#FFF" d="M17.714 11.241c-1.781.298-3.583.475-5.39.53-.153.007-.28.115-.304.26-.055.487-.506.846-1.02.81-.515.052-.978-.304-1.033-.795v-.012c-.027-.148-.16-.258-.316-.262-1.804-.058-3.601-.235-5.38-.53l-.604-.092c-.179-.021-.342.1-.365.27l-.002.038v4.19c-.002.59.499 1.07 1.118 1.072H17.574c.617.002 1.12-.47 1.126-1.058v-4.19c0-.172-.147-.31-.328-.31-.012 0-.026 0-.039.002l-.62.077z"></path>
        </g>
</svg>