<svg xmlns="http://www.w3.org/2000/svg" id="icon-filter-meals" viewBox="0 0 22 22" preserveaspectratio="xMidYMin slice" width="100%">
        <g fill="none" fill-rule="evenodd">
          <rect width="22" height="22" fill="#86868B" rx="5.5"></rect>
          <path stroke="#FFF" stroke-width=".917" d="M7.117 14.103c-.167.163-.963.98-1.172 1.072-.226.1-.674-.278-1.055-.196-.521.112-.9.6-.872 1.134.012.234.102.46.252.64.2.241.684.041.867.268.151.189-.103.47-.002.664.114.217.305.398.53.497.43.191.938.08 1.255-.263.157-.17.259-.389.284-.619.018-.16-.13-.524-.095-.627.064-.185 1.04-.903 1.19-1.039"></path>
          <path fill="#FFF" d="M8.272 15.615c.865.644 1.403.085 2.08-.385.954-.662 1.916-1.17 3.058-1.452.574-.142 1.172-.178 1.74-.336.766-.214 1.472-.62 2.044-1.17.976-.94 1.512-2.282 1.461-3.634-.104-2.816-2.752-5.022-5.543-4.582-1.318.208-2.608 1.034-3.3 2.181-.466.773-.74 1.636-.747 2.542-.008.823.08 1.53-.275 2.31-.452.992-.836.984-1.488 1.801-.723.906.198 2.15.97 2.725z"></path>
        </g>
</svg>