<svg xmlns="http://www.w3.org/2000/svg" width="20" height="14" viewBox="0 0 20 14">
    <g fill="none" fill-rule="evenodd">
        <g fill="#FFF">
            <g>
                <g transform="translate(-251 -324) matrix(-1 0 0 1 271 322) matrix(1 0 0 -1 9.63 15.815)">
                    <g transform="translate(0 8.148)">
                        <rect width="6.667" height="1.111" x="3.861" y="2.222" rx=".556" transform="scale(1 -1) rotate(45 13.9 0)"/>
                        <rect width="6.667" height="1.111" x="-.139" y="2.222" rx=".556" transform="rotate(-135 3.194 2.778)"/>
                    </g>
                    <rect width="13.333" height="1.111" x="-1.481" y="6.185" rx=".556" transform="matrix(0 1 1 0 -1.556 1.556)"/>
                </g>
                <g transform="translate(-251 -324) matrix(-1 0 0 1 271 322) translate(0 2.407)">
                    <g transform="translate(0 8.148)">
                        <rect width="6.667" height="1.111" x="3.861" y="2.222" rx=".556" transform="scale(1 -1) rotate(45 13.9 0)"/>
                        <rect width="6.667" height="1.111" x="-.139" y="2.222" rx=".556" transform="rotate(-135 3.194 2.778)"/>
                    </g>
                    <rect width="13.333" height="1.111" x="-1.481" y="6.185" rx=".556" transform="matrix(0 1 1 0 -1.556 1.556)"/>
                </g>
            </g>
        </g>
    </g>
</svg>
