<svg xmlns="http://www.w3.org/2000/svg" xmlns:xlink="http://www.w3.org/1999/xlink" width="16" height="16" viewBox="0 0 16 16">
    <defs>
        <path id="9hodurdxya" d="M0.092 0.022L4.516 0.022 4.516 3.848 0.092 3.848z"/>
        <path id="6a4bbr8ioc" d="M0.005 0.046L3.802 0.046 3.802 3.843 0.005 3.843z"/>
    </defs>
    <g fill="none" fill-rule="evenodd">
        <g>
            <g>
                <g>
                    <path fill="#FFF" d="M2.976 7.839c.067-.986.362-1.92.85-2.723-.689.013-1.46.145-1.912.597C.479 7.147 0 9.54 0 9.54l3.031-.434c-.064-.402-.084-.829-.055-1.267M4.602 11.817c-.029.04-.046.087-.082.123-.617.616-1.541.308-1.541.308s-.309-.925.308-1.54c.037-.037.083-.054.123-.083l-.289-.29c-.24.064-.468.184-.656.371-.863.864-.726 2.782-.726 2.782s1.906.148 2.781-.726c.188-.188.308-.416.371-.656l-.29-.29z" transform="translate(-75 -588) translate(75 584) translate(0 4)"/>
                    <g transform="translate(-75 -588) translate(75 584) translate(0 4) translate(5.597 11.38)">
                        <mask id="fmtyn880xb" fill="#fff">
                            <use xlink:href="#9hodurdxya"/>
                        </mask>
                        <path fill="#FFF" d="M1.41.889c-.303 0-.6-.024-.885-.07L.092 3.848s2.392-.479 3.827-1.914c.452-.452.584-1.224.597-1.912-.972.592-2.075.867-3.105.867" mask="url(#fmtyn880xb)"/>
                    </g>
                    <g transform="translate(-75 -588) translate(75 584) translate(0 4) translate(11.31 .07)">
                        <mask id="qheof88mcd" fill="#fff">
                            <use xlink:href="#6a4bbr8ioc"/>
                        </mask>
                        <path fill="#FFF" d="M.005.68l3.163 3.163c.396-1.279.562-2.367.63-3.056.043-.424-.313-.78-.737-.738C2.372.12 1.284.283.005.68" mask="url(#qheof88mcd)"/>
                    </g>
                    <path fill="#FFF" d="M9.177 7.649c-1 .126-1.84-.714-1.714-1.714.086-.681.636-1.231 1.317-1.317 1-.125 1.84.714 1.714 1.714-.086.681-.636 1.231-1.317 1.317m-4.12-3.167c-.872.872-1.342 2.016-1.472 3.12l-.075 2.28 1.837 1.836 1.969-.046c1.196-.073 2.476-.546 3.43-1.5 1.789-1.789 2.852-3.781 3.484-5.521L10.578.999c-1.74.632-3.733 1.695-5.521 3.483" transform="translate(-75 -588) translate(75 584) translate(0 4)"/>
                </g>
            </g>
        </g>
    </g>
</svg>
