<svg _ngcontent-rql-c361="" xmlns="http://www.w3.org/2000/svg" width="90" height="90" viewBox="0 0 90 90">
    <defs _ngcontent-rql-c361="">
      <linearGradient _ngcontent-rql-c361="" id="prefix__a" x1="50%" x2="50%" y1="118.938%" y2="-10.442%">
        <stop _ngcontent-rql-c361="" offset="0%" stop-color="#9C9C9C"></stop>
        <stop _ngcontent-rql-c361="" offset="100%" stop-color="#C9C9C9"></stop>
      </linearGradient>
    </defs>
    <g _ngcontent-rql-c361="" fill="none">
      <path _ngcontent-rql-c361="" fill="#737373" d="M28.926 58.806s0-7.31 3.497-10.49c3.496-3.178 6.04-3.496 8.9-4.768 2.861-1.271 6.676-.635 8.265-2.543 1.59-1.907 1.271-6.675 1.271-6.675s-1.907-1.271-1.907-3.814c-.318-2.225-.636-4.133-.953-4.45-.318-.318-1.272-.318-1.272-1.59 0-1.271-.954-3.179-.954-3.814 0-.636-.317-1.908 0-2.543.318-.318.954-.318.954-.318-.318-.954-.636-3.497-.954-5.086 0-1.59-.317-3.497 0-4.45.318-.954.954-3.18 1.59-3.815.636 0 1.59-.318 1.59-.318l1.906-1.907C51.495 1.59 53.72.954 54.674.954 55.627.954 56.58 0 58.488 0c1.908 0 3.497.636 4.768 1.271 1.272.636 2.543.954 3.815 1.272 1.271.318 1.59 1.59 2.225 2.225.318.954.954 1.272 1.271 2.543.318 1.272.318 3.814 0 6.04-.317 2.225-.953 4.768-.953 4.768l.636-.318s.635.953.635 2.225c-.318 1.271-.953 3.496-.953 3.814 0 .318 0 1.59-.636 1.908-.636.317-.954.317-1.272.953-.317.636-.635 4.45-.953 5.086-.318.636-.954 1.907-1.907 2.86 0 1.59 0 6.04 1.589 6.994 1.59.954 3.814 1.272 6.993 1.59 3.179.635 5.404 1.907 6.04 2.225.953.317 3.496 1.589 4.768 3.814 1.271 2.225 2.225 3.179 2.225 9.218-3.815.318-57.853.318-57.853.318z" transform="translate(2.813 16.875)"></path>
      <path _ngcontent-rql-c361="" fill="url(#prefix__a)" d="M0 58.806s0-7.31 3.497-10.49c3.496-3.178 6.04-3.496 8.9-4.768 2.86-1.271 6.675-.635 8.265-2.543 1.589-1.907 1.271-6.675 1.271-6.675s-1.907-1.271-1.907-3.814c-.318-2.225-.636-4.133-.954-4.45-.318-.318-1.271-.954-1.271-1.908 0-.953-.954-3.179-.954-3.814 0-.636-.318-1.907 0-2.543.318-.318.954-.318.954-.318-.318-.954-.636-3.497-.954-5.086 0-1.59-.318-3.497 0-4.45.318-1.272.954-3.179 1.59-3.815.635.318 1.589 0 1.589 0l1.907-1.907c.636-.636 2.86-1.271 3.815-1.271C26.7.954 27.655 0 29.562 0c1.59 0 3.497.636 4.768 1.271 1.272.636 2.543.954 3.815 1.272.953.636 1.589 1.59 2.225 2.225 0 .636.635 1.272.953 2.543.318 1.272.318 3.814 0 6.04-.318 2.225-.953 4.768-.953 4.768l.635-.318s.636.953.636 2.225c-.318 1.271-.953 3.496-.953 3.814 0 .318 0 1.59-.636 1.908-.318.317-.954.317-1.272.953-.318.636-.635 4.45-.953 5.086-.318.636-.954 1.907-1.908 2.86 0 1.59 0 6.04 1.59 6.994 1.59.954 3.814 1.272 6.993 1.59 3.179.635 5.404 1.907 6.04 2.225.635.317 3.496 1.589 4.768 3.814 1.271 2.225 2.225 3.179 2.225 9.218C53.72 58.806 0 58.806 0 58.806z" transform="translate(2.813 16.875)"></path>
    </g>
  </svg>