<svg xmlns="http://www.w3.org/2000/svg" id="icon-plus-8" viewBox="0 0 8 8" preserveAspectRatio="xMidYMin slice" width="100%"><g id="Artboard" stroke="none" stroke-width="1" fill="#FFF" fill-rule="evenodd"><path d="M4,0 C4.27614237,-5.07265313e-17 4.5,0.223857625 4.5,0.5 L4.5,3.5 L7.5,3.5 C7.77614237,3.5 8,3.72385763 8,4 C8,4.27614237 7.77614237,4.5 7.5,4.5 L4.5,4.5 L4.5,7.5 C4.5,7.77614237 4.27614237,8 4,8 C3.72385763,8 3.5,7.77614237 3.5,7.5 L3.5,4.5 L0.5,4.5 C0.223857625,4.5 0,4.27614237 0,4 C0,3.72385763 0.223857625,3.5 0.5,3.5 L3.5,3.499 L3.5,0.5 C3.5,0.223857625 3.72385763,5.07265313e-17 4,0 Z" id="Combined-Shape"></path></g></svg>