<svg xmlns="http://www.w3.org/2000/svg" id="icon-visibility-16" viewBox="0 -2 16 16" preserveAspectRatio="xMidYMin slice" width="100%"><path fill="#FFF" d="M8 0C4.364 0 1.258 2.262 0 5.455c1.258 3.192 4.364 5.454 8 5.454s6.742-2.262 8-5.454C14.742 2.262 11.636 0 8 0zm0 9.09a3.638 3.638 0 0 1-3.636-3.635A3.638 3.638 0 0 1 8 1.818a3.638 3.638 0 0 1 3.636 3.637A3.638 3.638 0 0 1 8 9.09zm0-5.817a2.179 2.179 0 0 0-2.182 2.182c0 1.207.975 2.181 2.182 2.181a2.179 2.179 0 0 0 2.182-2.181A2.179 2.179 0 0 0 8 3.273z"></path></svg>