<svg xmlns="http://www.w3.org/2000/svg" xmlns:xlink="http://www.w3.org/1999/xlink" width="32" height="32" viewBox="0 0 32 32">
    <defs>
        <path id="zfi8rkhcua" d="M0 0.01L31.99 0.01 31.99 32 0 32z"/>
    </defs>
    <g fill="none" fill-rule="evenodd">
        <g>
            <g>
                <g>
                    <g transform="translate(-813 -203) translate(412 135) translate(401 68) translate(0 .053)">
                        <mask id="fnq4nlx9ub" fill="#fff">
                            <use xlink:href="#zfi8rkhcua"/>
                        </mask>
                        <path fill="#FFF" d="M15.995.01C11.651.01 11.106.03 9.4.106 7.698.184 6.535.454 5.518.85c-1.052.409-1.944.955-2.833 1.845-.89.889-1.437 1.78-1.845 2.833C.444 6.545.174 7.708.096 9.41.018 11.116 0 11.661 0 16.005c0 4.344.018 4.889.096 6.595.078 1.702.348 2.865.744 3.882.408 1.052.955 1.944 1.845 2.833.889.89 1.78 1.436 2.833 1.845 1.017.396 2.18.666 3.882.744 1.706.078 2.251.096 6.595.096 4.344 0 4.889-.018 6.595-.096 1.702-.078 2.865-.348 3.882-.744 1.052-.409 1.944-.955 2.833-1.845.89-.889 1.436-1.78 1.845-2.833.396-1.017.666-2.18.744-3.882.078-1.706.096-2.251.096-6.595 0-4.344-.018-4.889-.096-6.595-.078-1.702-.348-2.865-.744-3.882-.409-1.052-.955-1.944-1.845-2.833-.889-.89-1.78-1.436-2.833-1.845-1.017-.396-2.18-.666-3.882-.744C20.884.03 20.339.01 15.995.01m0 2.882c4.27 0 4.777.016 6.463.093 1.56.071 2.407.332 2.97.551.747.29 1.28.637 1.84 1.197s.906 1.092 1.196 1.839c.219.563.48 1.41.55 2.97.078 1.686.094 2.192.094 6.463 0 4.27-.016 4.777-.093 6.463-.071 1.56-.332 2.407-.551 2.97-.29.747-.637 1.28-1.197 1.84s-1.092.906-1.839 1.196c-.563.219-1.41.48-2.97.55-1.686.078-2.192.094-6.463.094s-4.777-.016-6.463-.093c-1.56-.071-2.407-.332-2.97-.551-.747-.29-1.28-.637-1.84-1.196-.56-.56-.906-1.093-1.196-1.84-.219-.563-.48-1.41-.55-2.97-.078-1.686-.094-2.192-.094-6.463 0-4.27.016-4.777.093-6.463.071-1.56.332-2.407.55-2.97.291-.747.638-1.28 1.197-1.84.56-.56 1.093-.906 1.84-1.196.563-.219 1.41-.48 2.97-.55 1.686-.078 2.192-.094 6.463-.094" mask="url(#fnq4nlx9ub)"/>
                    </g>
                    <path fill="#FFF" d="M15.995 21.39c-2.945 0-5.332-2.387-5.332-5.332 0-2.944 2.387-5.331 5.332-5.331s5.332 2.387 5.332 5.331c0 2.945-2.387 5.332-5.332 5.332m0-13.545c-4.536 0-8.214 3.677-8.214 8.213 0 4.537 3.678 8.214 8.214 8.214 4.536 0 8.214-3.677 8.214-8.214 0-4.536-3.678-8.213-8.214-8.213M26.452 7.52c0 1.06-.859 1.92-1.919 1.92s-1.92-.86-1.92-1.92.86-1.92 1.92-1.92 1.92.86 1.92 1.92" transform="translate(-813 -203) translate(412 135) translate(401 68)"/>
                </g>
            </g>
        </g>
    </g>
</svg>
