<svg xmlns="http://www.w3.org/2000/svg" id="icon-authentification-key" viewBox="0 0 16 16"><g id="authentification-key" stroke="none" stroke-width="1" fill="#FFF" fill-rule="evenodd"><path d="M8.47212189,5.91083346 C7.78115724,3.95431248 5.74462983,2.63784298 3.46808311,3.08878833 C1.80249463,3.42336069 0.44965856,4.75437682 0.100539576,6.41996531 C-0.495872023,9.23473713 1.64248176,11.7294832 4.36270051,11.7294832 C6.26103499,11.7294832 7.8757103,10.5148401 8.47212189,8.82015833 L11.6360127,8.82015833 L11.6360127,10.2748208 C11.6360127,11.0748851 12.2906108,11.7294832 13.0906751,11.7294832 C13.8907395,11.7294832 14.5453376,11.0748851 14.5453376,10.2748208 L14.5453376,8.82015833 C15.3454019,8.82015833 16,8.16556023 16,7.36549589 C16,6.56543156 15.3454019,5.91083346 14.5453376,5.91083346 L8.47212189,5.91083346 Z M4.36270051,8.82015833 C3.56263617,8.82015833 2.90803808,8.16556023 2.90803808,7.36549589 C2.90803808,6.56543156 3.56263617,5.91083346 4.36270051,5.91083346 C5.16276485,5.91083346 5.81736295,6.56543156 5.81736295,7.36549589 C5.81736295,8.16556023 5.16276485,8.82015833 4.36270051,8.82015833 Z" id="icon/content/add_circle_24px" fill="#FFF" fill-rule="nonzero"></path></g></svg>