<svg xmlns="http://www.w3.org/2000/svg" width="18" height="22" viewBox="0 0 18 22">
    <g fill="none" fill-rule="evenodd">
        <g fill="#FFF">
            <g>
                <g transform="translate(-32 -320) translate(32 320) translate(0 7)">
                    <rect width="18" height="1.5" y="12.55" rx=".75" transform="matrix(1 0 0 -1 0 26.6)"/>
                    <g>
                        <g transform="translate(2) translate(0 .5)">
                            <g transform="translate(0 5)">
                                <rect width="9" height="1.5" x="5.212" y="3" rx=".75" transform="scale(1 -1) rotate(45 18.766 0)"/>
                                <rect width="9" height="1.5" x="-.188" y="3" rx=".75" transform="rotate(-135 4.312 3.75)"/>
                            </g>
                            <rect width="12" height="1.5" x="1" y="5.5" rx=".75" transform="matrix(0 1 1 0 .75 -.75)"/>
                        </g>
                    </g>
                </g>
                <g transform="translate(-32 -320) translate(32 320) matrix(1 0 0 -1 0 15)">
                    <rect width="18" height="1.5" y="12.55" rx=".75" transform="matrix(1 0 0 -1 0 26.6)"/>
                    <g>
                        <g transform="translate(2) translate(0 .5)">
                            <g transform="translate(0 5)">
                                <rect width="9" height="1.5" x="5.212" y="3" rx=".75" transform="scale(1 -1) rotate(45 18.766 0)"/>
                                <rect width="9" height="1.5" x="-.188" y="3" rx=".75" transform="rotate(-135 4.312 3.75)"/>
                            </g>
                            <rect width="12" height="1.5" x="1" y="5.5" rx=".75" transform="matrix(0 1 1 0 .75 -.75)"/>
                        </g>
                    </g>
                </g>
            </g>
        </g>
    </g>
</svg>
