<svg xmlns="http://www.w3.org/2000/svg" id="icon-apps-cart" viewBox="0 0 32 32"><path fill="#FFF" d="M6.6,4l23.8,1.4c0.7,0,1.3,0.7,1.1,1.5c-1.2,6.1-2,9.6-2.2,10.7c-0.1,0.3-0.1,0.5-0.2,0.7 c-0.4,1.2-1,1.6-2.1,1.8c0,0-0.3,0-0.4,0c-0.8,0.1-6,0.3-16.1,0.7c-0.4,0.8-1.2,2-1.2,2s9.3,0,17.2,0c1.3,0,1.9,1.1,1.9,2.5 c0,0.7-0.5,1.2-1.2,1.2S26,26,26,25.3c0-0.2,0,0,0,0H8.5c-2,0-2.8-1.8-1.5-3.5c0.4-0.5,0.9-1.4,1.5-2.5C5.7,10,4.3,5,4.2,4.1 C4.1,3.4,3.7,3,3.5,3H1.7C1,3,0.5,2.4,0.5,1.7S1,0.5,1.7,0.5h1.8c1.6,0,2.8,1.4,3.1,3.3C6.6,3.8,6.6,3.9,6.6,4z M7.3,6.5 c0.7,2.4,1.9,6.4,3.5,11.8c9.6-0.3,14.9-0.6,15.5-0.6c0.1,0,0.1,0,0.2,0c0.1,0,0.2,0,0.3,0c0,0,0,0,0-0.1c0-0.1,0.1-0.3,0.1-0.5 c0.2-0.9,0.9-4,1.9-9.2L7.3,6.5z M8.5,31.5c-1.3,0-2.4-1.1-2.4-2.5s1.1-2.5,2.4-2.5s2.4,1.1,2.4,2.5S9.8,31.5,8.5,31.5z M23.1,31.5 c-1.3,0-2.4-1.1-2.4-2.5s1.1-2.5,2.4-2.5s2.4,1.1,2.4,2.5S24.4,31.5,23.1,31.5z"></path></svg>