<?xml version="1.0" encoding="UTF-8"?>
<svg width="16px" height="16px" viewBox="0 0 16 16" version="1.1" xmlns="http://www.w3.org/2000/svg" xmlns:xlink="http://www.w3.org/1999/xlink">
    <!-- Generator: Sketch 58 (84663) - https://sketch.com -->
    <title>Icons / FUNCTIONS / Tables / lock</title>
    <desc>Created with Sketch.</desc>
    <g id="Icons-/-FUNCTIONS-/-Tables-/-lock" stroke="none" stroke-width="1" fill="none" fill-rule="evenodd">
        <path d="M12.5,5.33333333 L11.75,5.33333333 L11.75,3.80952381 C11.75,1.70666667 10.07,0 8,0 C5.93,0 4.25,1.70666667 4.25,3.80952381 L4.25,5.33333333 L3.5,5.33333333 C2.675,5.33333333 2,6.01904762 2,6.85714286 L2,14.4761905 C2,15.3142857 2.675,16 3.5,16 L12.5,16 C13.325,16 14,15.3142857 14,14.4761905 L14,6.85714286 C14,6.01904762 13.325,5.33333333 12.5,5.33333333 Z M5.75,3.80952381 C5.75,2.5447619 6.755,1.52380952 8,1.52380952 C9.245,1.52380952 10.25,2.5447619 10.25,3.80952381 L10.25,5.33333333 L5.75,5.33333333 L5.75,3.80952381 Z" id="icon/action/lock_outline_24px" fill="#FFFFFF" fill-rule="nonzero"></path>
    </g>
</svg>