<svg xmlns="http://www.w3.org/2000/svg" width="18" height="18" viewBox="0 0 18 18">
    <g fill="none" fill-rule="evenodd">
        <g fill="#FFF" fill-rule="nonzero">
            <g>
                <path d="M13 0c2.761 0 5 2.239 5 5v8c0 2.761-2.239 5-5 5H5c-2.761 0-5-2.239-5-5V5c0-2.761 2.239-5 5-5h8zm0 1.5H5c-1.869 0-3.395 1.464-3.495 3.308L1.5 5v8c0 1.869 1.464 3.395 3.308 3.495L5 16.5h8c1.869 0 3.395-1.464 3.495-3.308L16.5 13V5c0-1.869-1.464-3.395-3.308-3.495L13 1.5z" transform="translate(-32 -400) translate(32 400)"/>
                <path d="M13 4c.552 0 1 .448 1 1v8c0 .552-.448 1-1 1H5c-.552 0-1-.448-1-1V5c0-.552.448-1 1-1h8zm-.5 1.5h-7v7h7v-7z" transform="translate(-32 -400) translate(32 400)"/>
            </g>
        </g>
    </g>
</svg>
