<svg xmlns="http://www.w3.org/2000/svg" id="icon-images-128" viewBox="0 0 128 128"
    preserveAspectRatio="xMidYMin slice" width="100%">
    <path class="path1" fill="#555"
        d="M60.1272 31.6333c-2.37282,0 -4.29564,1.91928 -4.29564,4.28619 0,2.36691 1.92282,4.28501 4.29564,4.28501 2.37046,0 4.29328,-1.9181 4.29328,-4.28501 0,-2.3681 -1.92282,-4.28619 -4.29328,-4.28619zm67.1004 32.023l-19.0794 40.8328c-1.91574,4.09722 -6.80193,5.8724 -10.9098,3.96257l-11.205 -5.21453c-0.814956,-0.277557 -1.41023,-1.02165 -1.41023,-1.92873 0,-1.13976 0.923616,-2.06219 2.06455,-2.06219 0.354329,0 0.669681,0.112204 0.96023,0.265746l0.0200786 -0.0330707 11.3031 5.25942c2.05392,0.954325 4.49643,0.0685035 5.45666,-1.9807l19.0782 -40.8328c0.957868,-2.05038 0.0685035,-4.48698 -1.9866,-5.44249l-14.172 -6.59524c0,0 -2.12951,-0.73346 -2.12951,-2.31258 0,-1.13858 0.923616,-2.06101 2.06455,-2.06101 0.368502,0 0.692122,0.120472 0.989758,0.287006l14.9834 6.97082c4.11021,1.91101 5.88894,6.78539 3.97202,10.885zm-67.1004 -19.1668c-4.74446,0 -8.59129,-3.83738 -8.59129,-8.57003 0,-4.73383 3.84565,-8.57121 8.59129,-8.57121 4.7421,0 8.58774,3.83738 8.58774,8.57121 0,4.73265 -3.84446,8.57003 -8.58774,8.57003zm26.4825 33.6754l-13.6003 -13.5731 -7.77161 7.75625 7.1598 7.14208c0.81968,0.817318 0.81968,2.14251 0,2.95982 -0.816137,0.816137 -2.14723,0.816137 -2.96455,0l-30.7793 -30.7167 -26.4837 26.4317c-0.81968,0.816137 -2.14723,0.816137 -2.96455,0 -0.81968,-0.818499 -0.81968,-2.14369 0,-2.96101l27.7109 -27.653c0.0708657,-0.100393 0.114566,-0.21614 0.204329,-0.305904 0.422832,-0.422832 0.98149,-0.617713 1.53424,-0.60354 0.555115,-0.0153542 1.11141,0.180708 1.53542,0.60354 0.0909443,0.0885821 0.134645,0.204329 0.204329,0.305904l21.8821 21.8373 8.99758 -8.98105c0.0696846,-0.099212 0.113385,-0.214959 0.203148,-0.304723 0.425194,-0.424013 0.982671,-0.615351 1.53542,-0.60354 0.555115,-0.012992 1.11259,0.179526 1.53542,0.60354 0.0909443,0.0885821 0.135826,0.204329 0.204329,0.304723l14.8286 14.7968c0.817318,0.817318 0.817318,2.14251 0,2.96101 -0.825585,0.816137 -2.15196,0.816137 -2.97164,0zm7.87318 -50.8178c0,-2.36691 -1.92282,-4.28501 -4.29446,-4.28501l-81.5983 0c-2.37046,0 -4.29328,1.9181 -4.29328,4.28501l0 55.7134c0,2.36573 1.92282,4.28619 4.29328,4.28619l81.5983 0c2.37164,0 4.29446,-1.92046 4.29446,-4.28619l0 -55.7134zm-4.29446 64.2858l-81.5983 0c-4.7421,0 -8.5901,-3.83738 -8.5901,-8.57121l0 -55.7146c0,-4.73147 3.84683,-8.57003 8.5901,-8.57003l81.5983 0c4.7421,0 8.5901,3.83856 8.5901,8.57003l0 55.7134c0.0011811,4.73501 -3.84565,8.57239 -8.5901,8.57239z"></path>
</svg>