<svg xmlns="http://www.w3.org/2000/svg" id="icon-link3-16" viewBox="0 0 16 16" preserveAspectRatio="xMidYMin slice" width="100%"><g id="cl" stroke="none" stroke-width="1" fill="none" fill-rule="evenodd"><g id="Icons-/-FUNCTIONS-/-16PX-/-Link" transform="translate(2.000000, 2.000000)"><g id="Icons-/-Functions-/-Editor-/-Link"><g id="Icons-/-header-/-logo" transform="translate(0.292208, 0.438312)"><g id="Clip-2"></g><path d="M9.23544464,4.54193431 L7.35564229,6.42100993 C6.31807319,7.45920194 4.63495631,7.45920194 3.59738722,6.42100993 C3.43384602,6.25819547 3.30609649,6.07456526 3.19376412,5.88509522 L4.06719506,5.01163832 C4.10867083,4.96977323 4.15995751,4.94584291 4.20893422,4.91755217 C4.26925317,5.1239707 4.37470753,5.31925462 4.53692503,5.48147212 C5.05511261,5.99986734 5.89833216,5.99924443 6.41610447,5.48147212 L8.29520605,3.60229267 C8.81367914,3.08389745 8.81367914,2.2409634 8.29520605,1.72287964 C7.77740779,1.20471801 6.9344997,1.20471801 6.41610447,1.72287964 L5.74776837,2.39183866 C5.20565046,2.18064445 4.62127813,2.1238813 4.05260846,2.20722216 L5.47646284,0.783341825 C6.51465485,-0.254538726 8.19725264,-0.254538726 9.23544464,0.783341825 C10.2729359,1.82122237 10.2729359,3.5040278 9.23544464,4.54193431 Z M4.26600882,7.63185327 L3.59738722,8.30081229 C3.07930345,8.8185846 2.23605795,8.8185846 1.71797418,8.30081229 C1.19981255,7.78241706 1.19981255,6.93950897 1.71797418,6.42100993 L3.59738722,4.54193431 C4.11586031,4.02343526 4.95837907,4.02343526 5.47656666,4.54193431 C5.63836889,4.70384035 5.74382324,4.89909831 5.80484297,5.10512751 C5.85423496,5.07662914 5.90482086,5.05321791 5.94629663,5.01174214 L6.81972757,4.13862267 C6.70809598,3.94850375 6.57964567,3.76552241 6.41610447,3.60237054 C5.37853538,2.56448999 3.6954185,2.56448999 2.65753795,3.60237054 L0.778436367,5.48147212 C-0.259444183,6.51966413 -0.259444183,8.20215809 0.778436367,9.2403501 C1.81623905,10.2779451 3.49912234,10.2779451 4.53702885,9.2403501 L5.96129851,7.81608044 C5.39221356,7.89983658 4.80781528,7.84273602 4.26600882,7.63185327 Z" id="Fill-1" fill="#FFF"></path></g></g></g></g></svg>