<?xml version="1.0" encoding="UTF-8"?>
<svg width="66px" height="63px" viewBox="0 0 66 63" version="1.1" xmlns="http://www.w3.org/2000/svg" xmlns:xlink="http://www.w3.org/1999/xlink">
    <!-- Generator: Sketch 63.1 (92452) - https://sketch.com -->
    <title>ICONS / Products / Dropdown - Add to Collection Copy 15</title>
    <desc>Created with Sketch.</desc>
    <g id="Transactions" stroke="none" stroke-width="1" fill="none" fill-rule="evenodd">
        <g id="5.1-Transactions---Filter---Payment-Type" transform="translate(-383.000000, -790.000000)" fill="#FFFFFF">
            <g id="Icons-/-APPS-/-EXTERNAL-/-SANTANDER-1" transform="translate(382.000000, 788.000000)">
                <path d="M48.3027523,30.8567185 C48.204893,28.586227 47.5718654,26.334145 46.4006116,24.2999075 L36.0672783,6.34154775 C35.2782875,4.97311645 34.733945,3.50650173 34.4342508,2 L34,2.75171675 C31.4434251,7.19451614 31.4434251,12.6713096 34,17.1171772 L42.2691131,31.4826377 C44.8256881,35.9254371 44.8256881,41.4022306 42.2691131,45.8480982 L41.8348624,46.5967467 C41.5351682,45.0933132 40.9877676,43.6266985 40.2018349,42.2551989 L32.6330275,29.1047582 L27.8012232,20.7070082 C27.0122324,19.3385769 26.4678899,17.8719622 26.1651376,16.3654605 L25.733945,17.1171772 C23.1865443,21.5446355 23.17737,26.9999513 25.7094801,31.4366142 L25.7094801,31.4366142 L34,45.8480982 C36.559633,50.2908976 36.559633,55.767691 34,60.2135587 L33.5688073,60.9622072 C33.266055,59.4587737 32.7217125,57.992159 31.9357798,56.6206594 L21.6024465,38.6653679 C20.2171254,36.2568061 19.5810398,33.5444894 19.6972477,30.8597867 C8.63608563,33.7592656 1,39.9172064 1,47.0447085 C1,56.9612331 15.7767584,65 34,65 C52.2262997,65 67,56.9612331 67,47.0447085 C67,39.9141382 59.3669725,33.7561973 48.3027523,30.8567185 L48.3027523,30.8567185 Z" id="Path"></path>
            </g>
        </g>
    </g>
</svg>