<svg xmlns="http://www.w3.org/2000/svg" width="34" height="34" viewBox="0 0 34 34">
    <g fill="none" fill-rule="evenodd">
        <g fill="#FFF">
            <g>
                <g>
                    <path d="M29.025 12C19.622 12 12 19.603 12 28.982c0 7.195 4.485 13.34 10.819 15.812-.15-1.344-.283-3.404.058-4.871.311-1.328 1.997-8.44 1.997-8.44s-.51-1.02-.51-2.523c0-2.356 1.373-4.124 3.079-4.124 1.454 0 2.156 1.09 2.156 2.392 0 1.457-.928 3.636-1.41 5.655-.404 1.69.853 3.067 2.522 3.067 3.022 0 5.35-3.18 5.35-7.773 0-4.053-2.93-6.898-7.111-6.898-4.843 0-7.682 3.63-7.682 7.365 0 1.464.56 3.036 1.262 3.884.141.17.16.318.121.488-.128.532-.416 1.699-.474 1.931-.075.319-.244.384-.57.234-2.123-.978-3.455-4.077-3.455-6.582 0-5.35 3.903-10.274 11.248-10.274 5.905 0 10.498 4.204 10.498 9.808 0 5.858-3.703 10.571-8.852 10.571-1.724 0-3.343-.89-3.917-1.953l-1.064 4.034c-.382 1.48-1.426 3.332-2.127 4.457 1.595.489 3.275.758 5.041.758C38.362 46 46 38.4 46 29.018s-7.638-16.981-17.02-16.981l.045-.037z" transform="translate(-534 -202) translate(412 135) translate(110 55)"/>
                </g>
            </g>
        </g>
    </g>
</svg>
