<svg xmlns="http://www.w3.org/2000/svg" id="icon-communications-qr-white" viewBox="0 0 32 32"><g id="white" stroke="none" stroke-width="1" fill="none" fill-rule="evenodd"><path d="M2.13333333,12.0888889 L12.0888889,12.0888889 L12.0888889,2.13333333 L3.55555556,2.13333333 C2.77008391,2.13333333 2.13333333,2.77008391 2.13333333,3.55555556 L2.13333333,12.0888889 Z M3.55555556,0 L14.2222222,0 L14.2222222,14.2222222 L0,14.2222222 L0,3.55555556 C0,1.59187645 1.59187645,0 3.55555556,0 Z M3.55555556,19.9111111 C2.77008391,19.9111111 2.13333333,20.5478617 2.13333333,21.3333333 L2.13333333,28.4444444 C2.13333333,29.2299161 2.77008391,29.8666667 3.55555556,29.8666667 L10.6666667,29.8666667 C11.4521383,29.8666667 12.0888889,29.2299161 12.0888889,28.4444444 L12.0888889,21.3333333 C12.0888889,20.5478617 11.4521383,19.9111111 10.6666667,19.9111111 L3.55555556,19.9111111 Z M3.55555556,17.7777778 L10.6666667,17.7777778 C12.6303458,17.7777778 14.2222222,19.3696542 14.2222222,21.3333333 L14.2222222,28.4444444 C14.2222222,30.4081236 12.6303458,32 10.6666667,32 L3.55555556,32 C1.59187645,32 0,30.4081236 0,28.4444444 L0,21.3333333 C0,19.3696542 1.59187645,17.7777778 3.55555556,17.7777778 Z M19.9111111,19.9111111 L19.9111111,29.8666667 L29.8666667,29.8666667 L29.8666667,19.9111111 L19.9111111,19.9111111 Z M17.7777778,17.7777778 L32,17.7777778 L32,32 L17.7777778,32 L17.7777778,17.7777778 Z M19.9111111,2.13333333 L19.9111111,10.6666667 C19.9111111,11.4521383 20.5478617,12.0888889 21.3333333,12.0888889 L29.8666667,12.0888889 L29.8666667,3.55555556 C29.8666667,2.77008391 29.2299161,2.13333333 28.4444444,2.13333333 L19.9111111,2.13333333 Z M17.7777778,0 L28.4444444,0 C30.4081236,0 32,1.59187645 32,3.55555556 L32,14.2222222 L21.3333333,14.2222222 C19.3696542,14.2222222 17.7777778,12.6303458 17.7777778,10.6666667 L17.7777778,0 Z M4.97777778,4.97777778 L9.24444444,4.97777778 L9.24444444,9.24444444 L4.97777778,9.24444444 L4.97777778,4.97777778 Z M4.97777778,22.7555556 L9.24444444,22.7555556 L9.24444444,27.0222222 L4.97777778,27.0222222 L4.97777778,22.7555556 Z M22.7555556,22.7555556 L27.0222222,22.7555556 L27.0222222,27.0222222 L22.7555556,27.0222222 L22.7555556,22.7555556 Z M22.7555556,4.97777778 L27.0222222,4.97777778 L27.0222222,9.24444444 L22.7555556,9.24444444 L22.7555556,4.97777778 Z" id="Combined-Shape" fill="#FFF" fill-rule="nonzero"></path></g></svg>