<svg xmlns="http://www.w3.org/2000/svg" id="icon-link-prefilled-16" viewBox="0 0 16 16" preserveAspectRatio="xMidYMin slice" width="100%"><g id="cwpd" stroke="none" stroke-width="1" fill="none" fill-rule="evenodd"><g id="Group-3" transform="translate(3.000000, 2.000000)"><path d="M6.89577876,8.42762818 L5.49219311,9.83067121 C4.71747491,10.6058545 3.46074773,10.6058545 2.68602954,9.83067121 C2.56391879,9.70910308 2.46853248,9.57199254 2.38465765,9.43052158 L3.03681936,8.77834049 C3.06778794,8.74708122 3.10608199,8.72921325 3.14265126,8.7080895 C3.18768941,8.86221532 3.26642866,9.0080273 3.38755105,9.12914969 C3.77446442,9.5162181 4.4040683,9.51575299 4.79067159,9.12914969 L6.193734,7.72602915 C6.58086054,7.33896075 6.58086054,6.70957004 6.193734,6.32273419 C5.80711132,5.9358402 5.17774,5.9358402 4.79067159,6.32273419 L4.29164734,6.82222355 C3.886866,6.66453189 3.45053469,6.62214874 3.02592804,6.68437658 L4.08907256,5.62121268 C4.86425587,4.84626193 6.12059545,4.84626193 6.89577876,5.62121268 C7.67043882,6.39616343 7.67043882,7.65265805 6.89577876,8.42762818 Z M3.18526697,10.7347675 L2.68602954,11.2342569 C2.29919369,11.6208602 1.66957043,11.6208602 1.28273458,11.2342569 C0.895840588,10.8471885 0.895840588,10.2178171 1.28273458,9.83067121 L2.68602954,8.42762818 C3.07315608,8.04048226 3.70223671,8.04048226 4.08915008,8.42762818 C4.2099624,8.54851802 4.28870164,8.69431062 4.33426304,8.84814575 C4.37114239,8.82686696 4.40891319,8.80938658 4.43988177,8.77841801 L5.09204348,8.12648885 C5.0086919,7.9845334 4.91278234,7.84790735 4.79067159,7.72608729 C4.0159534,6.95113654 2.75922622,6.95113654 1.98427547,7.72608729 L0.581213064,9.12914969 C-0.193737688,9.904333 -0.193737688,11.1605951 0.581213064,11.9357784 C1.35610568,12.7105159 2.61265844,12.7105159 3.38762857,11.9357784 L4.45108317,10.8723238 C4.02616644,10.9348617 3.58981575,10.8922266 3.18526697,10.7347675 Z" id="Fill-1" fill="#FFF"></path><path d="M0.559999957,5.98888513 L0.559999957,1.11999991 C0.559999957,0.501441042 1.061441,5.57716631e-16 1.67999987,0 L6.78218957,0 L6.78218957,0 L10.0799992,3.35512434 L10.0799992,11.1999991 C10.0799992,11.818558 9.57855819,12.3199991 8.95999931,12.3199991 L6.09173118,12.3199991 L6.09173118,12.3199991" id="Path" stroke="#FFF" stroke-width="1.04999998" stroke-linecap="round" stroke-linejoin="round"></path><path d="M6.78218957,1.3367085e-14 L6.78218957,2.22965011 C6.78218957,2.84820898 7.28363061,3.34965002 7.90218948,3.34965002 L10.0799992,3.34965002 L10.0799992,3.34965002" id="Path-2" stroke="#FFF" stroke-width="1.04999998"></path></g></g></svg>