<?xml version="1.0" encoding="UTF-8"?>
<svg width="62px" height="60px" viewBox="0 0 62 60" version="1.1" xmlns="http://www.w3.org/2000/svg" xmlns:xlink="http://www.w3.org/1999/xlink">
    <!-- Generator: Sketch 63.1 (92452) - https://sketch.com -->
    <title>ICONS / Products / Dropdown - Add to Collection Copy 16</title>
    <desc>Created with Sketch.</desc>
    <g id="Transactions" stroke="none" stroke-width="1" fill="none" fill-rule="evenodd">
        <g id="5.1-Transactions---Filter---Payment-Type" transform="translate(-500.000000, -792.000000)" fill="#FFFFFF" fill-rule="nonzero">
            <g id="Icons-/-APPS-/-EXTERNAL-/-PRESTASHOP-1" transform="translate(497.000000, 788.000000)">
                <path d="M33.041911,4 C49.6052059,4 63.0838221,17.4598123 63.0838221,34 C63.0838221,37.5210118 62.4668863,40.8992248 61.3474135,44.0407997 C63.5577595,47.0314157 65,49.1366789 65,49.1366789 C65,49.1366789 59.3903789,54.8527132 52.6939703,58.0881273 C52.4978583,58.1819665 52.3017463,58.2839657 52.1056343,58.373725 C51.4600988,58.6715626 50.8023064,58.9286006 50.1404283,59.1652387 C49.6297199,59.3488372 49.1190115,59.5079559 48.6083031,59.6507548 C44.0650412,62.4088127 38.7373311,64 33.041911,64 C16.4786161,64 3,50.5442676 3,34 C3,17.4598123 16.4786161,4 33.041911,4 Z M30.537397,20.8257854 C30.0062603,20.8257854 29.4832949,20.8461852 28.9603295,20.8829049 C28.8827018,20.8869849 28.8091598,20.8951448 28.7315321,20.8992248 C26.0145634,21.1032232 23.3425371,21.8090575 20.8666227,22.9392085 C18.7461614,23.9061608 16.7727842,25.1791106 14.9996046,26.6927785 C14.9996046,26.6968584 14.9955189,26.6968584 14.9955189,26.6968584 C14.5215815,27.1007752 14.0639868,27.5291718 13.6186491,27.9657283 C13.5369357,28.0473276 13.4511367,28.128927 13.3694234,28.2105263 C12.9485997,28.630763 12.5441186,29.0673195 12.1518946,29.5161159 C12.0660956,29.6140351 11.9843822,29.7160343 11.8985832,29.8139535 C11.5063591,30.2749898 11.1223064,30.748266 10.758682,31.2378621 C10.7259967,31.2786618 10.697397,31.3235414 10.6687974,31.3643411 C10.3215157,31.8335373 9.99057661,32.3190534 9.67189456,32.8086495 C9.61060956,32.9024888 9.54523888,32.996328 9.48395387,33.0942472 C9.22655684,33.502244 8.98550247,33.9184007 8.74853377,34.3386373 C8.6954201,34.4324765 8.63822076,34.5222358 8.58510708,34.6160751 C8.49113674,34.7874337 8.40125206,34.9587923 8.31136738,35.130151 C8.08665568,35.5544676 7.87420099,35.9787842 7.66991763,36.4112607 C7.59637562,36.5622195 7.52691928,36.7131783 7.45746293,36.8682171 C7.2123229,37.4190126 6.9753542,37.9738882 6.75881384,38.5369237 L6.75881384,38.5369237 L6.73021417,38.6103631 C6.48507414,39.2590779 6.26036244,39.9118727 6.06016474,40.5687475 C5.85996705,41.2297022 5.68836903,41.8947368 5.52902801,42.5638515 C9.18570016,54.2611179 20.139374,62.7760098 33.041911,62.7760098 C37.2378913,62.7760098 41.2214168,61.870257 44.8127183,60.25459 C44.1794399,60.2668299 43.5502471,60.2423501 42.9333114,60.1525908 C36.9151236,59.2876377 35.583196,55.746226 35.7752224,52.7311302 C35.3421417,52.4822521 34.9008896,52.2048144 34.4514662,51.878417 C30.0191982,48.6644227 27.3129828,45.843869 27.0951597,45.6144027 L27.0809226,45.5993472 C27.0809226,45.5993472 30.64771,48.3492452 35.9795058,50.4096287 C36.0939044,50.4545084 36.2042175,50.495308 36.3145305,50.5361077 C36.5637562,49.6752346 36.8620099,48.8592411 37.1194069,48.1330069 L37.1194069,48.1330069 L37.1623064,48.0131579 L37.1623064,48.0131579 L37.2052059,47.8963688 C37.5034596,47.0599755 37.84257,46.243982 38.1980231,45.4320685 C39.5462932,42.380253 41.1805601,39.4222766 41.9854366,36.1623827 L41.9854366,36.1623827 L42.3694893,34.3427173 C42.5901153,33.1432069 42.7453707,31.9273766 42.8434267,30.7074663 C42.8434267,30.6707466 42.8475124,30.6381069 42.851598,30.6054672 C42.876112,30.2831497 42.8965404,29.9608323 42.912883,29.6385149 C42.9333114,29.2019584 42.949654,28.7654019 42.9578254,28.3288454 C42.9659967,27.9902081 42.961911,27.6515708 42.961911,27.3129335 C42.961911,27.2150143 42.9578254,26.7172583 42.9578254,26.619339 C42.949654,25.7421461 43.1539374,24.7833537 41.8792092,23.8204814 C41.8710379,23.8164015 41.8628666,23.8123215 41.8546952,23.8082415 C41.7648105,23.7592819 41.6790115,23.7103223 41.6013839,23.6654427 C41.6013839,23.6613627 41.5972982,23.6613627 41.5972982,23.6613627 C41.5319275,23.624643 41.4747282,23.5920033 41.4216145,23.5634435 C41.4134432,23.5552836 41.3971005,23.5471236 41.3889292,23.5430437 C41.3317298,23.5104039 41.2867875,23.4859241 41.2622735,23.4736842 C40.6943657,23.1799266 40.1182867,22.9106487 39.5299506,22.6617707 C38.1285667,22.0701754 36.2409885,21.5520196 35.178715,21.3031416 L35.178715,21.3031416 L34.6114536,21.1947754 C33.2834123,20.9569818 31.9244811,20.8257854 30.537397,20.8257854 Z M64.7998023,49.2345981 C53.4865898,54.1713586 43.4113344,53.1064871 36.3308731,50.5646675 L36.3308731,50.5646675 L35.9304778,52.7352101 C54.4998353,57.3251734 64.7998023,49.2345981 64.7998023,49.2345981 Z M54.883888,20.8543452 C53.1760791,20.8543452 51.5826689,21.7968176 50.389654,22.9596083 C49.0863262,24.2325581 48.0771664,25.8359853 47.2641186,27.4516524 L47.2641186,27.4516524 L47.2559473,27.4598123 C47.2191763,27.5291718 47.1864909,27.6026112 47.1497199,27.6678907 C47.3989456,27.8841289 47.6481713,28.1044472 47.8933114,28.3288454 C48.4489621,28.8347613 48.9923558,29.3569971 49.5275783,29.8833129 C49.776804,30.128111 50.021944,30.381069 50.267084,30.629947 C50.5244811,30.8951448 50.7859638,31.1603427 51.0433608,31.4296206 C51.3742998,31.7764178 51.7011532,32.127295 52.0239209,32.4781722 C52.1628336,32.629131 52.2976606,32.7760098 52.4324876,32.9269686 C52.820626,33.3594451 53.2087644,33.7919217 53.5928171,34.2325581 C53.6336738,34.2774378 53.6704448,34.3263974 53.7113015,34.371277 C54.3364086,35.0893513 54.9533443,35.8196654 55.5580231,36.5581395 C55.5621087,36.5703794 55.5702801,36.5785394 55.5784514,36.5866993 C56.1667875,37.3047736 56.7469522,38.0269278 57.3230313,38.7572419 C57.351631,38.7939616 57.3802306,38.8266014 57.4088303,38.8633211 C57.9563097,39.5528356 58.4915321,40.25459 59.0267545,40.9522644 L59.0267545,40.9522644 L59.1820099,41.1562627 C59.6110049,41.7192982 60.0359143,42.2864137 60.4567381,42.8494492 C61.3637562,40.0587515 61.8581219,37.0885353 61.8581219,34 C61.8581219,30.2872297 61.1431301,26.7417381 59.856145,23.4818441 C59.831631,23.4573643 59.807117,23.4288046 59.782603,23.4002448 C59.782603,23.3961648 59.7785173,23.3920849 59.7744316,23.3880049 L59.7744316,23.3880049 L59.5226524,23.124847 L59.5226524,23.124847 L59.2678089,22.873929 C59.2024382,22.8127295 59.1370675,22.75561 59.0716969,22.6984904 C58.9654695,22.6005712 58.8592422,22.502652 58.7489292,22.4128927 L58.7489292,22.4128927 L58.7489292,22.4006528 C57.535486,21.4010608 56.2362438,20.8543452 54.883888,20.8543452 Z M35.1746293,23.2574459 L37.854827,31.5316197 C38.1367381,31.8049776 38.3737068,32.1068951 38.5657331,32.4414525 L38.5657331,32.4414525 L38.6545964,32.6092411 L38.6545964,32.6092411 L38.7373311,32.7800898 L38.7373311,32.7800898 C38.7945305,32.9065687 38.8394728,33.0208078 38.8803295,33.1432069 L38.8803295,33.1432069 C38.9252718,33.2696858 38.9579572,33.3920849 38.9865568,33.5185639 C38.9906425,33.5185639 38.9906425,33.5226438 38.9906425,33.5267238 C39.0192422,33.6532028 39.0396705,33.7837617 39.0560132,33.9143207 L39.0560132,33.9143207 C39.0682702,34.0489596 39.0764415,34.1876785 39.0805272,34.3223174 L39.0805272,34.3223174 L39.0805272,34.3508772 C39.0805272,34.3590371 39.0805272,34.3671971 39.0846129,34.371277 C39.0846129,34.9139127 38.9742998,35.4279886 38.7741021,35.8971848 C38.6719605,36.129743 38.5534761,36.3541412 38.4104778,36.5622195 C38.1285667,36.9824561 37.7649423,37.3414933 37.3482043,37.623011 C37.1398353,37.7658099 36.9151236,37.8882089 36.6822405,37.9861281 C36.2123888,38.1860465 35.6975947,38.2962056 35.154201,38.2962056 C35.0152883,38.2962056 34.8804613,38.2880457 34.7456343,38.2758058 C34.7129489,38.2758058 34.6843493,38.2676459 34.6516639,38.2635659 C34.5454366,38.251326 34.4432949,38.2350061 34.3452389,38.2146063 C34.3166392,38.2105263 34.2921252,38.2023664 34.2635255,38.1942064 C34.1613839,38.1697266 34.0592422,38.1452468 33.9611862,38.1126071 C33.9448435,38.1044472 33.9244152,38.0962872 33.9080725,38.0922073 C33.8018451,38.0554876 33.6956178,38.0187678 33.5934761,37.9738882 C33.5812191,37.9698082 33.5730478,37.9657283 33.5648764,37.9616483 C33.4545634,37.9126887 33.3442504,37.8555692 33.2380231,37.7984496 C33.2380231,37.7984496 33.2339374,37.7943696 33.2339374,37.7943696 C32.8989127,37.6066911 32.588402,37.3659731 32.3228336,37.0885353 L32.3228336,37.0885353 L21.0504778,34.3427173 L21.0709061,34.3427173 L32.4494893,31.5356997 L32.465832,31.5316197 L32.4699176,31.5193798 L35.1746293,23.2574459 Z M58.7530148,26.2847817 L60.236112,33.0738474 L60.260626,33.1518768 L60.260626,33.1518768 L60.28514,33.2329661 L60.28514,33.2329661 L60.28514,33.2288862 L61.3147282,34.379437 L60.3014827,35.5259078 L60.2979077,35.5299878 L60.297397,35.5340677 L60.2933114,35.5422277 L60.2933114,35.5386577 L60.2289621,35.752856 L60.2289621,35.752856 L60.1584843,35.9583843 C60.1421417,35.9910241 60.1298847,36.0277438 60.113542,36.0603835 C60.0726853,36.1583027 60.027743,36.248062 59.9828007,36.3337413 C59.9582867,36.378621 59.9337727,36.4235006 59.905173,36.4683803 C59.8643163,36.5336597 59.8152883,36.5948592 59.770346,36.6560588 C59.7008896,36.7417381 59.6314333,36.8192574 59.5578913,36.8886169 C59.5292916,36.9171767 59.5006919,36.9498164 59.4680066,36.9742962 C59.4108072,37.0191758 59.3536079,37.0599755 59.2923229,37.0926153 C59.2678089,37.1048552 59.2473806,37.1170951 59.2228666,37.129335 C59.0798682,37.2027744 58.9246129,37.2435741 58.7652718,37.2435741 C57.8378254,37.2435741 57.0860626,35.9583843 57.0860626,34.371277 L57.0860626,34.371277 C57.0778913,34.3467972 57.0819769,34.3223174 57.0819769,34.2937576 C57.0819769,34.1019992 57.0983196,33.9102407 57.1228336,33.7307222 C57.1310049,33.6817625 57.1432619,33.6328029 57.1514333,33.5838433 C57.1800329,33.4206446 57.2127183,33.2656059 57.2576606,33.1146471 C57.2617463,33.0983272 57.265832,33.0860873 57.2699176,33.0738474 L57.2699176,33.0738474 L58.7530148,26.2847817 Z M58.8102142,31.8457772 C58.4629325,31.8457772 58.1810214,32.3272134 58.1810214,32.9228886 C58.1810214,33.5185639 58.4629325,34 58.8102142,34 C59.1574959,34 59.4394069,33.5185639 59.4394069,32.9228886 C59.4394069,32.3272134 59.1574959,31.8457772 58.8102142,31.8457772 Z M35.154201,30.9155447 C34.3411532,30.9155447 33.6792751,31.5764994 33.6792751,32.3884129 C33.6792751,33.2003264 34.3411532,33.8612811 35.154201,33.8612811 C35.9672488,33.8612811 36.6291269,33.2003264 36.6291269,32.3884129 C36.6291269,31.5764994 35.9672488,30.9155447 35.154201,30.9155447 Z" id="Combined-Shape"></path>
            </g>
        </g>
    </g>
</svg>