<?xml version="1.0" encoding="UTF-8"?>
<svg width="62px" height="60px" viewBox="0 0 62 60" version="1.1" xmlns="http://www.w3.org/2000/svg" xmlns:xlink="http://www.w3.org/1999/xlink">
    <title>prestashop</title>
    <g id="Page-1" stroke="none" stroke-width="1" fill="none" fill-rule="evenodd">
        <g id="prestashop" fill="#FFFFFF" fill-rule="nonzero">
            <path d="M30.041911,0 C46.6052059,0 60.0838221,13.4598123 60.0838221,30 C60.0838221,33.5210118 59.4668863,36.8992248 58.3474135,40.0407997 C60.5577595,43.0314157 62,45.1366789 62,45.1366789 C62,45.1366789 56.3903789,50.8527132 49.6939703,54.0881273 C49.4978583,54.1819665 49.3017463,54.2839657 49.1056343,54.373725 C48.4600988,54.6715626 47.8023064,54.9286006 47.1404283,55.1652387 C46.6297199,55.3488372 46.1190115,55.5079559 45.6083031,55.6507548 C41.0650412,58.4088127 35.7373311,60 30.041911,60 C13.4786161,60 0,46.5442676 0,30 C0,13.4598123 13.4786161,0 30.041911,0 Z M27.537397,16.8257854 C27.0062603,16.8257854 26.4832949,16.8461852 25.9603295,16.8829049 C25.8827018,16.8869849 25.8091598,16.8951448 25.7315321,16.8992248 C23.0145634,17.1032232 20.3425371,17.8090575 17.8666227,18.9392085 C15.7461614,19.9061608 13.7727842,21.1791106 11.9996046,22.6927785 C11.9996046,22.6968584 11.9955189,22.6968584 11.9955189,22.6968584 C11.5215815,23.1007752 11.0639868,23.5291718 10.6186491,23.9657283 C10.5369357,24.0473276 10.4511367,24.128927 10.3694234,24.2105263 C9.9485997,24.630763 9.5441186,25.0673195 9.1518946,25.5161159 C9.0660956,25.6140351 8.9843822,25.7160343 8.8985832,25.8139535 C8.5063591,26.2749898 8.1223064,26.748266 7.758682,27.2378621 C7.7259967,27.2786618 7.697397,27.3235414 7.6687974,27.3643411 C7.3215157,27.8335373 6.99057661,28.3190534 6.67189456,28.8086495 C6.61060956,28.9024888 6.54523888,28.996328 6.48395387,29.0942472 C6.22655684,29.502244 5.98550247,29.9184007 5.74853377,30.3386373 C5.6954201,30.4324765 5.63822076,30.5222358 5.58510708,30.6160751 C5.49113674,30.7874337 5.40125206,30.9587923 5.31136738,31.130151 C5.08665568,31.5544676 4.87420099,31.9787842 4.66991763,32.4112607 C4.59637562,32.5622195 4.52691928,32.7131783 4.45746293,32.8682171 C4.2123229,33.4190126 3.9753542,33.9738882 3.75881384,34.5369237 L3.75881384,34.5369237 L3.73021417,34.6103631 C3.48507414,35.2590779 3.26036244,35.9118727 3.06016474,36.5687475 C2.85996705,37.2297022 2.68836903,37.8947368 2.52902801,38.5638515 C6.18570016,50.2611179 17.139374,58.7760098 30.041911,58.7760098 C34.2378913,58.7760098 38.2214168,57.870257 41.8127183,56.25459 C41.1794399,56.2668299 40.5502471,56.2423501 39.9333114,56.1525908 C33.9151236,55.2876377 32.583196,51.746226 32.7752224,48.7311302 C32.3421417,48.4822521 31.9008896,48.2048144 31.4514662,47.878417 C27.0191982,44.6644227 24.3129828,41.843869 24.0951597,41.6144027 L24.0809226,41.5993472 C24.0809226,41.5993472 27.64771,44.3492452 32.9795058,46.4096287 C33.0939044,46.4545084 33.2042175,46.495308 33.3145305,46.5361077 C33.5637562,45.6752346 33.8620099,44.8592411 34.1194069,44.1330069 L34.1194069,44.1330069 L34.1623064,44.0131579 L34.1623064,44.0131579 L34.2052059,43.8963688 C34.5034596,43.0599755 34.84257,42.243982 35.1980231,41.4320685 C36.5462932,38.380253 38.1805601,35.4222766 38.9854366,32.1623827 L38.9854366,32.1623827 L39.3694893,30.3427173 C39.5901153,29.1432069 39.7453707,27.9273766 39.8434267,26.7074663 C39.8434267,26.6707466 39.8475124,26.6381069 39.851598,26.6054672 C39.876112,26.2831497 39.8965404,25.9608323 39.912883,25.6385149 C39.9333114,25.2019584 39.949654,24.7654019 39.9578254,24.3288454 C39.9659967,23.9902081 39.961911,23.6515708 39.961911,23.3129335 C39.961911,23.2150143 39.9578254,22.7172583 39.9578254,22.619339 C39.949654,21.7421461 40.1539374,20.7833537 38.8792092,19.8204814 C38.8710379,19.8164015 38.8628666,19.8123215 38.8546952,19.8082415 C38.7648105,19.7592819 38.6790115,19.7103223 38.6013839,19.6654427 C38.6013839,19.6613627 38.5972982,19.6613627 38.5972982,19.6613627 C38.5319275,19.624643 38.4747282,19.5920033 38.4216145,19.5634435 C38.4134432,19.5552836 38.3971005,19.5471236 38.3889292,19.5430437 C38.3317298,19.5104039 38.2867875,19.4859241 38.2622735,19.4736842 C37.6943657,19.1799266 37.1182867,18.9106487 36.5299506,18.6617707 C35.1285667,18.0701754 33.2409885,17.5520196 32.178715,17.3031416 L32.178715,17.3031416 L31.6114536,17.1947754 C30.2834123,16.9569818 28.9244811,16.8257854 27.537397,16.8257854 Z M61.7998023,45.2345981 C50.4865898,50.1713586 40.4113344,49.1064871 33.3308731,46.5646675 L33.3308731,46.5646675 L32.9304778,48.7352101 C51.4998353,53.3251734 61.7998023,45.2345981 61.7998023,45.2345981 Z M51.883888,16.8543452 C50.1760791,16.8543452 48.5826689,17.7968176 47.389654,18.9596083 C46.0863262,20.2325581 45.0771664,21.8359853 44.2641186,23.4516524 L44.2641186,23.4516524 L44.2559473,23.4598123 C44.2191763,23.5291718 44.1864909,23.6026112 44.1497199,23.6678907 C44.3989456,23.8841289 44.6481713,24.1044472 44.8933114,24.3288454 C45.4489621,24.8347613 45.9923558,25.3569971 46.5275783,25.8833129 C46.776804,26.128111 47.021944,26.381069 47.267084,26.629947 C47.5244811,26.8951448 47.7859638,27.1603427 48.0433608,27.4296206 C48.3742998,27.7764178 48.7011532,28.127295 49.0239209,28.4781722 C49.1628336,28.629131 49.2976606,28.7760098 49.4324876,28.9269686 C49.820626,29.3594451 50.2087644,29.7919217 50.5928171,30.2325581 C50.6336738,30.2774378 50.6704448,30.3263974 50.7113015,30.371277 C51.3364086,31.0893513 51.9533443,31.8196654 52.5580231,32.5581395 C52.5621087,32.5703794 52.5702801,32.5785394 52.5784514,32.5866993 C53.1667875,33.3047736 53.7469522,34.0269278 54.3230313,34.7572419 C54.351631,34.7939616 54.3802306,34.8266014 54.4088303,34.8633211 C54.9563097,35.5528356 55.4915321,36.25459 56.0267545,36.9522644 L56.0267545,36.9522644 L56.1820099,37.1562627 C56.6110049,37.7192982 57.0359143,38.2864137 57.4567381,38.8494492 C58.3637562,36.0587515 58.8581219,33.0885353 58.8581219,30 C58.8581219,26.2872297 58.1431301,22.7417381 56.856145,19.4818441 C56.831631,19.4573643 56.807117,19.4288046 56.782603,19.4002448 C56.782603,19.3961648 56.7785173,19.3920849 56.7744316,19.3880049 L56.7744316,19.3880049 L56.5226524,19.124847 L56.5226524,19.124847 L56.2678089,18.873929 C56.2024382,18.8127295 56.1370675,18.75561 56.0716969,18.6984904 C55.9654695,18.6005712 55.8592422,18.502652 55.7489292,18.4128927 L55.7489292,18.4128927 L55.7489292,18.4006528 C54.535486,17.4010608 53.2362438,16.8543452 51.883888,16.8543452 Z M32.1746293,19.2574459 L34.854827,27.5316197 C35.1367381,27.8049776 35.3737068,28.1068951 35.5657331,28.4414525 L35.5657331,28.4414525 L35.6545964,28.6092411 L35.6545964,28.6092411 L35.7373311,28.7800898 L35.7373311,28.7800898 C35.7945305,28.9065687 35.8394728,29.0208078 35.8803295,29.1432069 L35.8803295,29.1432069 C35.9252718,29.2696858 35.9579572,29.3920849 35.9865568,29.5185639 C35.9906425,29.5185639 35.9906425,29.5226438 35.9906425,29.5267238 C36.0192422,29.6532028 36.0396705,29.7837617 36.0560132,29.9143207 L36.0560132,29.9143207 C36.0682702,30.0489596 36.0764415,30.1876785 36.0805272,30.3223174 L36.0805272,30.3223174 L36.0805272,30.3508772 C36.0805272,30.3590371 36.0805272,30.3671971 36.0846129,30.371277 C36.0846129,30.9139127 35.9742998,31.4279886 35.7741021,31.8971848 C35.6719605,32.129743 35.5534761,32.3541412 35.4104778,32.5622195 C35.1285667,32.9824561 34.7649423,33.3414933 34.3482043,33.623011 C34.1398353,33.7658099 33.9151236,33.8882089 33.6822405,33.9861281 C33.2123888,34.1860465 32.6975947,34.2962056 32.154201,34.2962056 C32.0152883,34.2962056 31.8804613,34.2880457 31.7456343,34.2758058 C31.7129489,34.2758058 31.6843493,34.2676459 31.6516639,34.2635659 C31.5454366,34.251326 31.4432949,34.2350061 31.3452389,34.2146063 C31.3166392,34.2105263 31.2921252,34.2023664 31.2635255,34.1942064 C31.1613839,34.1697266 31.0592422,34.1452468 30.9611862,34.1126071 C30.9448435,34.1044472 30.9244152,34.0962872 30.9080725,34.0922073 C30.8018451,34.0554876 30.6956178,34.0187678 30.5934761,33.9738882 C30.5812191,33.9698082 30.5730478,33.9657283 30.5648764,33.9616483 C30.4545634,33.9126887 30.3442504,33.8555692 30.2380231,33.7984496 C30.2380231,33.7984496 30.2339374,33.7943696 30.2339374,33.7943696 C29.8989127,33.6066911 29.588402,33.3659731 29.3228336,33.0885353 L29.3228336,33.0885353 L18.0504778,30.3427173 L18.0709061,30.3427173 L29.4494893,27.5356997 L29.465832,27.5316197 L29.4699176,27.5193798 L32.1746293,19.2574459 Z M55.7530148,22.2847817 L57.236112,29.0738474 L57.260626,29.1518768 L57.260626,29.1518768 L57.28514,29.2329661 L57.28514,29.2329661 L57.28514,29.2288862 L58.3147282,30.379437 L57.3014827,31.5259078 L57.2979077,31.5299878 L57.297397,31.5340677 L57.2933114,31.5422277 L57.2933114,31.5386577 L57.2289621,31.752856 L57.2289621,31.752856 L57.1584843,31.9583843 C57.1421417,31.9910241 57.1298847,32.0277438 57.113542,32.0603835 C57.0726853,32.1583027 57.027743,32.248062 56.9828007,32.3337413 C56.9582867,32.378621 56.9337727,32.4235006 56.905173,32.4683803 C56.8643163,32.5336597 56.8152883,32.5948592 56.770346,32.6560588 C56.7008896,32.7417381 56.6314333,32.8192574 56.5578913,32.8886169 C56.5292916,32.9171767 56.5006919,32.9498164 56.4680066,32.9742962 C56.4108072,33.0191758 56.3536079,33.0599755 56.2923229,33.0926153 C56.2678089,33.1048552 56.2473806,33.1170951 56.2228666,33.129335 C56.0798682,33.2027744 55.9246129,33.2435741 55.7652718,33.2435741 C54.8378254,33.2435741 54.0860626,31.9583843 54.0860626,30.371277 L54.0860626,30.371277 C54.0778913,30.3467972 54.0819769,30.3223174 54.0819769,30.2937576 C54.0819769,30.1019992 54.0983196,29.9102407 54.1228336,29.7307222 C54.1310049,29.6817625 54.1432619,29.6328029 54.1514333,29.5838433 C54.1800329,29.4206446 54.2127183,29.2656059 54.2576606,29.1146471 C54.2617463,29.0983272 54.265832,29.0860873 54.2699176,29.0738474 L54.2699176,29.0738474 L55.7530148,22.2847817 Z M55.8102142,27.8457772 C55.4629325,27.8457772 55.1810214,28.3272134 55.1810214,28.9228886 C55.1810214,29.5185639 55.4629325,30 55.8102142,30 C56.1574959,30 56.4394069,29.5185639 56.4394069,28.9228886 C56.4394069,28.3272134 56.1574959,27.8457772 55.8102142,27.8457772 Z M32.154201,26.9155447 C31.3411532,26.9155447 30.6792751,27.5764994 30.6792751,28.3884129 C30.6792751,29.2003264 31.3411532,29.8612811 32.154201,29.8612811 C32.9672488,29.8612811 33.6291269,29.2003264 33.6291269,28.3884129 C33.6291269,27.5764994 32.9672488,26.9155447 32.154201,26.9155447 Z" id="Combined-Shape"></path>
        </g>
    </g>
</svg>