<svg xmlns="http://www.w3.org/2000/svg" width="11" height="14" viewBox="0 0 11 14">
    <path fill="#FFF" d="M9.625 4.667h-.688V3.333C8.938 1.493 7.397 0 5.5 0 3.603 0 2.062 1.493 2.062 3.333v1.334h-.687C.619 4.667 0 5.267 0 6v6.667C0 13.4.619 14 1.375 14h8.25c.756 0 1.375-.6 1.375-1.333V6c0-.733-.619-1.333-1.375-1.333zm-4.125 6c-.756 0-1.375-.6-1.375-1.334C4.125 8.6 4.744 8 5.5 8s1.375.6 1.375 1.333c0 .734-.619 1.334-1.375 1.334zm-2.063-6V3.333c0-1.106.922-2 2.063-2s2.063.894 2.063 2v1.334H3.438z"/>
</svg>
