<svg xmlns="http://www.w3.org/2000/svg" width="22" height="22" viewBox="0 0 22 22">
    <g fill="none" fill-rule="evenodd">
        <rect width="22" height="22" fill="#86868B" rx="5.5"/>
        <path fill="#FFF" fill-rule="nonzero" d="M4.333 12.602c.412.374 4.338 4.336 4.83 4.901.544.585 1.432.663 2.068.184l6.594-6.736c.108-.11.168-.262.166-.418v-4.6c0-.617.094-1.028-.325-1.542-.42-.513-.875-.374-1.519-.374h-4.902c-.158-.002-.31.061-.42.176-.975 1.013-5.914 6.134-6.405 6.604-.251.225-.402.544-.419.884-.016.34.104.672.332.92zM14.84 6.204c0-.499.398-.903.889-.903s.89.404.89.903c0 .498-.399.902-.89.902s-.89-.404-.89-.902z"/>
    </g>
</svg>
