<?xml version="1.0" encoding="UTF-8"?>
<svg width="64px" height="64px" viewBox="0 0 64 64" version="1.1" xmlns="http://www.w3.org/2000/svg" xmlns:xlink="http://www.w3.org/1999/xlink">
    <!-- Generator: Sketch 63.1 (92452) - https://sketch.com -->
    <title>qr-code</title>
    <desc>Created with Sketch.</desc>
    <g id="Icons" stroke="none" stroke-width="1" fill="none" fill-rule="evenodd">
        <g id="Icons-/-APPS-/-EXTERNAL-/-QR-3" transform="translate(-2.000000, -2.000000)" fill="#FFFFFF" fill-rule="nonzero">
            <path d="M23.3333333,37.5555556 C27.2606916,37.5555556 30.4444444,40.7393084 30.4444444,44.6666667 L30.4444444,58.8888889 C30.4444444,62.8162471 27.2606916,66 23.3333333,66 L9.11111111,66 C5.18375289,66 2,62.8162471 2,58.8888889 L2,44.6666667 C2,40.7393084 5.18375289,37.5555556 9.11111111,37.5555556 L23.3333333,37.5555556 Z M66,37.5555556 L66,66 L37.5555556,66 L37.5555556,37.5555556 L66,37.5555556 Z M23.3333333,41.8222222 L9.11111111,41.8222222 C7.54016782,41.8222222 6.26666667,43.0957234 6.26666667,44.6666667 L6.26666667,58.8888889 C6.26666667,60.4598322 7.54016782,61.7333333 9.11111111,61.7333333 L23.3333333,61.7333333 C24.9042766,61.7333333 26.1777778,60.4598322 26.1777778,58.8888889 L26.1777778,44.6666667 C26.1777778,43.0957234 24.9042766,41.8222222 23.3333333,41.8222222 Z M61.7333333,41.8222222 L41.8222222,41.8222222 L41.8222222,61.7333333 L61.7333333,61.7333333 L61.7333333,41.8222222 Z M20.4888889,47.5111111 L20.4888889,56.0444444 L11.9555556,56.0444444 L11.9555556,47.5111111 L20.4888889,47.5111111 Z M56.0444444,47.5111111 L56.0444444,56.0444444 L47.5111111,56.0444444 L47.5111111,47.5111111 L56.0444444,47.5111111 Z M30.4444444,2 L30.4444444,30.4444444 L2,30.4444444 L2,9.11111111 C2,5.18375289 5.18375289,2 9.11111111,2 L30.4444444,2 Z M58.8888889,2 C62.8162471,2 66,5.18375289 66,9.11111111 L66,30.4444444 L44.6666667,30.4444444 C40.7393084,30.4444444 37.5555556,27.2606916 37.5555556,23.3333333 L37.5555556,2 L58.8888889,2 Z M26.1777778,6.26666667 L9.11111111,6.26666667 C7.54016782,6.26666667 6.26666667,7.54016782 6.26666667,9.11111111 L6.26666667,26.1777778 L26.1777778,26.1777778 L26.1777778,6.26666667 Z M58.8888889,6.26666667 L41.8222222,6.26666667 L41.8222222,23.3333333 C41.8222222,24.9042766 43.0957234,26.1777778 44.6666667,26.1777778 L61.7333333,26.1777778 L61.7333333,9.11111111 C61.7333333,7.54016782 60.4598322,6.26666667 58.8888889,6.26666667 Z M20.4888889,11.9555556 L20.4888889,20.4888889 L11.9555556,20.4888889 L11.9555556,11.9555556 L20.4888889,11.9555556 Z M56.0444444,11.9555556 L56.0444444,20.4888889 L47.5111111,20.4888889 L47.5111111,11.9555556 L56.0444444,11.9555556 Z" id="qr-code"></path>
        </g>
    </g>
</svg>