<svg xmlns="http://www.w3.org/2000/svg" width="24" height="24" viewBox="0 0 24 24">
    <defs>
        <linearGradient id="fe0cdn4d5a" x1="24.314%" x2="215.73%" y1="243.37%" y2="0%">
            <stop offset="0%" stop-color="#A2A2A2"/>
            <stop offset="100%" stop-color="#E6E6E6"/>
        </linearGradient>
        <linearGradient id="mu7v1dxyib" x1="30.379%" x2="210.424%" y1="100%" y2="-128.024%">
            <stop offset="0%" stop-color="#A2A2A2"/>
            <stop offset="100%" stop-color="#E6E6E6"/>
        </linearGradient>
        <linearGradient id="74cyxdqiyc" x1="-96.423%" x2="100%" y1="232.327%" y2="0%">
            <stop offset="0%" stop-color="#A2A2A2"/>
            <stop offset="100%" stop-color="#E6E6E6"/>
        </linearGradient>
        <linearGradient id="xt5yn2t55d" x1="-106.3%" x2="100%" y1="128.132%" y2="-138.498%">
            <stop offset="0%" stop-color="#A2A2A2"/>
            <stop offset="100%" stop-color="#E6E6E6"/>
        </linearGradient>
        <linearGradient id="oga2m7f8ee" x1="100%" x2="638.127%" y1="754.992%" y2="-178.734%">
            <stop offset="0%" stop-color="#A2A2A2"/>
            <stop offset="100%" stop-color="#E6E6E6"/>
        </linearGradient>
        <linearGradient id="2jfspy81ff" x1="-488.679%" x2="243.246%" y1="737.573%" y2="-155.571%">
            <stop offset="0%" stop-color="#A2A2A2"/>
            <stop offset="100%" stop-color="#E6E6E6"/>
        </linearGradient>
        <linearGradient id="qd1g1j4iwg" x1="-510.129%" x2="272.524%" y1="291.639%" y2="-585.244%">
            <stop offset="0%" stop-color="#A2A2A2"/>
            <stop offset="100%" stop-color="#E6E6E6"/>
        </linearGradient>
        <linearGradient id="aj1wg7cnzh" x1="0%" x2="649.57%" y1="329.535%" y2="-608.964%">
            <stop offset="0%" stop-color="#A2A2A2"/>
            <stop offset="100%" stop-color="#E6E6E6"/>
        </linearGradient>
    </defs>
    <g fill="none" fill-rule="evenodd">
        <g>
            <g>
                <path fill="url(#fe0cdn4d5a)" d="M11 0H3.803C1.702 0 0 1.703 0 3.803V11h11V0zM9 2v7H2V3.803C2 2.809 2.809 2 3.803 2H9z" transform="translate(-30 -322) translate(30 322)"/>
                <path fill="url(#mu7v1dxyib)" d="M11 13H0v7.197C0 22.298 1.702 24 3.803 24H11V13zm-2 2v7H3.803C2.809 22 2 21.191 2 20.197V15h7z" transform="translate(-30 -322) translate(30 322)"/>
                <path fill="url(#74cyxdqiyc)" d="M20.197 0H13v11h11V3.803C24 1.703 22.298 0 20.197 0m0 2C21.191 2 22 2.809 22 3.803V9h-7V2h5.197" transform="translate(-30 -322) translate(30 322)"/>
                <path fill="url(#xt5yn2t55d)" d="M21 15h3v-2h-3v2zm1 4.368h2v-3h-2v3zm-.284 1.802c-.26.403-.675.691-1.139.79l.417 1.956c.104-.021.206-.048.306-.078l.006-.002.005-.002h.001l.004-.001.001-.001.005-.001.005-.002h.001l.005-.002h.001l.005-.001.001-.001.004-.001.001-.001.005-.001h.001l.004-.002h.001l.005-.002h.001l.004-.002h.001l.005-.001.001-.001.005-.001h.001l.004-.001h.001l.005-.002h.001l.005-.002h.001l.003-.002h.002l.004-.002h.001l.005-.002h.001l.004-.001.002-.001.004-.001.002-.001.004-.001.001-.001.004-.001.002-.001.003-.001.002-.001.004-.001.001-.001.004-.001.002-.001.004-.001.001-.001.005-.001.001-.001.004-.001.002-.001.004-.001.001-.001.005-.001.001-.001.003-.001.002-.001.004-.001.001-.001.005-.001v-.001l.011-.002.001-.001.025-.009.001-.001.004-.001.001-.001.005-.001.001-.001.003-.001.003-.001.003-.001.002-.001.003-.001.003-.001.002-.002h.002l.003-.002.003-.001.003-.001.003-.001.002-.001.003-.001.003-.001.003-.001.002-.001.004-.001.002-.001.003-.002.003-.001.003-.001.001-.001.003-.001h.003l.003-.001.002-.001.003-.002.003-.001.003-.001.002-.001.003-.001.003-.001.003-.001.002-.001.004-.002.002-.001.002-.001.002-.001.004-.001.002-.001.003-.002h.002l.004-.002.002-.001.003-.001.002-.001.004-.002h.002l.004-.002.001-.001.004-.001.002-.001.003-.002h.002l.003-.002.002-.001.004-.001.001-.001.004-.002h.002l.004-.001.001-.001.004-.001.002-.001.004-.002.001-.001.004-.001.001-.001.004-.002h.001l.004-.002.002-.001.004-.002h.001l.005-.002.001-.001.004-.002h.001l.005-.002.001-.001.005-.002.004-.003c.035-.014.069-.031.102-.047v-.001l.005-.002h.001l.005-.003.005-.002.005-.002h.001l.004-.003.005-.002.001-.001.004-.002h.001l.005-.003.005-.003h.001l.004-.002.001-.001.005-.002.005-.003h.001l.003-.003h.001l.005-.002v-.001l.005-.002h.001l.004-.003h.001l.005-.003.005-.002v-.001l.005-.001.001-.001.005-.002.004-.003.005-.003.006-.003c.075-.04.15-.083.222-.129.172-.108.334-.229.485-.361l.005-.004.004-.004.005-.003c0-.001 0 0 0 0l.004-.004.005-.004.004-.004.003-.004h.001l.004-.004.004-.004.005-.004c.052-.046.102-.094.152-.144l.003-.004.004-.004.001-.001.003-.004h.001l.003-.004h.001l.003-.004h.001l.004-.003v-.001l.004-.003v-.001l.004-.004h.001l.003-.004.001-.001.003-.003.001-.001.002-.003.001-.001.003-.004.001-.001.003-.003.001-.001.003-.003.001-.001.003-.004h.001l.003-.003.001-.001.004-.003.001-.001.003-.003.001-.001.003-.004.001-.001.003-.003.001-.001.002-.003.001-.001.003-.004.001-.001.003-.003.001-.001.003-.003.001-.001.003-.004.001-.001.003-.002.001-.001.003-.004h.001l.003-.004.001-.001.003-.004h.001l.003-.004.001-.001.003-.004h.001l.002-.004h.001l.003-.005h.001l.003-.004h.001l.031-.035.003-.004.004-.005.004-.003v-.001l.004-.004v-.001l.003-.003.001-.001.003-.003.002-.002.002-.003.001-.001.003-.003.001-.002.003-.003.001-.002.003-.002.001-.002.002-.003.001-.002.002-.002.002-.001.002-.003.001-.002.003-.002.001-.002.003-.003.001-.002.002-.002.002-.002.002-.003.002-.002.002-.003.001-.001.003-.003.001-.002.002-.003.002-.002.002-.002.002-.002.002-.002.002-.002.001-.002.001-.003.002-.002.002-.002.002-.002.002-.003.002-.002.001-.002.002-.003.002-.002.002-.002.002-.003.002-.002.002-.002.001-.002.002-.003.002-.001.002-.003.001-.001.003-.003.001-.002.002-.003.002-.002.001-.002.002-.002.002-.003.001-.002.002-.003.002-.002.002-.002.001-.002.003-.003.001-.002.002-.003.001-.001.003-.002.001-.002.002-.003.001-.001.003-.004.001-.001.003-.003v-.001l.003-.004.001-.001.003-.004.043-.059.004-.004v-.001l.003-.004.003-.005h.001l.003-.005.003-.004v-.001l.004-.004.003-.005.003-.004.001-.001.003-.003v-.001l.003-.004v-.001l.003-.004h.001l.003-.004v-.001l.002-.004.001-.001.003-.004v-.001l.003-.004v-.001l.003-.004.001-.001.003-.004.003-.004.003-.004.001-.001.003-.004v-.001l.003-.004v-.001l.003-.004.004-.005.003-.005.003-.005.002-.005h.001l.006-.008.034-.053-1.681-1.082zM15 24h3v-2h-3v2zm-2-1h2v-3h-2v3zm5-10h-3v1h-2v3h2v-2h3v-2z" transform="translate(-30 -322) translate(30 322)"/>
                <path fill="url(#oga2m7f8ee)" d="M4 7L7 7 7 4 4 4z" transform="translate(-30 -322) translate(30 322)"/>
                <path fill="url(#2jfspy81ff)" d="M17 7L20 7 20 4 17 4z" transform="translate(-30 -322) translate(30 322)"/>
                <path fill="url(#qd1g1j4iwg)" d="M17 20L20 20 20 17 17 17z" transform="translate(-30 -322) translate(30 322)"/>
                <path fill="url(#aj1wg7cnzh)" d="M4 20L7 20 7 17 4 17z" transform="translate(-30 -322) translate(30 322)"/>
            </g>
        </g>
    </g>
</svg>
