<?xml version="1.0" encoding="UTF-8"?>
<svg width="64px" height="64px" viewBox="0 0 64 64" version="1.1" xmlns="http://www.w3.org/2000/svg" xmlns:xlink="http://www.w3.org/1999/xlink">
    <!-- Generator: Sketch 60 (88103) - https://sketch.com -->
    <title>Combined Shape</title>
    <desc>Created with Sketch.</desc>
    <g id="Page-1" stroke="none" stroke-width="1" fill="none" fill-rule="evenodd">
        <g id="9-Buttons-2" transform="translate(-919.000000, -177.000000)" fill="#FFFFFF" fill-rule="nonzero">
            <path d="M971.362985,235.180935 L971.362985,240.999045 L965.543602,240.999045 L965.543602,235.180935 L971.362985,235.180935 Z M982.999045,235.180935 L982.999045,240.999045 L977.179821,240.999045 L977.179821,235.180935 L982.999045,235.180935 Z M948.090388,211.907861 L948.090388,240.998567 L919,240.998567 L919,211.907861 L948.090388,211.907861 Z M971.362826,211.907861 L971.362826,217.726448 L977.180458,217.726448 L977.180458,211.907861 L982.998567,211.907861 L982.998567,229.362826 L965.543602,229.362826 L965.543602,223.54408 L959.726448,223.54408 L959.726448,240.998567 L953.907861,240.998567 L953.907861,211.907861 L971.362826,211.907861 Z M942.272119,217.726448 L924.817632,217.726448 L924.817632,235.135721 L942.272119,235.135721 L942.272119,217.726448 Z M936.45401,223.54408 L936.45401,229.362826 L930.63606,229.362826 L930.63606,223.54408 L936.45401,223.54408 Z M948.090388,177 L948.090388,206.091025 L919,206.091025 L919,177 L948.090388,177 Z M982.999045,177 L982.999045,206.091025 L953.907861,206.091025 L953.907861,177 L982.999045,177 Z M942.272119,182.817632 L924.817632,182.817632 L924.817632,200.272119 L942.272119,200.272119 L942.272119,182.817632 Z M977.180458,182.817632 L959.726448,182.817632 L959.726448,200.272119 L977.180458,200.272119 L977.180458,182.817632 Z M936.45401,188.63606 L936.45401,194.454488 L930.63606,194.454488 L930.63606,188.63606 L936.45401,188.63606 Z M971.362985,188.63606 L971.362985,194.454488 L965.543602,194.454488 L965.543602,188.63606 L971.362985,188.63606 Z" id="Combined-Shape"></path>
        </g>
    </g>
</svg>