<?xml version="1.0" encoding="UTF-8" standalone="no"?>
<svg
   xmlns:dc="http://purl.org/dc/elements/1.1/"
   xmlns:cc="http://creativecommons.org/ns#"
   xmlns:rdf="http://www.w3.org/1999/02/22-rdf-syntax-ns#"
   xmlns:svg="http://www.w3.org/2000/svg"
   xmlns="http://www.w3.org/2000/svg"
   viewBox="0 0 816 1056"
   height="1056"
   width="816"
   xml:space="preserve"
   id="svg2"
   version="1.1"><metadata
     id="metadata8"><rdf:RDF><cc:Work
         rdf:about=""><dc:format>image/svg+xml</dc:format><dc:type
           rdf:resource="http://purl.org/dc/dcmitype/StillImage" /></cc:Work></rdf:RDF></metadata><defs
     id="defs6"><clipPath
       id="clipPath18"
       clipPathUnits="userSpaceOnUse"><path
         style="clip-rule:evenodd"
         id="path16"
         d="M 9.12e-6,0 H 612.00001 V 792 H 9.12e-6 Z" /></clipPath><clipPath
       id="clipPath30"
       clipPathUnits="userSpaceOnUse"><path
         style="clip-rule:evenodd"
         id="path28"
         d="M 9.12e-6,0 H 612.00001 V 792 H 9.12e-6 Z" /></clipPath><clipPath
       id="clipPath42"
       clipPathUnits="userSpaceOnUse"><path
         style="clip-rule:evenodd"
         id="path40"
         d="M 9.12e-6,0 H 612.00001 V 792 H 9.12e-6 Z" /></clipPath><clipPath
       id="clipPath54"
       clipPathUnits="userSpaceOnUse"><path
         style="clip-rule:evenodd"
         id="path52"
         d="M 9.12e-6,0 H 612.00001 V 792 H 9.12e-6 Z" /></clipPath><clipPath
       id="clipPath66"
       clipPathUnits="userSpaceOnUse"><path
         style="clip-rule:evenodd"
         id="path64"
         d="M 9.12e-6,0 H 612.00001 V 792 H 9.12e-6 Z" /></clipPath><clipPath
       id="clipPath78"
       clipPathUnits="userSpaceOnUse"><path
         style="clip-rule:evenodd"
         id="path76"
         d="M 9.12e-6,0 H 612.00001 V 792 H 9.12e-6 Z" /></clipPath><clipPath
       id="clipPath90"
       clipPathUnits="userSpaceOnUse"><path
         style="clip-rule:evenodd"
         id="path88"
         d="M 9.12e-6,0 H 612.00001 V 792 H 9.12e-6 Z" /></clipPath><clipPath
       id="clipPath102"
       clipPathUnits="userSpaceOnUse"><path
         style="clip-rule:evenodd"
         id="path100"
         d="M 9.12e-6,0 H 612.00001 V 792 H 9.12e-6 Z" /></clipPath><clipPath
       id="clipPath114"
       clipPathUnits="userSpaceOnUse"><path
         style="clip-rule:evenodd"
         id="path112"
         d="M 9.12e-6,0 H 612.00001 V 792 H 9.12e-6 Z" /></clipPath><clipPath
       id="clipPath126"
       clipPathUnits="userSpaceOnUse"><path
         style="clip-rule:evenodd"
         id="path124"
         d="M 9.12e-6,0 H 612.00001 V 792 H 9.12e-6 Z" /></clipPath><clipPath
       id="clipPath138"
       clipPathUnits="userSpaceOnUse"><path
         style="clip-rule:evenodd"
         id="path136"
         d="M 9.12e-6,0 H 612.00001 V 792 H 9.12e-6 Z" /></clipPath><clipPath
       id="clipPath150"
       clipPathUnits="userSpaceOnUse"><path
         style="clip-rule:evenodd"
         id="path148"
         d="M 9.12e-6,0 H 612.00001 V 792 H 9.12e-6 Z" /></clipPath><clipPath
       id="clipPath162"
       clipPathUnits="userSpaceOnUse"><path
         style="clip-rule:evenodd"
         id="path160"
         d="M 9.12e-6,0 H 612.00001 V 792 H 9.12e-6 Z" /></clipPath><clipPath
       id="clipPath174"
       clipPathUnits="userSpaceOnUse"><path
         style="clip-rule:evenodd"
         id="path172"
         d="M 9.12e-6,0 H 612.00001 V 792 H 9.12e-6 Z" /></clipPath><clipPath
       id="clipPath186"
       clipPathUnits="userSpaceOnUse"><path
         style="clip-rule:evenodd"
         id="path184"
         d="M 9.12e-6,0 H 612.00001 V 792 H 9.12e-6 Z" /></clipPath><clipPath
       id="clipPath198"
       clipPathUnits="userSpaceOnUse"><path
         style="clip-rule:evenodd"
         id="path196"
         d="M 9.12e-6,0 H 612.00001 V 792 H 9.12e-6 Z" /></clipPath><clipPath
       id="clipPath210"
       clipPathUnits="userSpaceOnUse"><path
         style="clip-rule:evenodd"
         id="path208"
         d="M 9.12e-6,0 H 612.00001 V 792 H 9.12e-6 Z" /></clipPath><clipPath
       id="clipPath222"
       clipPathUnits="userSpaceOnUse"><path
         style="clip-rule:evenodd"
         id="path220"
         d="M 9.12e-6,0 H 612.00001 V 792 H 9.12e-6 Z" /></clipPath><clipPath
       id="clipPath234"
       clipPathUnits="userSpaceOnUse"><path
         style="clip-rule:evenodd"
         id="path232"
         d="M 9.12e-6,0 H 612.00001 V 792 H 9.12e-6 Z" /></clipPath><clipPath
       id="clipPath246"
       clipPathUnits="userSpaceOnUse"><path
         style="clip-rule:evenodd"
         id="path244"
         d="M 9.12e-6,0 H 612.00001 V 792 H 9.12e-6 Z" /></clipPath><clipPath
       id="clipPath258"
       clipPathUnits="userSpaceOnUse"><path
         style="clip-rule:evenodd"
         id="path256"
         d="M 9.12e-6,0 H 612.00001 V 792 H 9.12e-6 Z" /></clipPath><clipPath
       id="clipPath270"
       clipPathUnits="userSpaceOnUse"><path
         style="clip-rule:evenodd"
         id="path268"
         d="M 9.12e-6,0 H 612.00001 V 792 H 9.12e-6 Z" /></clipPath><clipPath
       id="clipPath282"
       clipPathUnits="userSpaceOnUse"><path
         style="clip-rule:evenodd"
         id="path280"
         d="M 9.12e-6,0 H 612.00001 V 792 H 9.12e-6 Z" /></clipPath><clipPath
       id="clipPath294"
       clipPathUnits="userSpaceOnUse"><path
         style="clip-rule:evenodd"
         id="path292"
         d="M 9.12e-6,0 H 612.00001 V 792 H 9.12e-6 Z" /></clipPath><clipPath
       id="clipPath306"
       clipPathUnits="userSpaceOnUse"><path
         style="clip-rule:evenodd"
         id="path304"
         d="M 9.12e-6,0 H 612.00001 V 792 H 9.12e-6 Z" /></clipPath><clipPath
       id="clipPath318"
       clipPathUnits="userSpaceOnUse"><path
         style="clip-rule:evenodd"
         id="path316"
         d="M 9.12e-6,0 H 612.00001 V 792 H 9.12e-6 Z" /></clipPath><clipPath
       id="clipPath330"
       clipPathUnits="userSpaceOnUse"><path
         style="clip-rule:evenodd"
         id="path328"
         d="M 9.12e-6,0 H 612.00001 V 792 H 9.12e-6 Z" /></clipPath><clipPath
       id="clipPath342"
       clipPathUnits="userSpaceOnUse"><path
         style="clip-rule:evenodd"
         id="path340"
         d="M 9.12e-6,0 H 612.00001 V 792 H 9.12e-6 Z" /></clipPath><clipPath
       id="clipPath354"
       clipPathUnits="userSpaceOnUse"><path
         style="clip-rule:evenodd"
         id="path352"
         d="M 9.12e-6,0 H 612.00001 V 792 H 9.12e-6 Z" /></clipPath><clipPath
       id="clipPath366"
       clipPathUnits="userSpaceOnUse"><path
         style="clip-rule:evenodd"
         id="path364"
         d="M 9.12e-6,0 H 612.00001 V 792 H 9.12e-6 Z" /></clipPath><clipPath
       id="clipPath378"
       clipPathUnits="userSpaceOnUse"><path
         style="clip-rule:evenodd"
         id="path376"
         d="M 9.12e-6,0 H 612.00001 V 792 H 9.12e-6 Z" /></clipPath><clipPath
       id="clipPath390"
       clipPathUnits="userSpaceOnUse"><path
         style="clip-rule:evenodd"
         id="path388"
         d="M 9.12e-6,0 H 612.00001 V 792 H 9.12e-6 Z" /></clipPath><clipPath
       id="clipPath402"
       clipPathUnits="userSpaceOnUse"><path
         style="clip-rule:evenodd"
         id="path400"
         d="M 9.12e-6,0 H 612.00001 V 792 H 9.12e-6 Z" /></clipPath><clipPath
       id="clipPath414"
       clipPathUnits="userSpaceOnUse"><path
         style="clip-rule:evenodd"
         id="path412"
         d="M 9.12e-6,0 H 612.00001 V 792 H 9.12e-6 Z" /></clipPath><clipPath
       id="clipPath426"
       clipPathUnits="userSpaceOnUse"><path
         style="clip-rule:evenodd"
         id="path424"
         d="M 9.12e-6,0 H 612.00001 V 792 H 9.12e-6 Z" /></clipPath><clipPath
       id="clipPath438"
       clipPathUnits="userSpaceOnUse"><path
         style="clip-rule:evenodd"
         id="path436"
         d="M 9.12e-6,0 H 612.00001 V 792 H 9.12e-6 Z" /></clipPath><clipPath
       id="clipPath450"
       clipPathUnits="userSpaceOnUse"><path
         style="clip-rule:evenodd"
         id="path448"
         d="M 9.12e-6,0 H 612.00001 V 792 H 9.12e-6 Z" /></clipPath></defs><g
     transform="matrix(1.3333333,0,0,-1.3333333,0,1056)"
     id="g10"><g
       id="g12"><g
         clip-path="url(#clipPath18)"
         id="g14"><text
           id="text22"
           style="font-variant:normal;font-weight:normal;font-size:10.56000042px;font-family:'Courier 10 Pitch';-inkscape-font-specification:CourierNewPSMT;writing-mode:lr-tb;fill:#000000;fill-opacity:1;fill-rule:nonzero;stroke:none"
           transform="matrix(1,0,0,-1,75.024,710.98)"><tspan
             id="tspan20"
             y="0"
             x="0 6.336 12.71424 18.9552 25.291201 31.55328 37.889278 44.15136 50.487358 56.749439 63.085442 69.347519 75.683517">&lt;svg id=&quot;icon</tspan></text>
</g></g><g
       id="g24"><g
         clip-path="url(#clipPath30)"
         id="g26"><text
           id="text34"
           style="font-variant:normal;font-weight:normal;font-size:10.56000042px;font-family:'Courier 10 Pitch';-inkscape-font-specification:CourierNewPSMT;writing-mode:lr-tb;fill:#000000;fill-opacity:1;fill-rule:nonzero;stroke:none"
           transform="matrix(1,0,0,-1,156.98,710.98)"><tspan
             id="tspan32"
             y="0"
             x="0">-</tspan></text>
</g></g><g
       id="g36"><g
         clip-path="url(#clipPath42)"
         id="g38"><text
           id="text46"
           style="font-variant:normal;font-weight:normal;font-size:10.56000042px;font-family:'Courier 10 Pitch';-inkscape-font-specification:CourierNewPSMT;writing-mode:lr-tb;fill:#000000;fill-opacity:1;fill-rule:nonzero;stroke:none"
           transform="matrix(1,0,0,-1,163.34,710.98)"><tspan
             id="tspan44"
             y="0"
             x="0 6.2409601 12.57696 18.839041 25.175039 31.43712">qrcode</tspan></text>
</g></g><g
       id="g48"><g
         clip-path="url(#clipPath54)"
         id="g50"><text
           id="text58"
           style="font-variant:normal;font-weight:normal;font-size:10.56000042px;font-family:'Courier 10 Pitch';-inkscape-font-specification:CourierNewPSMT;writing-mode:lr-tb;fill:#000000;fill-opacity:1;fill-rule:nonzero;stroke:none"
           transform="matrix(1,0,0,-1,201.17,710.98)"><tspan
             id="tspan56"
             y="0"
             x="0">-</tspan></text>
</g></g><g
       id="g60"><g
         clip-path="url(#clipPath66)"
         id="g62"><text
           id="text70"
           style="font-variant:normal;font-weight:normal;font-size:10.56000042px;font-family:'Courier 10 Pitch';-inkscape-font-specification:CourierNewPSMT;writing-mode:lr-tb;fill:#000000;fill-opacity:1;fill-rule:nonzero;stroke:none"
           transform="matrix(1,0,0,-1,207.53,710.98)"><tspan
             id="tspan68"
             y="0"
             x="0 6.2409601 12.57696 18.839041 25.175039 31.43712 37.773121 44.035198 50.371201 56.633282 62.96928 69.231361 75.56736 81.829437 88.165443 94.427521 100.76352 107.0256 113.3616 119.73984 125.9808 132.3168 138.57887 144.91489 151.17696 157.51295 163.77504 170.11104 176.37312 182.70912 188.97121 195.30721 201.56927 207.90527 214.16736 220.50336 226.76544 233.10144 239.47968 245.72064 252.05664 258.31873 264.65472 270.91681">24&quot; viewBox=&quot;0 0 24 24&quot;&gt;&lt;path class=&quot;path1&quot; </tspan></text>
</g></g><g
       id="g72"><g
         clip-path="url(#clipPath78)"
         id="g74"><text
           id="text82"
           style="font-variant:normal;font-weight:normal;font-size:10.56000042px;font-family:'Courier 10 Pitch';-inkscape-font-specification:CourierNewPSMT;writing-mode:lr-tb;fill:#000000;fill-opacity:1;fill-rule:nonzero;stroke:none"
           transform="matrix(1,0,0,-1,75.024,699.1)"><tspan
             id="tspan80"
             y="0"
             x="0 6.336 12.71424 18.9552 25.291201 31.55328 37.889278 44.15136 50.487358 56.749439 63.085442 69.347519 75.683517 81.945602 88.281601 94.543678 100.87968 107.14176 113.47776 119.73984 126.07584 132.45409 138.69504 145.03104 151.29312 157.62912 163.8912 170.2272 176.48927 182.82529 189.08736 195.42336 201.68544 208.02144 214.28352 220.61952 226.88161 233.21761 239.47968 245.81567 252.19392 258.43488 264.77087 271.03296 277.36896 283.63104 289.96704 296.22913 302.56512 308.82721 315.16321 321.42529 327.76129 334.02335 340.35938 346.62143 352.95743 359.21951 365.55551 371.93375 378.17471 384.51071 390.7728 397.1088 403.37088 409.70688">fill=&quot;currentColor&quot; d=&quot;M0,24 L0,12.9230769 L11.0764367,12.9230769 </tspan></text>
</g></g><g
       id="g84"><g
         clip-path="url(#clipPath90)"
         id="g86"><text
           id="text94"
           style="font-variant:normal;font-weight:normal;font-size:10.56000042px;font-family:'Courier 10 Pitch';-inkscape-font-specification:CourierNewPSMT;writing-mode:lr-tb;fill:#000000;fill-opacity:1;fill-rule:nonzero;stroke:none"
           transform="matrix(1,0,0,-1,75.024,687.22)"><tspan
             id="tspan92"
             y="0"
             x="0 6.336 12.71424 18.9552 25.291201 31.55328 37.889278 44.15136 50.487358 56.749439 63.085442 69.347519 75.683517 81.945602 88.281601 94.543678 100.87968 107.14176 113.47776 119.73984 126.07584 132.45409 138.69504 145.03104 151.29312 157.62912 163.8912 170.2272 176.48927 182.82529 189.08736 195.42336 201.68544 208.02144 214.28352 220.61952 226.88161 233.21761 239.47968 245.81567 252.19392 258.43488 264.77087 271.03296 277.36896 283.63104 289.96704 296.22913 302.56512 308.82721 315.16321 321.42529 327.76129 334.02335 340.35938 346.62143 352.95743 359.21951 365.55551 371.93375 378.17471 384.51071 390.7728 397.1088 403.37088 409.70688 415.96896 422.30496 428.56705">L11.0764367,24 L0,24 Z M1.84615385,22.1538462 L9.23076923,22.1538462 </tspan></text>
</g></g><g
       id="g96"><g
         clip-path="url(#clipPath102)"
         id="g98"><text
           id="text106"
           style="font-variant:normal;font-weight:normal;font-size:10.56000042px;font-family:'Courier 10 Pitch';-inkscape-font-specification:CourierNewPSMT;writing-mode:lr-tb;fill:#000000;fill-opacity:1;fill-rule:nonzero;stroke:none"
           transform="matrix(1,0,0,-1,75.024,675.34)"><tspan
             id="tspan104"
             y="0"
             x="0 6.336 12.71424 18.9552 25.291201 31.55328 37.889278 44.15136 50.487358 56.749439 63.085442 69.347519 75.683517 81.945602 88.281601 94.543678 100.87968 107.14176 113.47776 119.73984 126.07584 132.45409 138.69504 145.03104 151.29312 157.62912 163.8912 170.2272 176.48927 182.82529 189.08736 195.42336 201.68544 208.02144 214.28352 220.61952 226.88161 233.21761 239.47968 245.81567 252.19392 258.43488 264.77087 271.03296 277.36896 283.63104 289.96704 296.22913 302.56512 308.82721 315.16321 321.42529 327.76129 334.02335 340.35938 346.62143">L9.23076923,14.7692308 L1.84615385,14.7692308 L1.8461538</tspan></text>
</g></g><g
       id="g108"><g
         clip-path="url(#clipPath114)"
         id="g110"><text
           id="text118"
           style="font-variant:normal;font-weight:normal;font-size:10.56000042px;font-family:'Courier 10 Pitch';-inkscape-font-specification:CourierNewPSMT;writing-mode:lr-tb;fill:#000000;fill-opacity:1;fill-rule:nonzero;stroke:none"
           transform="matrix(1,0,0,-1,428.11,675.34)"><tspan
             id="tspan116"
             y="0"
             x="0 6.2409601 12.57696 18.9552 25.196159 31.53216 37.794239 44.130241 50.392319 56.728321 62.990398 69.326401 75.588478 81.924477 88.186562">5,22.1538462 Z </tspan></text>
</g></g><g
       id="g120"><g
         clip-path="url(#clipPath126)"
         id="g122"><text
           id="text130"
           style="font-variant:normal;font-weight:normal;font-size:10.56000042px;font-family:'Courier 10 Pitch';-inkscape-font-specification:CourierNewPSMT;writing-mode:lr-tb;fill:#000000;fill-opacity:1;fill-rule:nonzero;stroke:none"
           transform="matrix(1,0,0,-1,75.024,663.46)"><tspan
             id="tspan128"
             y="0"
             x="0 6.336 12.71424 18.9552 25.291201 31.55328 37.889278 44.15136 50.487358 56.749439 63.085442 69.347519 75.683517 81.945602 88.281601 94.543678 100.87968 107.14176 113.47776 119.73984 126.07584 132.45409 138.69504 145.03104 151.29312 157.62912 163.8912 170.2272 176.48927 182.82529 189.08736 195.42336 201.68544 208.02144 214.28352 220.61952 226.88161 233.21761 239.47968 245.81567 252.19392 258.43488 264.77087 271.03296 277.36896 283.63104 289.96704 296.22913 302.56512 308.82721 315.16321 321.42529 327.76129 334.02335 340.35938 346.62143 352.95743 359.21951 365.55551 371.93375 378.17471 384.51071 390.7728 397.1088 403.37088 409.70688 415.96896 422.30496 428.56705">M3.69230769,16.6153846 L7.38461538,16.6153846 L7.38461538,20.3076923 </tspan></text>
</g></g><g
       id="g132"><g
         clip-path="url(#clipPath138)"
         id="g134"><text
           id="text142"
           style="font-variant:normal;font-weight:normal;font-size:10.56000042px;font-family:'Courier 10 Pitch';-inkscape-font-specification:CourierNewPSMT;writing-mode:lr-tb;fill:#000000;fill-opacity:1;fill-rule:nonzero;stroke:none"
           transform="matrix(1,0,0,-1,75.024,651.46)"><tspan
             id="tspan140"
             y="0"
             x="0 6.336 12.71424 18.9552 25.291201 31.55328 37.889278 44.15136 50.487358 56.749439 63.085442 69.347519 75.683517 81.945602 88.281601 94.543678 100.87968 107.14176 113.47776 119.73984 126.07584 132.45409 138.69504 145.03104 151.29312 157.62912 163.8912 170.2272 176.48927 182.82529 189.08736 195.42336 201.68544 208.02144 214.28352 220.61952 226.88161 233.21761 239.47968 245.81567 252.19392 258.43488 264.77087 271.03296 277.36896 283.63104 289.96704 296.22913 302.56512 308.82721 315.16321 321.42529 327.76129 334.02335 340.35938 346.62143 352.95743 359.21951 365.55551 371.93375 378.17471 384.51071 390.7728 397.1088 403.37088 409.70688 415.96896 422.30496 428.56705">L3.69230769,20.3076923 L3.69230769,16.6153846 Z M24,0 L24,11.0769231 </tspan></text>
</g></g><g
       id="g144"><g
         clip-path="url(#clipPath150)"
         id="g146"><text
           id="text154"
           style="font-variant:normal;font-weight:normal;font-size:10.56000042px;font-family:'Courier 10 Pitch';-inkscape-font-specification:CourierNewPSMT;writing-mode:lr-tb;fill:#000000;fill-opacity:1;fill-rule:nonzero;stroke:none"
           transform="matrix(1,0,0,-1,75.024,639.58)"><tspan
             id="tspan152"
             y="0"
             x="0 6.336 12.71424 18.9552 25.291201 31.55328 37.889278 44.15136 50.487358 56.749439 63.085442 69.347519 75.683517 81.945602 88.281601 94.543678 100.87968 107.14176 113.47776 119.73984 126.07584 132.45409 138.69504 145.03104 151.29312 157.62912 163.8912 170.2272 176.48927 182.82529 189.08736 195.42336 201.68544 208.02144 214.28352 220.61952 226.88161 233.21761 239.47968 245.81567 252.19392 258.43488 264.77087 271.03296 277.36896 283.63104 289.96704 296.22913 302.56512 308.82721 315.16321 321.42529 327.76129 334.02335 340.35938 346.62143 352.95743 359.21951 365.55551 371.93375 378.17471 384.51071 390.7728 397.1088 403.37088 409.70688 415.96896 422.30496">L12.9230769,11.0769231 L12.9230769,0 L24,0 Z M22.1538462,9.23076923 </tspan></text>
</g></g><g
       id="g156"><g
         clip-path="url(#clipPath162)"
         id="g158"><text
           id="text166"
           style="font-variant:normal;font-weight:normal;font-size:10.56000042px;font-family:'Courier 10 Pitch';-inkscape-font-specification:CourierNewPSMT;writing-mode:lr-tb;fill:#000000;fill-opacity:1;fill-rule:nonzero;stroke:none"
           transform="matrix(1,0,0,-1,75.024,627.7)"><tspan
             id="tspan164"
             y="0"
             x="0 6.336 12.71424 18.9552 25.291201 31.55328 37.889278 44.15136 50.487358 56.749439 63.085442 69.347519 75.683517 81.945602 88.281601 94.543678 100.87968 107.14176 113.47776 119.73984 126.07584 132.45409 138.69504 145.03104 151.29312 157.62912 163.8912 170.2272 176.48927 182.82529 189.08736 195.42336 201.68544 208.02144 214.28352">L22.1543325,9.23076923 L22.1543325,</tspan></text>
</g></g><g
       id="g168"><g
         clip-path="url(#clipPath174)"
         id="g170"><text
           id="text178"
           style="font-variant:normal;font-weight:normal;font-size:10.56000042px;font-family:'Courier 10 Pitch';-inkscape-font-specification:CourierNewPSMT;writing-mode:lr-tb;fill:#000000;fill-opacity:1;fill-rule:nonzero;stroke:none"
           transform="matrix(1,0,0,-1,295.73,627.7)"><tspan
             id="tspan176"
             y="0"
             x="0 6.2409601 12.57696 18.839041 25.175039 31.55328 37.794239 44.130241 50.392319 56.728321 62.990398 69.326401 75.588478 81.924477 88.186562 94.52256 100.78464 107.12064 113.38272 119.71872 125.9808 132.3168 138.57887 144.91489 151.29312 157.53407 163.87009 170.13216 176.46815 182.73024 189.06624 195.32832 201.66432 207.92641">1.84615385 L14.7692308,1.84615385 </tspan></text>
</g></g><g
       id="g180"><g
         clip-path="url(#clipPath186)"
         id="g182"><text
           id="text190"
           style="font-variant:normal;font-weight:normal;font-size:10.56000042px;font-family:'Courier 10 Pitch';-inkscape-font-specification:CourierNewPSMT;writing-mode:lr-tb;fill:#000000;fill-opacity:1;fill-rule:nonzero;stroke:none"
           transform="matrix(1,0,0,-1,75.024,615.82)"><tspan
             id="tspan188"
             y="0"
             x="0 6.336 12.71424 18.9552 25.291201 31.55328 37.889278 44.15136 50.487358 56.749439 63.085442 69.347519 75.683517 81.945602 88.281601 94.543678 100.87968 107.14176 113.47776 119.73984 126.07584 132.45409 138.69504 145.03104 151.29312 157.62912 163.8912 170.2272 176.48927 182.82529 189.08736 195.42336 201.68544 208.02144 214.28352 220.61952 226.88161 233.21761 239.47968 245.81567 252.19392 258.43488 264.77087 271.03296 277.36896 283.63104 289.96704 296.22913 302.56512 308.82721 315.16321 321.42529 327.76129 334.02335 340.35938 346.62143 352.95743 359.21951 365.55551 371.93375 378.17471 384.51071 390.7728 397.1088 403.37088 409.70688 415.96896 422.30496 428.56705 434.90305 441.16513">L14.7692308,9.23076923 L22.1538462,9.23076923 Z M16.6153846,3.69230769 </tspan></text>
</g></g><g
       id="g192"><g
         clip-path="url(#clipPath198)"
         id="g194"><text
           id="text202"
           style="font-variant:normal;font-weight:normal;font-size:10.56000042px;font-family:'Courier 10 Pitch';-inkscape-font-specification:CourierNewPSMT;writing-mode:lr-tb;fill:#000000;fill-opacity:1;fill-rule:nonzero;stroke:none"
           transform="matrix(1,0,0,-1,75.024,603.94)"><tspan
             id="tspan200"
             y="0"
             x="0 6.336 12.71424 18.9552 25.291201 31.55328 37.889278 44.15136 50.487358 56.749439 63.085442 69.347519 75.683517 81.945602 88.281601 94.543678 100.87968 107.14176 113.47776 119.73984 126.07584 132.45409 138.69504 145.03104 151.29312 157.62912 163.8912 170.2272 176.48927 182.82529 189.08736 195.42336 201.68544 208.02144 214.28352 220.61952 226.88161 233.21761 239.47968 245.81567 252.19392 258.43488 264.77087 271.03296 277.36896 283.63104 289.96704 296.22913 302.56512 308.82721 315.16321 321.42529 327.76129 334.02335 340.35938 346.62143 352.95743 359.21951 365.55551 371.93375 378.17471 384.51071 390.7728 397.1088 403.37088 409.70688 415.96896 422.30496 428.56705">L20.3076923,3.69230769 L20.3076923,7.38461538 L16.6153846,7.38461538 </tspan></text>
</g></g><g
       id="g204"><g
         clip-path="url(#clipPath210)"
         id="g206"><text
           id="text214"
           style="font-variant:normal;font-weight:normal;font-size:10.56000042px;font-family:'Courier 10 Pitch';-inkscape-font-specification:CourierNewPSMT;writing-mode:lr-tb;fill:#000000;fill-opacity:1;fill-rule:nonzero;stroke:none"
           transform="matrix(1,0,0,-1,75.024,592.06)"><tspan
             id="tspan212"
             y="0"
             x="0 6.336 12.71424 18.9552 25.291201 31.55328 37.889278 44.15136 50.487358 56.749439 63.085442 69.347519 75.683517 81.945602 88.281601 94.543678 100.87968 107.14176 113.47776 119.73984 126.07584 132.45409 138.69504 145.03104 151.29312 157.62912 163.8912 170.2272 176.48927 182.82529 189.08736 195.42336 201.68544 208.02144 214.28352 220.61952 226.88161 233.21761 239.47968 245.81567 252.19392 258.43488 264.77087 271.03296 277.36896 283.63104 289.96704 296.22913 302.56512 308.82721 315.16321 321.42529 327.76129 334.02335 340.35938 346.62143 352.95743 359.21951">L16.6153846,3.69230769 Z M0,11.0769231 L0,0 L11.0764367,0 </tspan></text>
</g></g><g
       id="g216"><g
         clip-path="url(#clipPath222)"
         id="g218"><text
           id="text226"
           style="font-variant:normal;font-weight:normal;font-size:10.56000042px;font-family:'Courier 10 Pitch';-inkscape-font-specification:CourierNewPSMT;writing-mode:lr-tb;fill:#000000;fill-opacity:1;fill-rule:nonzero;stroke:none"
           transform="matrix(1,0,0,-1,75.024,580.18)"><tspan
             id="tspan224"
             y="0"
             x="0 6.336 12.71424 18.9552 25.291201 31.55328 37.889278 44.15136 50.487358 56.749439 63.085442 69.347519 75.683517 81.945602 88.281601 94.543678 100.87968 107.14176 113.47776 119.73984 126.07584 132.45409 138.69504 145.03104">L11.0764367,11.0769231 L</tspan></text>
</g></g><g
       id="g228"><g
         clip-path="url(#clipPath234)"
         id="g230"><text
           id="text238"
           style="font-variant:normal;font-weight:normal;font-size:10.56000042px;font-family:'Courier 10 Pitch';-inkscape-font-specification:CourierNewPSMT;writing-mode:lr-tb;fill:#000000;fill-opacity:1;fill-rule:nonzero;stroke:none"
           transform="matrix(1,0,0,-1,226.37,580.18)"><tspan
             id="tspan236"
             y="0"
             x="0 6.336 12.59808 18.93408 25.196159 31.53216 37.794239 44.130241 50.392319 56.728321 62.990398 69.326401 75.588478 81.924477 88.186562 94.52256 100.9008 107.14176 113.47776 119.73984 126.07584 132.33792 138.67392 144.936 151.272 157.53407 163.87009 170.13216 176.46815 182.73024 189.06624 195.32832 201.66432 207.92641 214.26241 220.64064 226.88161 233.21761">0,11.0769231 Z M1.84615385,1.84615385 </tspan></text>
</g></g><g
       id="g240"><g
         clip-path="url(#clipPath246)"
         id="g242"><text
           id="text250"
           style="font-variant:normal;font-weight:normal;font-size:10.56000042px;font-family:'Courier 10 Pitch';-inkscape-font-specification:CourierNewPSMT;writing-mode:lr-tb;fill:#000000;fill-opacity:1;fill-rule:nonzero;stroke:none"
           transform="matrix(1,0,0,-1,75.024,568.3)"><tspan
             id="tspan248"
             y="0"
             x="0 6.336 12.71424 18.9552 25.291201 31.55328 37.889278 44.15136 50.487358 56.749439 63.085442 69.347519 75.683517 81.945602 88.281601 94.543678 100.87968 107.14176 113.47776 119.73984 126.07584 132.45409 138.69504 145.03104 151.29312 157.62912 163.8912 170.2272 176.48927 182.82529 189.08736 195.42336 201.68544 208.02144 214.28352 220.61952 226.88161 233.21761 239.47968 245.81567 252.19392 258.43488 264.77087 271.03296 277.36896 283.63104 289.96704 296.22913 302.56512 308.82721 315.16321 321.42529 327.76129 334.02335 340.35938 346.62143 352.95743 359.21951 365.55551 371.93375 378.17471 384.51071 390.7728 397.1088 403.37088 409.70688 415.96896 422.30496 428.56705">L1.84615385,9.23076923 L9.23076923,9.23076923 L9.23076923,1.84615385 </tspan></text>
</g></g><g
       id="g252"><g
         clip-path="url(#clipPath258)"
         id="g254"><text
           id="text262"
           style="font-variant:normal;font-weight:normal;font-size:10.56000042px;font-family:'Courier 10 Pitch';-inkscape-font-specification:CourierNewPSMT;writing-mode:lr-tb;fill:#000000;fill-opacity:1;fill-rule:nonzero;stroke:none"
           transform="matrix(1,0,0,-1,75.024,556.3)"><tspan
             id="tspan260"
             y="0"
             x="0 6.336 12.71424 18.9552 25.291201 31.55328 37.889278 44.15136 50.487358 56.749439 63.085442 69.347519 75.683517 81.945602 88.281601 94.543678 100.87968 107.14176 113.47776 119.73984 126.07584 132.45409 138.69504 145.03104 151.29312 157.62912 163.8912 170.2272 176.48927 182.82529 189.08736 195.42336 201.68544 208.02144 214.28352 220.61952 226.88161 233.21761 239.47968 245.81567 252.19392 258.43488 264.77087 271.03296 277.36896 283.63104 289.96704 296.22913 302.56512 308.82721 315.16321 321.42529 327.76129 334.02335 340.35938 346.62143 352.95743 359.21951 365.55551 371.93375 378.17471 384.51071 390.7728 397.1088 403.37088 409.70688 415.96896 422.30496 428.56705 434.90305 441.16513">L1.84615385,1.84615385 Z M3.69230769,3.69230769 L7.38461538,3.69230769 </tspan></text>
</g></g><g
       id="g264"><g
         clip-path="url(#clipPath270)"
         id="g266"><text
           id="text274"
           style="font-variant:normal;font-weight:normal;font-size:10.56000042px;font-family:'Courier 10 Pitch';-inkscape-font-specification:CourierNewPSMT;writing-mode:lr-tb;fill:#000000;fill-opacity:1;fill-rule:nonzero;stroke:none"
           transform="matrix(1,0,0,-1,75.024,544.39)"><tspan
             id="tspan272"
             y="0"
             x="0 6.336 12.71424 18.9552 25.291201 31.55328 37.889278 44.15136 50.487358 56.749439 63.085442 69.347519 75.683517 81.945602 88.281601 94.543678 100.87968 107.14176 113.47776 119.73984 126.07584 132.45409 138.69504 145.03104 151.29312 157.62912 163.8912 170.2272 176.48927 182.82529 189.08736 195.42336 201.68544 208.02144 214.28352 220.61952 226.88161 233.21761 239.47968 245.81567 252.19392 258.43488 264.77087 271.03296 277.36896 283.63104 289.96704 296.22913 302.56512 308.82721 315.16321 321.42529 327.76129 334.02335 340.35938 346.62143 352.95743 359.21951 365.55551 371.93375 378.17471 384.51071 390.7728 397.1088 403.37088 409.70688 415.96896 422.30496 428.56705 434.90305 441.16513">L7.38461538,7.38461538 L3.69230769,7.38461538 L3.69230769,3.69230769 Z </tspan></text>
</g></g><g
       id="g276"><g
         clip-path="url(#clipPath282)"
         id="g278"><text
           id="text286"
           style="font-variant:normal;font-weight:normal;font-size:10.56000042px;font-family:'Courier 10 Pitch';-inkscape-font-specification:CourierNewPSMT;writing-mode:lr-tb;fill:#000000;fill-opacity:1;fill-rule:nonzero;stroke:none"
           transform="matrix(1,0,0,-1,75.024,532.51)"><tspan
             id="tspan284"
             y="0"
             x="0 6.336 12.71424 18.9552 25.291201 31.55328 37.889278">M12.923</tspan></text>
</g></g><g
       id="g288"><g
         clip-path="url(#clipPath294)"
         id="g290"><text
           id="text298"
           style="font-variant:normal;font-weight:normal;font-size:10.56000042px;font-family:'Courier 10 Pitch';-inkscape-font-specification:CourierNewPSMT;writing-mode:lr-tb;fill:#000000;fill-opacity:1;fill-rule:nonzero;stroke:none"
           transform="matrix(1,0,0,-1,119.18,532.51)"><tspan
             id="tspan296"
             y="0"
             x="0 6.336 12.59808 18.93408 25.196159 31.53216 37.794239 44.130241 50.392319 56.728321 62.990398 69.326401 75.588478 81.924477 88.302719 94.543678 100.87968 107.14176 113.47776 119.73984 126.07584 132.33792 138.67392 144.936 151.272 157.53407 163.87009 170.13216 176.46815 182.73024 189.06624 195.32832 201.66432 208.04256 214.28352 220.61952 226.88161 233.21761 239.47968 245.81567 252.07776 258.41376 264.67584 271.01184 277.27393 283.60992 289.87201 296.20801 302.47009 308.80609 315.06815 321.40417 327.78241 334.02335 340.35938 346.62143 352.95743 359.21951 365.55551 371.8176 378.15359 384.41568">5633,12.9230769 L14.7697171,12.9230769 L14.7697171,20.3076923 </tspan></text>
</g></g><g
       id="g300"><g
         clip-path="url(#clipPath306)"
         id="g302"><text
           id="text310"
           style="font-variant:normal;font-weight:normal;font-size:10.56000042px;font-family:'Courier 10 Pitch';-inkscape-font-specification:CourierNewPSMT;writing-mode:lr-tb;fill:#000000;fill-opacity:1;fill-rule:nonzero;stroke:none"
           transform="matrix(1,0,0,-1,75.024,520.63)"><tspan
             id="tspan308"
             y="0"
             x="0 6.336 12.71424 18.9552 25.291201 31.55328 37.889278 44.15136 50.487358 56.749439 63.085442 69.347519 75.683517 81.945602 88.281601 94.543678 100.87968 107.14176 113.47776 119.73984 126.07584 132.45409 138.69504 145.03104 151.29312 157.62912 163.8912 170.2272 176.48927 182.82529 189.08736 195.42336 201.68544 208.02144 214.28352 220.61952 226.88161 233.21761 239.47968 245.81567 252.19392 258.43488 264.77087 271.03296 277.36896 283.63104 289.96704 296.22913 302.56512 308.82721 315.16321 321.42529 327.76129 334.02335 340.35938 346.62143 352.95743 359.21951 365.55551 371.93375 378.17471 384.51071 390.7728 397.1088 403.37088 409.70688 415.96896 422.30496 428.56705 434.90305 441.16513">L12.9235633,20.3076923 L12.9235633,12.9230769 Z M12.9235633,22.1538462 </tspan></text>
</g></g><g
       id="g312"><g
         clip-path="url(#clipPath318)"
         id="g314"><text
           id="text322"
           style="font-variant:normal;font-weight:normal;font-size:10.56000042px;font-family:'Courier 10 Pitch';-inkscape-font-specification:CourierNewPSMT;writing-mode:lr-tb;fill:#000000;fill-opacity:1;fill-rule:nonzero;stroke:none"
           transform="matrix(1,0,0,-1,75.024,508.75)"><tspan
             id="tspan320"
             y="0"
             x="0 6.336 12.71424 18.9552 25.291201 31.55328 37.889278 44.15136 50.487358 56.749439 63.085442 69.347519 75.683517 81.945602 88.281601 94.543678 100.87968 107.14176 113.47776 119.73984 126.07584 132.45409 138.69504 145.03104 151.29312 157.62912 163.8912 170.2272 176.48927 182.82529 189.08736 195.42336 201.68544 208.02144 214.28352 220.61952 226.88161 233.21761 239.47968 245.81567 252.19392 258.43488 264.77087 271.03296 277.36896 283.63104 289.96704 296.22913 302.56512 308.82721 315.16321 321.42529 327.76129 334.02335 340.35938 346.62143 352.95743 359.21951 365.55551 371.93375 378.17471 384.51071 390.7728 397.1088 403.37088 409.70688 415.96896 422.30496 428.56705 434.90305 441.16513 447.50113 453.76321 460.09921">L16.615871,22.1538462 L16.615871,24 L12.9230769,24 L12.9235633,22.1538462 </tspan></text>
</g></g><g
       id="g324"><g
         clip-path="url(#clipPath330)"
         id="g326"><text
           id="text334"
           style="font-variant:normal;font-weight:normal;font-size:10.56000042px;font-family:'Courier 10 Pitch';-inkscape-font-specification:CourierNewPSMT;writing-mode:lr-tb;fill:#000000;fill-opacity:1;fill-rule:nonzero;stroke:none"
           transform="matrix(1,0,0,-1,75.024,496.87)"><tspan
             id="tspan332"
             y="0"
             x="0 6.336 12.71424 18.9552 25.291201 31.55328 37.889278 44.15136 50.487358 56.749439 63.085442 69.347519 75.683517 81.945602 88.281601 94.543678 100.87968 107.14176 113.47776 119.73984 126.07584 132.45409 138.69504 145.03104 151.29312 157.62912 163.8912 170.2272 176.48927 182.82529 189.08736 195.42336 201.68544 208.02144 214.28352 220.61952 226.88161 233.21761 239.47968 245.81567 252.19392 258.43488 264.77087 271.03296 277.36896 283.63104 289.96704 296.22913 302.56512">Z M22.1538462,16.6153846 L24,16.6153846 L24,18.46</tspan></text>
</g></g><g
       id="g336"><g
         clip-path="url(#clipPath342)"
         id="g338"><text
           id="text346"
           style="font-variant:normal;font-weight:normal;font-size:10.56000042px;font-family:'Courier 10 Pitch';-inkscape-font-specification:CourierNewPSMT;writing-mode:lr-tb;fill:#000000;fill-opacity:1;fill-rule:nonzero;stroke:none"
           transform="matrix(1,0,0,-1,383.95,496.87)"><tspan
             id="tspan344"
             y="0"
             x="0 6.336 12.59808 18.93408 25.196159 31.53216">15385 </tspan></text>
</g></g><g
       id="g348"><g
         clip-path="url(#clipPath354)"
         id="g350"><text
           id="text358"
           style="font-variant:normal;font-weight:normal;font-size:10.56000042px;font-family:'Courier 10 Pitch';-inkscape-font-specification:CourierNewPSMT;writing-mode:lr-tb;fill:#000000;fill-opacity:1;fill-rule:nonzero;stroke:none"
           transform="matrix(1,0,0,-1,75.024,484.99)"><tspan
             id="tspan356"
             y="0"
             x="0 6.336 12.71424 18.9552 25.291201 31.55328 37.889278 44.15136 50.487358 56.749439 63.085442 69.347519 75.683517 81.945602 88.281601 94.543678 100.87968 107.14176 113.47776 119.73984 126.07584 132.45409 138.69504 145.03104 151.29312 157.62912 163.8912 170.2272 176.48927 182.82529 189.08736 195.42336 201.68544 208.02144 214.28352 220.61952 226.88161 233.21761 239.47968 245.81567 252.19392 258.43488 264.77087 271.03296 277.36896 283.63104 289.96704 296.22913 302.56512 308.82721 315.16321 321.42529 327.76129 334.02335 340.35938 346.62143 352.95743 359.21951 365.55551 371.93375 378.17471 384.51071 390.7728 397.1088 403.37088 409.70688 415.96896 422.30496 428.56705 434.90305 441.16513">L22.1538462,18.4615385 L22.1538462,16.6153846 Z M18.4615385,12.9230769 </tspan></text>
</g></g><g
       id="g360"><g
         clip-path="url(#clipPath366)"
         id="g362"><text
           id="text370"
           style="font-variant:normal;font-weight:normal;font-size:10.56000042px;font-family:'Courier 10 Pitch';-inkscape-font-specification:CourierNewPSMT;writing-mode:lr-tb;fill:#000000;fill-opacity:1;fill-rule:nonzero;stroke:none"
           transform="matrix(1,0,0,-1,75.024,473.11)"><tspan
             id="tspan368"
             y="0"
             x="0 6.336 12.71424 18.9552 25.291201 31.55328 37.889278 44.15136 50.487358 56.749439 63.085442 69.347519 75.683517 81.945602 88.281601 94.543678 100.87968 107.14176 113.47776 119.73984 126.07584 132.45409 138.69504 145.03104 151.29312 157.62912 163.8912 170.2272 176.48927 182.82529 189.08736 195.42336 201.68544 208.02144 214.28352 220.61952 226.88161 233.21761 239.47968 245.81567 252.19392 258.43488 264.77087 271.03296 277.36896 283.63104 289.96704 296.22913 302.56512 308.82721 315.16321 321.42529 327.76129">L24,12.9230769 L24,14.7692308 L18.4615385,14.7692308 </tspan></text>
</g></g><g
       id="g372"><g
         clip-path="url(#clipPath378)"
         id="g374"><text
           id="text382"
           style="font-variant:normal;font-weight:normal;font-size:10.56000042px;font-family:'Courier 10 Pitch';-inkscape-font-specification:CourierNewPSMT;writing-mode:lr-tb;fill:#000000;fill-opacity:1;fill-rule:nonzero;stroke:none"
           transform="matrix(1,0,0,-1,75.024,461.11)"><tspan
             id="tspan380"
             y="0"
             x="0 6.336 12.71424 18.9552 25.291201 31.55328 37.889278 44.15136 50.487358 56.749439 63.085442 69.347519 75.683517 81.945602 88.281601 94.543678 100.87968 107.14176 113.47776 119.73984 126.07584 132.45409 138.69504 145.03104 151.29312 157.62912 163.8912 170.2272 176.48927 182.82529 189.08736 195.42336 201.68544 208.02144 214.28352 220.61952 226.88161 233.21761 239.47968 245.81567 252.19392 258.43488 264.77087 271.03296 277.36896 283.63104 289.96704 296.22913 302.56512 308.82721 315.16321 321.42529 327.76129 334.02335 340.35938 346.62143 352.95743 359.21951 365.55551 371.93375 378.17471 384.51071 390.7728 397.1088 403.37088 409.70688 415.96896 422.30496 428.56705 434.90305 441.16513">L18.4615385,12.9230769 Z M22.1538462,22.1538462 L22.1538462,20.3076923 </tspan></text>
</g></g><g
       id="g384"><g
         clip-path="url(#clipPath390)"
         id="g386"><text
           id="text394"
           style="font-variant:normal;font-weight:normal;font-size:10.56000042px;font-family:'Courier 10 Pitch';-inkscape-font-specification:CourierNewPSMT;writing-mode:lr-tb;fill:#000000;fill-opacity:1;fill-rule:nonzero;stroke:none"
           transform="matrix(1,0,0,-1,75.024,449.23)"><tspan
             id="tspan392"
             y="0"
             x="0 6.336 12.71424 18.9552 25.291201 31.55328 37.889278 44.15136 50.487358 56.749439 63.085442 69.347519 75.683517 81.945602 88.281601 94.543678 100.87968 107.14176 113.47776 119.73984 126.07584 132.45409 138.69504 145.03104 151.29312 157.62912 163.8912 170.2272 176.48927 182.82529 189.08736 195.42336 201.68544 208.02144 214.28352 220.61952 226.88161 233.21761 239.47968 245.81567 252.19392 258.43488 264.77087 271.03296 277.36896 283.63104 289.96704 296.22913 302.56512 308.82721 315.16321 321.42529 327.76129 334.02335 340.35938">L24,20.3076923 L24,24 L18.4615385,24 L18.4615385,22.153</tspan></text>
</g></g><g
       id="g396"><g
         clip-path="url(#clipPath402)"
         id="g398"><text
           id="text406"
           style="font-variant:normal;font-weight:normal;font-size:10.56000042px;font-family:'Courier 10 Pitch';-inkscape-font-specification:CourierNewPSMT;writing-mode:lr-tb;fill:#000000;fill-opacity:1;fill-rule:nonzero;stroke:none"
           transform="matrix(1,0,0,-1,421.75,449.23)"><tspan
             id="tspan404"
             y="0"
             x="0 6.336 12.59808 18.93408 25.312321">8462 </tspan></text>
</g></g><g
       id="g408"><g
         clip-path="url(#clipPath414)"
         id="g410"><text
           id="text418"
           style="font-variant:normal;font-weight:normal;font-size:10.56000042px;font-family:'Courier 10 Pitch';-inkscape-font-specification:CourierNewPSMT;writing-mode:lr-tb;fill:#000000;fill-opacity:1;fill-rule:nonzero;stroke:none"
           transform="matrix(1,0,0,-1,75.024,437.35)"><tspan
             id="tspan416"
             y="0"
             x="0 6.336 12.71424 18.9552 25.291201 31.55328 37.889278 44.15136 50.487358 56.749439 63.085442 69.347519 75.683517 81.945602 88.281601 94.543678 100.87968 107.14176 113.47776 119.73984 126.07584 132.45409 138.69504 145.03104 151.29312 157.62912 163.8912 170.2272 176.48927 182.82529 189.08736 195.42336 201.68544 208.02144 214.28352 220.61952 226.88161 233.21761 239.47968 245.81567 252.19392 258.43488 264.77087 271.03296 277.36896 283.63104 289.96704 296.22913 302.56512 308.82721 315.16321 321.42529 327.76129 334.02335 340.35938 346.62143 352.95743 359.21951 365.55551 371.93375 378.17471 384.51071 390.7728 397.1088 403.37088 409.70688 415.96896 422.30496 428.56705 434.90305 441.16513">L22.1538462,22.1538462 Z M16.6153846,16.6153846 L18.4615385,16.6153846 </tspan></text>
</g></g><g
       id="g420"><g
         clip-path="url(#clipPath426)"
         id="g422"><text
           id="text430"
           style="font-variant:normal;font-weight:normal;font-size:10.56000042px;font-family:'Courier 10 Pitch';-inkscape-font-specification:CourierNewPSMT;writing-mode:lr-tb;fill:#000000;fill-opacity:1;fill-rule:nonzero;stroke:none"
           transform="matrix(1,0,0,-1,75.024,425.47)"><tspan
             id="tspan428"
             y="0"
             x="0 6.336 12.71424 18.9552 25.291201 31.55328 37.889278 44.15136 50.487358 56.749439 63.085442 69.347519 75.683517 81.945602 88.281601 94.543678 100.87968 107.14176 113.47776 119.73984 126.07584 132.45409 138.69504 145.03104 151.29312 157.62912 163.8912 170.2272 176.48927 182.82529 189.08736 195.42336 201.68544 208.02144 214.28352 220.61952 226.88161 233.21761 239.47968 245.81567 252.19392 258.43488 264.77087 271.03296 277.36896 283.63104 289.96704 296.22913 302.56512 308.82721 315.16321 321.42529 327.76129 334.02335 340.35938 346.62143 352.95743 359.21951 365.55551 371.93375 378.17471 384.51071 390.7728 397.1088 403.37088 409.70688 415.96896 422.30496 428.56705">L18.4615385,18.4615385 L20.3076923,18.4615385 L20.3076923,20.3076923 </tspan></text>
</g></g><g
       id="g432"><g
         clip-path="url(#clipPath438)"
         id="g434"><text
           id="text442"
           style="font-variant:normal;font-weight:normal;font-size:10.56000042px;font-family:'Courier 10 Pitch';-inkscape-font-specification:CourierNewPSMT;writing-mode:lr-tb;fill:#000000;fill-opacity:1;fill-rule:nonzero;stroke:none"
           transform="matrix(1,0,0,-1,75.024,413.59)"><tspan
             id="tspan440"
             y="0"
             x="0 6.336 12.71424 18.9552 25.291201 31.55328 37.889278 44.15136 50.487358 56.749439 63.085442 69.347519 75.683517 81.945602 88.281601 94.543678 100.87968 107.14176 113.47776 119.73984 126.07584 132.45409 138.69504 145.03104 151.29312 157.62912 163.8912 170.2272 176.48927 182.82529 189.08736 195.42336 201.68544 208.02144 214.28352 220.61952 226.88161 233.21761 239.47968 245.81567 252.19392 258.43488 264.77087 271.03296 277.36896 283.63104 289.96704 296.22913 302.56512 308.82721 315.16321 321.42529 327.76129 334.02335 340.35938 346.62143 352.95743 359.21951 365.55551 371.93375 378.17471 384.51071">L16.6153846,20.3076923 L16.6153846,16.6153846 Z&quot;&gt;&lt;/path&gt;&lt;/svg&gt;</tspan></text>
</g></g><g
       id="g444"><g
         clip-path="url(#clipPath450)"
         id="g446" /></g></g></svg>