<svg xmlns="http://www.w3.org/2000/svg" width="18" height="18" viewBox="0 0 18 18">
    <path fill="#FFF" d="M17.709 16.757L13.53 12.58c2.634-3.142 2.326-7.8-.698-10.57-3.023-2.768-7.69-2.665-10.59.234-2.898 2.898-3 7.566-.232 10.59 2.768 3.023 7.427 3.33 10.569.697l4.168 4.168c.155.229.431.342.702.287.27-.054.482-.265.536-.536.055-.27-.058-.547-.287-.702l.01.01zM7.622 13.98c-3.442 0-6.233-2.79-6.233-6.233 0-3.442 2.791-6.233 6.233-6.233 3.443 0 6.233 2.79 6.233 6.233-.005 3.44-2.793 6.227-6.233 6.233z" opacity=".3"/>
</svg>
