<svg xmlns="http://www.w3.org/2000/svg" xmlns:xlink="http://www.w3.org/1999/xlink" width="18" height="18" viewBox="0 0 18 18">
    <defs>
        <path id="yituah1roa" d="M0 0H18V18H0z"/>
    </defs>
    <g fill="none" fill-rule="evenodd">
        <g>
            <g>
                <g transform="translate(-32 -478) translate(32 478)">
                    <mask id="s9wdhg1rmb" fill="#fff">
                        <use xlink:href="#yituah1roa"/>
                    </mask>
                    <g mask="url(#s9wdhg1rmb)">
                        <g>
                            <path stroke="#0371E2" stroke-width="1.174" d="M3.456 13.222c-.174.092-.316.234-.408.408-.126.239-.143.506-.07.745.074.24.24.45.478.577l5.515 2.915c.972.514 2.136.514 3.108 0l5.515-2.915c.174-.092.316-.234.408-.408.126-.239.143-.506.07-.745-.074-.24-.24-.45-.478-.577l-5.515-2.915c-.972-.514-2.136-.514-3.108 0l-5.515 2.915z" transform="translate(-1.565 -5.087)"/>
                            <path fill="#0371E2" d="M6.311 4.003l5.96 1.838c1.237.382 2.205 1.35 2.587 2.586l1.838 5.96c.255.827-.209 1.703-1.035 1.958-.3.092-.622.092-.922 0l-5.96-1.838c-1.237-.382-2.205-1.35-2.587-2.586L4.354 5.96c-.255-.826.209-1.702 1.035-1.957.3-.093.622-.093.922 0z" transform="translate(-1.565 -5.087) rotate(-45 10.525 10.174)"/>
                            <path fill="#0371E2" fill-rule="nonzero" d="M16.784 16.043l1.084.573c.764.404 1.056 1.351.652 2.115-.146.279-.374.506-.652.653l-5.514 2.915c-1.144.604-2.514.604-3.658 0l-5.514-2.915c-.764-.404-1.056-1.351-.652-2.115.147-.279.374-.506.652-.653l1.083-.572 1.256.663-1.79.947c-.07.037-.127.094-.164.163-.09.17-.042.376.104.49l.06.039 5.514 2.915c.75.397 1.64.422 2.408.074l.152-.074 5.515-2.915c.07-.037.126-.094.163-.163.09-.17.042-.376-.104-.49l-.06-.039-1.79-.947 1.255-.664z" transform="translate(-1.565 -5.087)"/>
                        </g>
                    </g>
                </g>
            </g>
        </g>
    </g>
</svg>
