<svg xmlns="http://www.w3.org/2000/svg" xmlns:xlink="http://www.w3.org/1999/xlink" width="18" height="18" viewBox="0 0 18 18">
    <defs>
        <path id="vkymbxpm0a" d="M0 0H18V18H0z"/>
    </defs>
    <g fill="none" fill-rule="evenodd">
        <g>
            <g>
                <g transform="translate(-59 -478) translate(59 478)">
                    <mask id="2wmr3iy1ib" fill="#fff">
                        <use xlink:href="#vkymbxpm0a"/>
                    </mask>
                    <g fill="#0371E2" fill-rule="nonzero" mask="url(#2wmr3iy1ib)">
                        <g>
                            <path d="M15.785 11.13l1.083.573c.764.404 1.056 1.351.652 2.115-.146.278-.374.506-.652.653l-5.514 2.915c-1.144.604-2.514.604-3.658 0L2.182 14.47c-.764-.404-1.056-1.351-.652-2.116.147-.278.374-.505.652-.652l1.083-.572 1.256.664-1.79.946c-.07.037-.127.094-.164.163-.088.167-.043.37.097.485l.066.044 5.515 2.915c.747.395 1.632.421 2.398.079l.162-.08 5.515-2.914c.07-.037.126-.094.163-.163.088-.167.043-.37-.097-.485l-.066-.044-1.792-.946 1.257-.664z" transform="translate(-.565 -4.087)"/>
                            <path d="M5.311 3.003l5.96 1.838c1.237.382 2.205 1.35 2.587 2.586l1.838 5.96c.255.827-.209 1.703-1.035 1.958-.3.092-.622.092-.922 0l-5.96-1.838c-1.237-.382-2.205-1.35-2.587-2.586L3.354 4.96c-.255-.826.209-1.702 1.035-1.957.3-.093.622-.093.922 0zm-.295.956c-.108-.034-.224-.034-.333 0-.268.082-.43.347-.393.617l.02.09 1.838 5.96c.265.859.91 1.544 1.744 1.862l.181.063 5.96 1.838c.11.034.225.034.334 0 .268-.083.43-.347.393-.617l-.02-.09-1.838-5.96c-.265-.86-.91-1.544-1.744-1.863l-.181-.062-5.96-1.838z" transform="translate(-.565 -4.087) rotate(-45 9.525 9.174)"/>
                            <path d="M15.784 15.043l1.084.573c.764.404 1.056 1.351.652 2.115-.146.279-.374.506-.652.653l-5.514 2.915c-1.144.604-2.514.604-3.658 0l-5.514-2.915c-.764-.404-1.056-1.351-.652-2.115.147-.279.374-.506.652-.653l1.083-.572 4.431 2.342c1.073.567 2.343.602 3.44.106l.218-.106 4.43-2.343z" transform="translate(-.565 -4.087)"/>
                        </g>
                    </g>
                </g>
            </g>
        </g>
    </g>
</svg>
