<svg xmlns="http://www.w3.org/2000/svg" id="icon-settings-policies-48" viewBox="-7 0 43 43" preserveAspectRatio="xMidYMin slice" width="100%"><g id="Page-1" stroke="none" stroke-width="1" fill="none" fill-rule="evenodd"><g id="icons-meeting_dark-icons-comerceos-policies-copy" transform="translate(0.333333, 0.000000)" fill="#FFF" fill-rule="nonzero"><path d="M25.06,9.64 L31.44,9.64 C31.384373,9.52218466 31.3100832,9.41412671 31.22,9.32 L22.08,0.71 C21.9653578,0.602323581 21.8289579,0.520483635 21.68,0.47 L21.68,6.26 C21.6854918,8.12444295 23.195557,9.63450823 25.06,9.64 L25.06,9.64 Z" id="Path"></path><path d="M25,11.1 C23.7163522,11.1 22.4852793,10.5900729 21.5776032,9.68239682 C20.6699271,8.77472075 20.16,7.54364781 20.16,6.26 L20.16,0.39 L4.72,0.39 C2.3546046,0.395513757 0.44,2.31459818 0.44,4.68 L0.44,37.32 C0.44,39.6854018 2.3546046,41.6044862 4.72,41.61 L27.27,41.61 C29.6393016,41.61 31.56,39.6893016 31.56,37.32 L31.56,11.1 L25,11.1 Z M14.75,27.82 L6.31,27.82 C5.90683213,27.82 5.58,27.4931679 5.58,27.09 C5.58,26.6868321 5.90683213,26.36 6.31,26.36 L14.75,26.36 C15.1531679,26.36 15.48,26.6868321 15.48,27.09 C15.48,27.4931679 15.1531679,27.82 14.75,27.82 Z M25.69,22.62 L6.31,22.62 C6.02693909,22.653073 5.75003937,22.5206593 5.59808669,22.2795625 C5.44613401,22.0384657 5.44613401,21.7315343 5.59808669,21.4904375 C5.75003937,21.2493407 6.02693909,21.116927 6.31,21.15 L25.69,21.15 C25.9730609,21.116927 26.2499606,21.2493407 26.4019133,21.4904375 C26.553866,21.7315343 26.553866,22.0384657 26.4019133,22.2795625 C26.2499606,22.5206593 25.9730609,22.653073 25.69,22.62 Z M25.69,17.42 L6.31,17.42 C6.02693909,17.453073 5.75003937,17.3206593 5.59808669,17.0795625 C5.44613401,16.8384657 5.44613401,16.5315343 5.59808669,16.2904375 C5.75003937,16.0493407 6.02693909,15.916927 6.31,15.95 L25.69,15.95 C25.9730609,15.916927 26.2499606,16.0493407 26.4019133,16.2904375 C26.553866,16.5315343 26.553866,16.8384657 26.4019133,17.0795625 C26.2499606,17.3206593 25.9730609,17.453073 25.69,17.42 L25.69,17.42 Z" id="Shape"></path><path d="M25.06,9.64 L31.44,9.64 C31.384373,9.52218466 31.3100832,9.41412671 31.22,9.32 L22.08,0.71 C21.9653578,0.602323581 21.8289579,0.520483635 21.68,0.47 L21.68,6.26 C21.6854918,8.12444295 23.195557,9.63450823 25.06,9.64 L25.06,9.64 Z" id="Path"></path><path d="M25,11.1 C23.7163522,11.1 22.4852793,10.5900729 21.5776032,9.68239682 C20.6699271,8.77472075 20.16,7.54364781 20.16,6.26 L20.16,0.39 L4.72,0.39 C2.3546046,0.395513757 0.44,2.31459818 0.44,4.68 L0.44,37.32 C0.44,39.6854018 2.3546046,41.6044862 4.72,41.61 L27.27,41.61 C29.6393016,41.61 31.56,39.6893016 31.56,37.32 L31.56,11.1 L25,11.1 Z M14.75,27.82 L6.31,27.82 C5.90683213,27.82 5.58,27.4931679 5.58,27.09 C5.58,26.6868321 5.90683213,26.36 6.31,26.36 L14.75,26.36 C15.1531679,26.36 15.48,26.6868321 15.48,27.09 C15.48,27.4931679 15.1531679,27.82 14.75,27.82 Z M25.69,22.62 L6.31,22.62 C6.02693909,22.653073 5.75003937,22.5206593 5.59808669,22.2795625 C5.44613401,22.0384657 5.44613401,21.7315343 5.59808669,21.4904375 C5.75003937,21.2493407 6.02693909,21.116927 6.31,21.15 L25.69,21.15 C25.9730609,21.116927 26.2499606,21.2493407 26.4019133,21.4904375 C26.553866,21.7315343 26.553866,22.0384657 26.4019133,22.2795625 C26.2499606,22.5206593 25.9730609,22.653073 25.69,22.62 Z M25.69,17.42 L6.31,17.42 C6.02693909,17.453073 5.75003937,17.3206593 5.59808669,17.0795625 C5.44613401,16.8384657 5.44613401,16.5315343 5.59808669,16.2904375 C5.75003937,16.0493407 6.02693909,15.916927 6.31,15.95 L25.69,15.95 C25.9730609,15.916927 26.2499606,16.0493407 26.4019133,16.2904375 C26.553866,16.5315343 26.553866,16.8384657 26.4019133,17.0795625 C26.2499606,17.3206593 25.9730609,17.453073 25.69,17.42 L25.69,17.42 Z" id="Shape"></path></g></g>
</svg>