<svg xmlns="http://www.w3.org/2000/svg" id="icon-settings-wallpaper-48" viewBox="-1 -1 46 46" preserveAspectRatio="xMidYMin slice" width="100%"><g id="Page-1" stroke="none" stroke-width="1" fill="none" fill-rule="evenodd"><g id="icons-meeting_dark-icons-comerceos-wallpaper-copy" transform="translate(0.666667, 0.000000)" fill="#FFF" fill-rule="nonzero"><path d="M43.7301307,22 C43.7244938,18.5063208 40.8936792,15.6755062 37.4,15.67 L37.28,15.67 L37.37,15.58 C39.7537584,13.0940135 39.7124533,9.15836443 37.2770445,6.72295555 C34.8416356,4.28754666 30.9059865,4.24624164 28.42,6.63 L28.33,6.72 L28.33,6.6 C28.33,3.10403753 25.4959625,0.27 22,0.27 C18.5040375,0.27 15.67,3.10403753 15.67,6.6 L15.67,6.72 L15.58,6.63 C13.0947186,4.15852574 9.07647426,4.16971863 6.605,6.655 C4.13352574,9.14028137 4.14471863,13.1585257 6.63,15.63 L6.72,15.72 L6.6,15.72 C3.10403753,15.72 0.27,18.5540375 0.27,22.05 C0.27,25.5459625 3.10403753,28.38 6.6,28.38 L6.72,28.38 L6.63,28.47 C4.17571895,30.9485711 4.17571895,34.9414289 6.63,37.42 C7.82033109,38.6193798 9.44020709,39.2939503 11.13,39.2939503 C12.8197929,39.2939503 14.4396689,38.6193798 15.63,37.42 L15.72,37.33 L15.72,37.45 C15.72,40.9459625 18.5540375,43.78 22.05,43.78 C25.5459625,43.78 28.38,40.9459625 28.38,37.45 L28.38,37.33 L28.47,37.42 C30.9559865,39.8037584 34.8916356,39.7624533 37.3270445,37.3270445 C39.7624533,34.8916356 39.8037584,30.9559865 37.42,28.47 L37.33,28.38 L37.45,28.38 C40.9436816,28.3470058 43.7521989,25.4937669 43.7301307,22 L43.7301307,22 Z M29.12,7.34 C30.4668913,5.99310865 32.4300281,5.46708767 34.2699158,5.96008409 C36.1098036,6.4530805 37.5469195,7.89019642 38.0399159,9.73008416 C38.5329123,11.5699719 38.0068913,13.5331087 36.66,14.88 L35.87,15.67 L31.27,15.67 C28.6726694,15.6709702 26.3386361,17.2560522 25.38,19.67 C24.9564316,19.3797389 24.5902611,19.0135684 24.3,18.59 C26.7176011,17.6359226 28.3046144,15.2990455 28.3,12.7 L28.3,8.1 L29.12,7.34 Z M34.87,16.67 L32.32,19.21 C30.7245572,20.8105245 28.2850802,21.2130785 26.26,20.21 C27.0100654,18.0883441 29.0097091,16.6645977 31.26,16.65 L34.87,16.67 Z M23.27,25.07 C22.4322003,24.8967101 21.5677997,24.8967101 20.73,25.07 C20.4950129,24.7097673 20.2235836,24.3746694 19.92,24.07 C19.6148645,23.7669352 19.2798219,23.4955507 18.92,23.26 C19.0932899,22.4222003 19.0932899,21.5577997 18.92,20.72 C19.2798219,20.4844493 19.6148645,20.2130648 19.92,19.91 C20.2235836,19.6053306 20.4950129,19.2702327 20.73,18.91 C21.5677997,19.0832899 22.4322003,19.0832899 23.27,18.91 C23.5049871,19.2702327 23.7764164,19.6053306 24.08,19.91 C24.3851355,20.2130648 24.7201781,20.4844493 25.08,20.72 C24.9067101,21.5577997 24.9067101,22.4222003 25.08,23.26 C24.7201781,23.4955507 24.3851355,23.7669352 24.08,24.07 C23.7764164,24.3746694 23.5049871,24.7097673 23.27,25.07 L23.27,25.07 Z M24.79,11.68 L27.33,9.13 L27.33,12.73 C27.3213416,14.9822062 25.8954091,16.9849204 23.77,17.73 C22.7895243,15.7015235 23.1986446,13.2748786 24.79,11.68 Z M16.67,6.6 C16.67,4.69577437 17.6858922,2.9361973 19.335,1.98408447 C20.9841077,1.03197163 23.0158923,1.03197163 24.665,1.98408447 C26.3141078,2.9361973 27.33,4.69577437 27.33,6.6 L27.33,7.72 L24.08,11 C22.246871,12.8422423 21.7236943,15.6166643 22.76,18 C22.2589474,18.1066667 21.7410526,18.1066667 21.24,18 C22.2763057,15.6166643 21.753129,12.8422423 19.92,11 L16.67,7.75 L16.67,6.6 Z M16.67,9.13 L19.21,11.68 C20.7945647,13.2795391 21.1955738,15.7056446 20.21,17.73 C18.0845909,16.9849204 16.6586584,14.9822062 16.65,12.73 L16.67,9.13 Z M7.34,14.88 C5.2578866,12.7978865 5.25788665,9.42211358 7.34000011,7.34000011 C9.42211358,5.25788665 12.7978865,5.2578866 14.88,7.34 L15.67,8.13 L15.67,12.73 C15.6653856,15.3290455 17.2523989,17.6659226 19.67,18.62 C19.3797389,19.0435684 19.0135684,19.4097389 18.59,19.7 C17.6313639,17.2860522 15.2973306,15.7009702 12.7,15.7 L8.1,15.7 L7.34,14.88 Z M17.74,20.23 C15.7149198,21.2330785 13.2754428,20.8305245 11.68,19.23 L9.13,16.69 L12.73,16.69 C14.9787969,16.6973675 16.9819866,18.1127949 17.74,20.23 L17.74,20.23 Z M6.6,27.33 C3.65632228,27.33 1.27,24.9436777 1.27,22 C1.27,19.0563223 3.65632228,16.67 6.6,16.67 L7.72,16.67 L11,19.92 C12.1862373,21.1103747 13.7994918,21.7765624 15.48,21.77 C16.3473222,21.7667351 17.2048417,21.5863838 18,21.24 C18.1066667,21.7410526 18.1066667,22.2589474 18,22.76 C17.2017515,22.4122813 16.3406924,22.2319013 15.47,22.23 C13.7929549,22.2261092 12.1837952,22.8920925 11,24.08 L7.75,27.33 L6.6,27.33 Z M17.74,23.77 C16.9899346,25.8916559 14.9902909,27.3154023 12.74,27.33 L9.14,27.33 L11.69,24.79 C13.2854428,23.1894755 15.7249198,22.7869215 17.75,23.79 L17.74,23.77 Z M14.88,36.66 C12.7978865,38.7421134 9.42211358,38.7421133 7.34000013,36.6599999 C5.25788667,34.5778864 5.25788661,31.2021135 7.34,29.12 L8.13,28.33 L12.73,28.33 C15.3273306,28.3290298 17.6613639,26.7439478 18.62,24.33 C18.8321334,24.473758 19.029736,24.6378687 19.21,24.82 C19.3897893,25.002397 19.5537152,25.1997772 19.7,25.41 C17.2823989,26.3640774 15.6953856,28.7009545 15.7,31.3 L15.7,35.9 L14.88,36.66 Z M19.21,32.32 L16.67,34.87 L16.67,31.27 C16.6786584,29.0177938 18.1045909,27.0150796 20.23,26.27 C21.2136192,28.2980273 20.8041778,30.7265765 19.21,32.32 L19.21,32.32 Z M27.33,37.4 C27.33,40.3436777 24.9436777,42.73 22,42.73 C19.0563223,42.73 16.67,40.3436777 16.67,37.4 L16.67,36.28 L19.92,33 C21.753129,31.1577577 22.2763057,28.3833357 21.24,26 C21.7410526,25.8933333 22.2589474,25.8933333 22.76,26 C21.7236943,28.3833357 22.246871,31.1577577 24.08,33 L27.33,36.25 L27.33,37.4 Z M27.33,34.87 L24.79,32.32 C23.2251635,30.7307805 22.8251718,28.3308303 23.79,26.32 C25.9154091,27.0650796 27.3413416,29.0677938 27.35,31.32 L27.33,34.87 Z M36.66,29.12 C38.0068914,30.4668913 38.5329124,32.4300281 38.0399159,34.2699159 C37.5469195,36.1098036 36.1098036,37.5469195 34.2699159,38.0399159 C32.4300281,38.5329124 30.4668913,38.0068914 29.12,36.66 L28.33,35.87 L28.33,31.27 C28.3346144,28.6709545 26.7476011,26.3340774 24.33,25.38 C24.4762848,25.1697772 24.6402107,24.972397 24.82,24.79 C25.000264,24.6078687 25.1978666,24.443758 25.41,24.3 C26.3686361,26.7139478 28.7026694,28.2990298 31.3,28.3 L35.9,28.3 L36.66,29.12 Z M26.26,23.77 C28.2850802,22.7669215 30.7245572,23.1694755 32.32,24.77 L34.87,27.31 L31.27,27.31 C29.0212031,27.3026325 27.0180134,25.8872051 26.26,23.77 L26.26,23.77 Z M33.03,24.08 C31.8437627,22.8896253 30.2305082,22.2234376 28.55,22.23 C27.6793076,22.2319013 26.8182485,22.4122813 26.02,22.76 C25.9133333,22.2589474 25.9133333,21.7410526 26.02,21.24 C26.8182485,21.5877187 27.6793076,21.7680987 28.55,21.77 C30.2201148,21.7685682 31.8210956,21.1029919 33,19.92 L36.25,16.67 L37.4,16.67 C39.3042256,16.67 41.0638027,17.6858922 42.0159155,19.335 C42.9680284,20.9841077 42.9680284,23.0158923 42.0159155,24.665 C41.0638027,26.3141078 39.3042256,27.33 37.4,27.33 L36.28,27.33 L33.03,24.08 Z" id="Shape"></path><path d="M43.7301307,22 C43.7244938,18.5063208 40.8936792,15.6755062 37.4,15.67 L37.28,15.67 L37.37,15.58 C39.7537584,13.0940135 39.7124533,9.15836443 37.2770445,6.72295555 C34.8416356,4.28754666 30.9059865,4.24624164 28.42,6.63 L28.33,6.72 L28.33,6.6 C28.33,3.10403753 25.4959625,0.27 22,0.27 C18.5040375,0.27 15.67,3.10403753 15.67,6.6 L15.67,6.72 L15.58,6.63 C13.0947186,4.15852574 9.07647426,4.16971863 6.605,6.655 C4.13352574,9.14028137 4.14471863,13.1585257 6.63,15.63 L6.72,15.72 L6.6,15.72 C3.10403753,15.72 0.27,18.5540375 0.27,22.05 C0.27,25.5459625 3.10403753,28.38 6.6,28.38 L6.72,28.38 L6.63,28.47 C4.17571895,30.9485711 4.17571895,34.9414289 6.63,37.42 C7.82033109,38.6193798 9.44020709,39.2939503 11.13,39.2939503 C12.8197929,39.2939503 14.4396689,38.6193798 15.63,37.42 L15.72,37.33 L15.72,37.45 C15.72,40.9459625 18.5540375,43.78 22.05,43.78 C25.5459625,43.78 28.38,40.9459625 28.38,37.45 L28.38,37.33 L28.47,37.42 C30.9559865,39.8037584 34.8916356,39.7624533 37.3270445,37.3270445 C39.7624533,34.8916356 39.8037584,30.9559865 37.42,28.47 L37.33,28.38 L37.45,28.38 C40.9436816,28.3470058 43.7521989,25.4937669 43.7301307,22 L43.7301307,22 Z M29.12,7.34 C30.4668913,5.99310865 32.4300281,5.46708767 34.2699158,5.96008409 C36.1098036,6.4530805 37.5469195,7.89019642 38.0399159,9.73008416 C38.5329123,11.5699719 38.0068913,13.5331087 36.66,14.88 L35.87,15.67 L31.27,15.67 C28.6726694,15.6709702 26.3386361,17.2560522 25.38,19.67 C24.9564316,19.3797389 24.5902611,19.0135684 24.3,18.59 C26.7176011,17.6359226 28.3046144,15.2990455 28.3,12.7 L28.3,8.1 L29.12,7.34 Z M34.87,16.67 L32.32,19.21 C30.7245572,20.8105245 28.2850802,21.2130785 26.26,20.21 C27.0100654,18.0883441 29.0097091,16.6645977 31.26,16.65 L34.87,16.67 Z M23.27,25.07 C22.4322003,24.8967101 21.5677997,24.8967101 20.73,25.07 C20.4950129,24.7097673 20.2235836,24.3746694 19.92,24.07 C19.6148645,23.7669352 19.2798219,23.4955507 18.92,23.26 C19.0932899,22.4222003 19.0932899,21.5577997 18.92,20.72 C19.2798219,20.4844493 19.6148645,20.2130648 19.92,19.91 C20.2235836,19.6053306 20.4950129,19.2702327 20.73,18.91 C21.5677997,19.0832899 22.4322003,19.0832899 23.27,18.91 C23.5049871,19.2702327 23.7764164,19.6053306 24.08,19.91 C24.3851355,20.2130648 24.7201781,20.4844493 25.08,20.72 C24.9067101,21.5577997 24.9067101,22.4222003 25.08,23.26 C24.7201781,23.4955507 24.3851355,23.7669352 24.08,24.07 C23.7764164,24.3746694 23.5049871,24.7097673 23.27,25.07 L23.27,25.07 Z M24.79,11.68 L27.33,9.13 L27.33,12.73 C27.3213416,14.9822062 25.8954091,16.9849204 23.77,17.73 C22.7895243,15.7015235 23.1986446,13.2748786 24.79,11.68 Z M16.67,6.6 C16.67,4.69577437 17.6858922,2.9361973 19.335,1.98408447 C20.9841077,1.03197163 23.0158923,1.03197163 24.665,1.98408447 C26.3141078,2.9361973 27.33,4.69577437 27.33,6.6 L27.33,7.72 L24.08,11 C22.246871,12.8422423 21.7236943,15.6166643 22.76,18 C22.2589474,18.1066667 21.7410526,18.1066667 21.24,18 C22.2763057,15.6166643 21.753129,12.8422423 19.92,11 L16.67,7.75 L16.67,6.6 Z M16.67,9.13 L19.21,11.68 C20.7945647,13.2795391 21.1955738,15.7056446 20.21,17.73 C18.0845909,16.9849204 16.6586584,14.9822062 16.65,12.73 L16.67,9.13 Z M7.34,14.88 C5.2578866,12.7978865 5.25788665,9.42211358 7.34000011,7.34000011 C9.42211358,5.25788665 12.7978865,5.2578866 14.88,7.34 L15.67,8.13 L15.67,12.73 C15.6653856,15.3290455 17.2523989,17.6659226 19.67,18.62 C19.3797389,19.0435684 19.0135684,19.4097389 18.59,19.7 C17.6313639,17.2860522 15.2973306,15.7009702 12.7,15.7 L8.1,15.7 L7.34,14.88 Z M17.74,20.23 C15.7149198,21.2330785 13.2754428,20.8305245 11.68,19.23 L9.13,16.69 L12.73,16.69 C14.9787969,16.6973675 16.9819866,18.1127949 17.74,20.23 L17.74,20.23 Z M6.6,27.33 C3.65632228,27.33 1.27,24.9436777 1.27,22 C1.27,19.0563223 3.65632228,16.67 6.6,16.67 L7.72,16.67 L11,19.92 C12.1862373,21.1103747 13.7994918,21.7765624 15.48,21.77 C16.3473222,21.7667351 17.2048417,21.5863838 18,21.24 C18.1066667,21.7410526 18.1066667,22.2589474 18,22.76 C17.2017515,22.4122813 16.3406924,22.2319013 15.47,22.23 C13.7929549,22.2261092 12.1837952,22.8920925 11,24.08 L7.75,27.33 L6.6,27.33 Z M17.74,23.77 C16.9899346,25.8916559 14.9902909,27.3154023 12.74,27.33 L9.14,27.33 L11.69,24.79 C13.2854428,23.1894755 15.7249198,22.7869215 17.75,23.79 L17.74,23.77 Z M14.88,36.66 C12.7978865,38.7421134 9.42211358,38.7421133 7.34000013,36.6599999 C5.25788667,34.5778864 5.25788661,31.2021135 7.34,29.12 L8.13,28.33 L12.73,28.33 C15.3273306,28.3290298 17.6613639,26.7439478 18.62,24.33 C18.8321334,24.473758 19.029736,24.6378687 19.21,24.82 C19.3897893,25.002397 19.5537152,25.1997772 19.7,25.41 C17.2823989,26.3640774 15.6953856,28.7009545 15.7,31.3 L15.7,35.9 L14.88,36.66 Z M19.21,32.32 L16.67,34.87 L16.67,31.27 C16.6786584,29.0177938 18.1045909,27.0150796 20.23,26.27 C21.2136192,28.2980273 20.8041778,30.7265765 19.21,32.32 L19.21,32.32 Z M27.33,37.4 C27.33,40.3436777 24.9436777,42.73 22,42.73 C19.0563223,42.73 16.67,40.3436777 16.67,37.4 L16.67,36.28 L19.92,33 C21.753129,31.1577577 22.2763057,28.3833357 21.24,26 C21.7410526,25.8933333 22.2589474,25.8933333 22.76,26 C21.7236943,28.3833357 22.246871,31.1577577 24.08,33 L27.33,36.25 L27.33,37.4 Z M27.33,34.87 L24.79,32.32 C23.2251635,30.7307805 22.8251718,28.3308303 23.79,26.32 C25.9154091,27.0650796 27.3413416,29.0677938 27.35,31.32 L27.33,34.87 Z M36.66,29.12 C38.0068914,30.4668913 38.5329124,32.4300281 38.0399159,34.2699159 C37.5469195,36.1098036 36.1098036,37.5469195 34.2699159,38.0399159 C32.4300281,38.5329124 30.4668913,38.0068914 29.12,36.66 L28.33,35.87 L28.33,31.27 C28.3346144,28.6709545 26.7476011,26.3340774 24.33,25.38 C24.4762848,25.1697772 24.6402107,24.972397 24.82,24.79 C25.000264,24.6078687 25.1978666,24.443758 25.41,24.3 C26.3686361,26.7139478 28.7026694,28.2990298 31.3,28.3 L35.9,28.3 L36.66,29.12 Z M26.26,23.77 C28.2850802,22.7669215 30.7245572,23.1694755 32.32,24.77 L34.87,27.31 L31.27,27.31 C29.0212031,27.3026325 27.0180134,25.8872051 26.26,23.77 L26.26,23.77 Z M33.03,24.08 C31.8437627,22.8896253 30.2305082,22.2234376 28.55,22.23 C27.6793076,22.2319013 26.8182485,22.4122813 26.02,22.76 C25.9133333,22.2589474 25.9133333,21.7410526 26.02,21.24 C26.8182485,21.5877187 27.6793076,21.7680987 28.55,21.77 C30.2201148,21.7685682 31.8210956,21.1029919 33,19.92 L36.25,16.67 L37.4,16.67 C39.3042256,16.67 41.0638027,17.6858922 42.0159155,19.335 C42.9680284,20.9841077 42.9680284,23.0158923 42.0159155,24.665 C41.0638027,26.3141078 39.3042256,27.33 37.4,27.33 L36.28,27.33 L33.03,24.08 Z" id="Shape"></path></g></g></svg>