<svg xmlns="http://www.w3.org/2000/svg" id="icon-settings-appearance-48" viewBox="0 -2 42 42" preserveAspectRatio="xMidYMin slice" width="100%"><g id="Page-1" stroke="none" stroke-width="1" fill="none" fill-rule="evenodd"><g id="icons-meeting_dark-icons-comerceos-appearance-copy" fill="#FFF" fill-rule="nonzero"><circle id="Oval" cx="25.56" cy="9.75" r="3.59"></circle><path d="M37,0.72 L5,0.72 C2.23857625,0.72 0,2.95857625 0,5.72 L0,30.3 C0,31.6260824 0.526784202,32.897852 1.46446609,33.8355339 C2.40214799,34.7732158 3.67391755,35.3 5,35.3 L37,35.3 C39.7614237,35.3 42,33.0614237 42,30.3 L42,5.7 C41.9889855,2.94638995 39.7536321,0.72 37,0.72 Z M5,1.72 L37,1.72 C39.209139,1.72 41,3.510861 41,5.72 L41,29.22 L33.32,21.54 C32.8824495,21.0984701 32.2866101,20.8500838 31.665,20.8500838 C31.0433899,20.8500838 30.4475505,21.0984701 30.01,21.54 L27.39,24.15 C26.9507356,24.5921296 26.353243,24.8407577 25.73,24.8407577 C25.106757,24.8407577 24.5092644,24.5921296 24.07,24.15 L17.07,17.15 C16.6307356,16.7078704 16.033243,16.4592423 15.41,16.4592423 C14.786757,16.4592423 14.1892644,16.7078704 13.75,17.15 L1,29.8 L1,5.7 C1.01100676,3.49867549 2.79864798,1.72 5,1.72 Z" id="Shape"></path><circle id="Oval" cx="25.56" cy="9.75" r="3.59"></circle><path d="M37,0.72 L5,0.72 C2.23857625,0.72 0,2.95857625 0,5.72 L0,30.3 C0,31.6260824 0.526784202,32.897852 1.46446609,33.8355339 C2.40214799,34.7732158 3.67391755,35.3 5,35.3 L37,35.3 C39.7614237,35.3 42,33.0614237 42,30.3 L42,5.7 C41.9889855,2.94638995 39.7536321,0.72 37,0.72 Z M5,1.72 L37,1.72 C39.209139,1.72 41,3.510861 41,5.72 L41,29.22 L33.32,21.54 C32.8824495,21.0984701 32.2866101,20.8500838 31.665,20.8500838 C31.0433899,20.8500838 30.4475505,21.0984701 30.01,21.54 L27.39,24.15 C26.9507356,24.5921296 26.353243,24.8407577 25.73,24.8407577 C25.106757,24.8407577 24.5092644,24.5921296 24.07,24.15 L17.07,17.15 C16.6307356,16.7078704 16.033243,16.4592423 15.41,16.4592423 C14.786757,16.4592423 14.1892644,16.7078704 13.75,17.15 L1,29.8 L1,5.7 C1.01100676,3.49867549 2.79864798,1.72 5,1.72 Z" id="Shape"></path></g></g>
</svg>