<svg xmlns="http://www.w3.org/2000/svg" id="icon-settings-business-detail-48" viewBox="0 -2 44 44" preserveAspectRatio="xMidYMin slice" width="100%"><g id="Page-1" stroke="none" stroke-width="1" fill="none" fill-rule="evenodd"><g id="icons-meeting_light-icons-comerceos-business-details" transform="translate(0.666667, 0.000000)" fill="#FFF" fill-rule="nonzero"><path d="M27.84,5.86 L27.84,4.49 C27.8400113,4.1753042 27.7143185,3.87364111 27.490858,3.65205847 C27.2673975,3.43047582 26.9646845,3.30733309 26.65,3.31 L15.35,3.31 C15.0353155,3.30733309 14.7326025,3.43047582 14.509142,3.65205847 C14.2856815,3.87364111 14.1599887,4.1753042 14.16,4.49 L14.16,5.86 C14.1600375,6.25929469 13.8392572,6.58453021 13.44,6.59 L12.52,6.59 C12.1168321,6.59 11.79,6.26316787 11.79,5.86 L11.79,4.49 C11.7955119,2.52777266 13.3877649,0.94 15.35,0.94 L26.65,0.94 C28.6122351,0.94 30.2044881,2.52777266 30.21,4.49 L30.21,5.86 C30.21,6.26316787 29.8831679,6.59 29.48,6.59 L28.57,6.59 C28.376392,6.59 28.1907136,6.51308951 28.053812,6.37618795 C27.9169105,6.23928639 27.84,6.05360804 27.84,5.86 L27.84,5.86 Z" id="Path"></path><path d="M2.93,18.77 C14.8936499,20.6449707 27.0763501,20.6449707 39.04,18.77 L39.46,18.7 C40.9351345,18.4712126 42.0176366,17.1926669 42.0002124,15.7 L42.0002124,10.1 C41.9517041,8.92578166 40.9852107,7.99900721 39.81,7.9999992 L2.19,7.9999992 C0.999756575,7.99968975 0.0271744679,8.95006679 -0.000212417579,10.14 L-0.000212417579,15.74 C-0.0176365667,17.2326669 1.06486546,18.5112126 2.54,18.74 L2.93,18.77 Z" id="Path"></path><path d="M39.31,20.53 C34.4518367,21.3816891 29.5396453,21.8896164 24.61,22.05 C24.1927933,22.0684751 23.84603,22.3776375 23.78,22.79 C23.6325913,24.1875473 22.4013685,25.2150426 21,25.11 C20.3187539,25.1824878 19.6368776,24.9788948 19.1068972,24.5447619 C18.5769167,24.110629 18.2430578,23.4821835 18.18,22.8 C18.1087047,22.3769941 17.748772,22.0630993 17.32,22.05 C12.4007065,21.8835837 7.49891153,21.3756949 2.65,20.53 L1,20.27 C0.747294572,20.2385238 0.493210844,20.3168061 0.302035509,20.4850404 C0.110860174,20.6532746 0.000908580621,20.8953434 -1.64171242e-05,21.15 L-1.64171242e-05,33.15 C-0.00266787601,33.9650296 0.319920836,34.7474471 0.896236856,35.3237631 C1.47255288,35.9000792 2.25497043,36.2226679 3.07,36.2200172 L38.93,36.2200172 C40.6122405,36.2255783 41.9835166,34.872169 42,33.19 L42,21.19 C41.9990914,20.9353434 41.8891398,20.6932746 41.6979645,20.5250404 C41.5067892,20.3568061 41.2527054,20.2785238 41,20.31 L39.31,20.53 Z" id="Path"></path><path d="M27.84,5.86 L27.84,4.49 C27.8400113,4.1753042 27.7143185,3.87364111 27.490858,3.65205847 C27.2673975,3.43047582 26.9646845,3.30733309 26.65,3.31 L15.35,3.31 C15.0353155,3.30733309 14.7326025,3.43047582 14.509142,3.65205847 C14.2856815,3.87364111 14.1599887,4.1753042 14.16,4.49 L14.16,5.86 C14.1600375,6.25929469 13.8392572,6.58453021 13.44,6.59 L12.52,6.59 C12.1168321,6.59 11.79,6.26316787 11.79,5.86 L11.79,4.49 C11.7955119,2.52777266 13.3877649,0.94 15.35,0.94 L26.65,0.94 C28.6122351,0.94 30.2044881,2.52777266 30.21,4.49 L30.21,5.86 C30.21,6.26316787 29.8831679,6.59 29.48,6.59 L28.57,6.59 C28.376392,6.59 28.1907136,6.51308951 28.053812,6.37618795 C27.9169105,6.23928639 27.84,6.05360804 27.84,5.86 L27.84,5.86 Z" id="Path"></path><path d="M2.93,18.77 C14.8936499,20.6449707 27.0763501,20.6449707 39.04,18.77 L39.46,18.7 C40.9351345,18.4712126 42.0176366,17.1926669 42.0002124,15.7 L42.0002124,10.1 C41.9517041,8.92578166 40.9852107,7.99900721 39.81,7.9999992 L2.19,7.9999992 C0.999756575,7.99968975 0.0271744679,8.95006679 -0.000212417579,10.14 L-0.000212417579,15.74 C-0.0176365667,17.2326669 1.06486546,18.5112126 2.54,18.74 L2.93,18.77 Z" id="Path"></path><path d="M39.31,20.53 C34.4518367,21.3816891 29.5396453,21.8896164 24.61,22.05 C24.1927933,22.0684751 23.84603,22.3776375 23.78,22.79 C23.6325913,24.1875473 22.4013685,25.2150426 21,25.11 C20.3187539,25.1824878 19.6368776,24.9788948 19.1068972,24.5447619 C18.5769167,24.110629 18.2430578,23.4821835 18.18,22.8 C18.1087047,22.3769941 17.748772,22.0630993 17.32,22.05 C12.4007065,21.8835837 7.49891153,21.3756949 2.65,20.53 L1,20.27 C0.747294572,20.2385238 0.493210844,20.3168061 0.302035509,20.4850404 C0.110860174,20.6532746 0.000908580621,20.8953434 -1.64171242e-05,21.15 L-1.64171242e-05,33.15 C-0.00266787601,33.9650296 0.319920836,34.7474471 0.896236856,35.3237631 C1.47255288,35.9000792 2.25497043,36.2226679 3.07,36.2200172 L38.93,36.2200172 C40.6122405,36.2255783 41.9835166,34.872169 42,33.19 L42,21.19 C41.9990914,20.9353434 41.8891398,20.6932746 41.6979645,20.5250404 C41.5067892,20.3568061 41.2527054,20.2785238 41,20.31 L39.31,20.53 Z" id="Path"></path></g></g>
</svg>