<svg xmlns="http://www.w3.org/2000/svg" id="icon-settings-employee-48" viewBox="0 0 44 44" preserveAspectRatio="xMidYMin slice" width="100%"><g id="Page-1" stroke="none" stroke-width="1" fill="none" fill-rule="evenodd"><g id="icons-meeting_dark-icons-comerceos-employee" transform="translate(-1.000000, 0.000000)" fill="#FFF" fill-rule="nonzero"><path d="M2.2,43.5001088 C1.86072296,43.504584 1.53562396,43.3641191 1.30643169,43.1139175 C1.07723941,42.863716 0.9657531,42.5275753 1,42.19 C1.17,40.45 1.72,37.43 3.47,35.83 C6.03,33.51 7.89,33.27 9.98,32.34 C12.07,31.41 14.86,31.88 16.03,30.48 C16.9,29.48 17.03,27.18 16.97,26.15 C16.9666362,25.8283004 16.8331617,25.5216699 16.6,25.3 C15.948162,24.6364273 15.5881903,23.7400978 15.6,22.81 C15.5309918,21.6976897 15.2950171,20.602093 14.9,19.56 C14.67,19.33 13.97,18.86 13.97,18.17 C13.97,17.48 13.28,15.84 13.28,15.38 C13.28,14.92 13.04,13.98 13.28,13.52 C13.4759428,13.3637304 13.719375,13.2790583 13.97,13.28 C13.75,12.61 13.52,10.82 13.3,9.66 C13.2906936,9.59700854 13.2906936,9.53299146 13.3,9.47 C13.1734643,8.42046681 13.1734643,7.35953319 13.3,6.31 C13.467248,5.59615194 13.7016246,4.89971865 14,4.23 C14.1986532,3.86093952 14.580943,3.62774277 15,3.62 C15.200159,3.61227663 15.398475,3.57866375 15.59,3.52 L17,2.13 C17.8309653,1.57784962 18.7939375,1.25685886 19.79,1.2 C20.48,1.2 21.18,0.5 22.57,0.5 C23.785674,0.561859241 24.9747453,0.878717787 26.06,1.43 C26.8753028,1.81318208 27.7305082,2.10495804 28.61,2.3 C28.7695881,2.33888304 28.9193984,2.41038342 29.05,2.51 C29.486852,2.87911903 29.88552,3.29118768 30.24,3.74 C30.3648116,3.86446412 30.4545075,4.01970705 30.5,4.19 C30.7573323,4.72899588 30.9810925,5.28338688 31.17,5.85 C31.4133677,7.30992724 31.4133677,8.80007276 31.17,10.26 C30.94,11.89 30.48,13.75 30.48,13.75 C30.6728442,13.7305507 30.8671558,13.7305507 31.06,13.75 C31.47,13.86 31.52,14.26 31.41,15.18 C31.3,16.1 30.71,17.74 30.71,17.97 C30.71,18.2 30.71,19.13 30.24,19.37 C30.01,19.6 29.55,19.6 29.31,20.06 C29.07,20.52 28.85,23.32 28.62,23.78 C28.321135,24.4148374 27.9485708,25.0122826 27.51,25.56 C27.326913,25.7634109 27.2238676,26.0263544 27.22,26.3 C27.22,27.68 27.34,30.36 28.39,30.99 C29.44,31.62 31.14,31.91 33.39,32.14 L33.53,32.14 C35.0485584,32.458281 36.5112626,33.000897 37.87,33.75 C39.273015,34.332521 40.4828407,35.2996882 41.36,36.54 C42.5006626,38.1562437 43.0770418,40.1032807 43,42.08 C43.0385058,42.7820169 42.5355842,43.3976623 41.84,43.5001088 L2.2,43.5001088 Z" id="Path"></path></g></g>
</svg>