<svg xmlns="http://www.w3.org/2000/svg" id="icon-apps-settings" viewBox="0 0 32 32"><path fill="#FFF" d="M31.8,15.3L29.9,15c-0.1,0-0.2-0.1-0.3-0.3l-0.1-1c0-0.1,0.1-0.3,0.2-0.3l1.7-0.8c0.1-0.1,0.2-0.2,0.1-0.3 l-0.2-0.9c0-0.1-0.2-0.2-0.3-0.2l-1.9,0.2c-0.1,0-0.3-0.1-0.3-0.2l-0.4-0.9c0-0.1,0-0.3,0.1-0.4L30,8.7c0.1-0.1,0.1-0.2,0.1-0.3 l-0.5-0.8c-0.1-0.1-0.2-0.2-0.3-0.1l-1.8,0.7c-0.1,0-0.3,0-0.3-0.1l-0.6-0.8c-0.1-0.1-0.1-0.3,0-0.4l1.1-1.5c0.1-0.1,0.1-0.3,0-0.3 L27,4.4c-0.1-0.1-0.2-0.1-0.3,0l-1.6,1.1c-0.1,0.1-0.3,0.1-0.4,0l-0.8-0.6c-0.1-0.1-0.1-0.2-0.1-0.3l0.7-1.8c0-0.1,0-0.3-0.1-0.3 L23.6,2c-0.1-0.1-0.3,0-0.3,0.1l-1.2,1.5c-0.1,0.1-0.2,0.1-0.4,0.1l-0.9-0.4c-0.1,0-0.2-0.2-0.2-0.3l0.2-1.9c0-0.1-0.1-0.3-0.2-0.3 l-0.9-0.2c-0.1,0-0.3,0-0.3,0.1l-0.8,1.7c-0.1,0.1-0.2,0.2-0.3,0.2l-1-0.1c-0.1,0-0.2-0.1-0.3-0.3l-0.3-1.9c0-0.1-0.1-0.2-0.3-0.2 h-0.9c-0.1,0-0.2,0.1-0.3,0.2L15,2.1c0,0.1-0.1,0.2-0.3,0.3l-1,0.1c-0.1,0-0.3-0.1-0.3-0.2l-0.8-1.7c-0.1-0.1-0.2-0.2-0.3-0.1 l-0.9,0.2c-0.1,0-0.2,0.2-0.2,0.3l0.2,1.9c0,0.1-0.1,0.3-0.2,0.3l-0.9,0.4c-0.1,0-0.3,0-0.4-0.1L8.7,2c0-0.1-0.2-0.1-0.3-0.1 L7.6,2.4c-0.1,0-0.2,0.2-0.1,0.3l0.7,1.8c0,0.1,0,0.3-0.1,0.3L7.3,5.4C7.2,5.5,7,5.5,6.9,5.4L5.4,4.3c-0.1,0-0.3,0-0.4,0.1L4.4,5 c-0.1,0.1-0.1,0.2,0,0.3l1.1,1.6c0.1,0.1,0.1,0.3,0,0.4L4.8,8.1c0,0.1-0.2,0.1-0.3,0.1L2.7,7.5c-0.1,0-0.3,0-0.3,0.1L1.9,8.4 c0,0.1,0,0.3,0.1,0.3l1.5,1.2c0.1,0.1,0.1,0.2,0.1,0.4l-0.4,0.9c0,0.1-0.2,0.2-0.3,0.2L1,11.2c-0.1,0-0.3,0.1-0.3,0.2l-0.2,0.9 c0,0.1,0,0.3,0.1,0.3l1.7,0.8c0.1,0.1,0.2,0.2,0.2,0.3l-0.1,1c0,0.1-0.1,0.2-0.3,0.3l-1.9,0.3c-0.1,0-0.2,0.1-0.2,0.3v0.9 c0,0.1,0.1,0.2,0.2,0.3L2.1,17c0.1,0,0.2,0.1,0.3,0.3l0.1,1c0,0.1-0.1,0.3-0.2,0.3l-1.7,0.8c-0.1,0.1-0.2,0.2-0.1,0.3l0.2,0.9 c0,0.1,0.2,0.2,0.3,0.2l1.9-0.2c0.1,0,0.3,0.1,0.3,0.2l0.4,0.9c0,0.1,0,0.3-0.1,0.4L2,23.3c-0.1,0.1-0.1,0.2-0.1,0.3l0.5,0.8 c0.1,0.1,0.2,0.2,0.3,0.1l1.8-0.7c0.1,0,0.3,0,0.3,0.1l0.6,0.8c0.1,0.1,0.1,0.3,0,0.4l-1.1,1.5c-0.1,0.1-0.1,0.3,0,0.3L5,27.6 c0.1,0.1,0.2,0.1,0.3,0l1.6-1.1c0.1-0.1,0.3-0.1,0.4,0l0.8,0.6c0.1,0.1,0.1,0.2,0.1,0.3l-0.7,1.8c0,0.1,0,0.3,0.1,0.3L8.4,30 c0.1,0.1,0.3,0,0.3-0.1l1.2-1.5c0.1-0.1,0.2-0.1,0.4-0.1l0.9,0.4c0.1,0,0.2,0.2,0.2,0.3l-0.2,1.9c0,0.1,0.1,0.3,0.2,0.3l0.9,0.2 c0.1,0,0.3,0,0.3-0.1l0.8-1.7c0.1-0.1,0.2-0.2,0.3-0.2l1,0.1c0.1,0,0.2,0.1,0.3,0.3l0.3,1.9c0,0.1,0.1,0.2,0.3,0.2h0.9 c0.1,0,0.2-0.1,0.3-0.2l0.3-1.9c0-0.1,0.1-0.2,0.3-0.3l1-0.1c0.1,0,0.3,0.1,0.3,0.2l0.8,1.7c0.1,0.1,0.2,0.2,0.3,0.1l0.9-0.2 c0.1,0,0.2-0.2,0.2-0.3L20.7,29c0-0.1,0.1-0.3,0.2-0.3l0.9-0.4c0.1,0,0.3,0,0.4,0.1l1.2,1.5c0.1,0.1,0.2,0.1,0.3,0.1l0.8-0.5 c0.1-0.1,0.2-0.2,0.1-0.3l-0.7-1.8c0-0.1,0-0.3,0.1-0.3l0.8-0.6c0.1-0.1,0.3-0.1,0.4,0l1.5,1.1c0.1,0.1,0.3,0.1,0.3,0l0.6-0.6 c0.1-0.1,0.1-0.2,0-0.3l-1.1-1.6c-0.1-0.1-0.1-0.3,0-0.4l0.6-0.8c0.1-0.1,0.2-0.1,0.3-0.1l1.8,0.7c0.1,0,0.3,0,0.3-0.1l0.5-0.8 c0.1-0.1,0-0.3-0.1-0.3l-1.5-1.2c-0.1-0.1-0.1-0.2-0.1-0.4l0.4-0.9c0-0.1,0.2-0.2,0.3-0.2l1.9,0.2c0.1,0,0.3-0.1,0.3-0.2l0.2-0.9 c0-0.1,0-0.3-0.1-0.3l-1.7-0.8c-0.1-0.1-0.2-0.2-0.2-0.3l0.1-1c0-0.1,0.1-0.2,0.3-0.3l1.9-0.3c0.1,0,0.2-0.1,0.2-0.3v-0.9 C32,15.4,31.9,15.3,31.8,15.3z M12.4,4.7c0,0-0.3,0.1,0.2-0.1c3-0.7,6.3-0.4,9.2,1.2s4.9,4.3,5.7,7.2c0.2,0.8-0.4,1.4-1.2,1.5 c-2.7,0.1-8,0.2-8,0.2c-1.1,0-2.5-0.7-3-1.7c0,0-2.4-4.3-3.6-6.5c0-0.1-0.1-0.1-0.1-0.1c0-0.1-0.1-0.1,0,0c0,0.1,0.1,0.1,0.1,0.1 C11.2,5.8,11.6,5,12.4,4.7z M10,25c-0.4,0.7-1.3,0.9-1.9,0.3c-2.3-2.3-3.7-5.4-3.8-8.9c-0.1-3.5,1.2-6.7,3.4-9 c0.4-0.5,0.2-0.2,0.2-0.2c0.6-0.6,1.5-0.5,2,0.3c1.4,2.2,4.1,6.6,4.1,6.6c0.6,1,0.6,2.6,0.1,3.7C14.1,17.8,11.4,22.6,10,25z M27.6,18.7c-0.9,3.1-2.9,5.9-5.8,7.6s-6.3,2-9.3,1.2c-0.8-0.3-1.1-1.1-0.7-1.9l4-7.4c0.6-1,1.9-1.8,3.1-1.8c0,0,5,0.2,7.6,0.3 c0.8,0,1.4,0.7,1.2,1.6C27.6,18.5,27.7,18.1,27.6,18.7z"></path>
</svg>