<svg xmlns="http://www.w3.org/2000/svg" width="20" height="24" viewBox="0 0 20 24">
    <defs>
        <linearGradient id="gg1sfgh2ea" x1="-41.27%" x2="100%" y1="50%" y2="50%">
            <stop offset="0%" stop-color="#262626"/>
            <stop offset="100%" stop-color="#5E5E5E"/>
        </linearGradient>
    </defs>
    <g fill="none" fill-rule="evenodd">
        <g fill-rule="nonzero">
            <g>
                <path fill="url(#gg1sfgh2ea)" d="M17.165 5.243h-1.168C15.53 2.213 12.961 0 9.808 0 6.656 0 4.087 2.33 3.62 5.243H2.452C1.168 5.243 0 6.29 0 7.689v13.864C0 22.835 1.05 24 2.452 24h14.596c1.284 0 2.452-1.049 2.452-2.447V7.573c0-1.282-1.05-2.33-2.335-2.33zM9.808 1.282c2.336 0 4.32 1.747 4.788 3.96H5.02c.467-2.33 2.452-3.96 4.787-3.96z" transform="translate(-32 -241) translate(32.25 241)"/>
                <g fill="#FFF">
                    <path d="M11.333 5.333H6.667V.667C6.667.298 6.368 0 6 0c-.368 0-.667.298-.667.667v4.666H.667C.298 5.333 0 5.632 0 6c0 .368.298.667.667.667h4.666v4.666c0 .369.299.667.667.667.368 0 .667-.298.667-.667V6.667h4.666c.369 0 .667-.299.667-.667 0-.368-.298-.667-.667-.667z" transform="translate(-32 -241) translate(32.25 241) translate(3.75 9)"/>
                </g>
            </g>
        </g>
    </g>
</svg>
