<svg xmlns="http://www.w3.org/2000/svg" width="28" height="28" viewBox="0 0 28 28">
    <g fill="none" fill-rule="evenodd">
        <g>
            <g transform="translate(-345 -831) translate(345 831)">
                <g fill="#0371E2">
                    <path d="M14 4c-1.104 0-2-.896-2-2s.896-2 2-2 2 .896 2 2-.896 2-2 2M8 4c-1.104 0-2-.896-2-2s.896-2 2-2 2 .896 2 2-.896 2-2 2M2 4C.896 4 0 3.104 0 2s.896-2 2-2 2 .896 2 2-.896 2-2 2" transform="translate(6 12)"/>
                </g>
                <circle cx="14" cy="14" r="13.25" stroke="#0371E2" stroke-width="1.5"/>
            </g>
        </g>
    </g>
</svg>
