<svg _ngcontent-xqn-c287="" xmlns="http://www.w3.org/2000/svg" width="100%" height="100%" viewBox="0 0 38 41" class="ng-star-inserted">
      <g _ngcontent-xqn-c287="" fill="none" fill-rule="evenodd" style="stroke-linecap: butt;">
        <path _ngcontent-xqn-c287="" d="M9.063 7h19.874c2.478 0 4.582 1.815 4.946 4.266l3.266 22c.405 2.731-1.48 5.274-4.212 5.68-.243.036-.488.054-.734.054H5.797c-2.761 0-5-2.239-5-5 0-.246.018-.491.054-.734l3.266-22C4.48 8.815 6.585 7 9.063 7z" transform="translate(0 2)" fill="#d4d4d4"></path>
        <path _ngcontent-xqn-c287="" d="M26 7c0-3.866-3.134-7-7-7s-7 3.134-7 7" transform="translate(0 2)" style="stroke-linecap: butt;"></path>
      </g>
      <g _ngcontent-xqn-c287="" fill="none" fill-rule="evenodd">
        <path _ngcontent-xqn-c287="" d="M9.063 7h19.874c2.478 0 4.582 1.815 4.946 4.266l3.266 22c.405 2.731-1.48 5.274-4.212 5.68-.243.036-.488.054-.734.054H5.797c-2.761 0-5-2.239-5-5 0-.246.018-.491.054-.734l3.266-22C4.48 8.815 6.585 7 9.063 7z" transform="translate(0 2)" fill="#d4d4d4"></path>
        <path _ngcontent-xqn-c287="" d="M26 7c0-3.866-3.134-7-7-7s-7 3.134-7 7" transform="translate(0 2)" stroke="#d4d4d4" style="stroke-linecap: butt; stroke-width: 1px;"></path>
      </g>
      <!---->
    </svg>