<svg xmlns="http://www.w3.org/2000/svg" width="28" height="28" viewBox="0 0 28 28">
    <g fill="none" fill-rule="evenodd">
        <g fill="#0371E2">
            <path d="M172.556 845c-1.292 0-2.334-1.042-2.334-2.333 0-1.291 1.042-2.334 2.334-2.334 1.29 0 2.333 1.043 2.333 2.334 0 1.29-1.042 2.333-2.333 2.333m-4.603-5.769c-1.29 0-2.333-1.042-2.333-2.333 0-1.291 1.042-2.333 2.333-2.333 1.292 0 2.334 1.042 2.334 2.333 0 1.291-1.042 2.333-2.334 2.333m-7.518.066c-1.29 0-2.333-1.043-2.333-2.334 0-1.29 1.042-2.333 2.333-2.333 1.292 0 2.334 1.042 2.334 2.333 0 1.291-1.042 2.334-2.334 2.334m-4.99 5.703c-1.292 0-2.334-1.042-2.334-2.333 0-1.291 1.042-2.334 2.333-2.334 1.292 0 2.334 1.043 2.334 2.334 0 1.29-1.042 2.333-2.334 2.333M164 831c-7.731 0-14 6.269-14 14s6.269 14 14 14c1.291 0 2.333-1.042 2.333-2.333 0-.607-.225-1.151-.606-1.564-.366-.412-.584-.949-.584-1.547 0-1.292 1.043-2.334 2.334-2.334h2.745c4.294 0 7.778-3.484 7.778-7.778 0-6.875-6.269-12.444-14-12.444" transform="translate(-150 -831)"/>
        </g>
    </g>
</svg>
