<svg xmlns="http://www.w3.org/2000/svg" width="24" height="24" viewBox="0 0 24 24">
    <defs>
        <linearGradient id="4jhfgj1asa" x1="77.043%" x2="26.838%" y1="0%" y2="108.142%">
            <stop offset="0%" stop-color="#E8E8E8"/>
            <stop offset="100%" stop-color="#9C9C9C"/>
        </linearGradient>
    </defs>
    <g fill="none" fill-rule="evenodd">
        <g fill="url(#4jhfgj1asa)" transform="translate(-30 -434)">
            <path d="M49.333 446c-1.106 0-2-.893-2-2s.894-2 2-2c1.107 0 2 .893 2 2s-.893 2-2 2m-3.944-4.945c-1.107 0-2-.893-2-2 0-1.106.893-2 2-2 1.106 0 2 .894 2 2 0 1.107-.894 2-2 2m-6.444.056c-1.107 0-2-.893-2-2 0-1.106.893-2 2-2 1.106 0 2 .894 2 2 0 1.107-.894 2-2 2M34.667 446c-1.107 0-2-.893-2-2s.893-2 2-2c1.106 0 2 .893 2 2s-.894 2-2 2M42 434c-6.627 0-12 5.373-12 12s5.373 12 12 12c1.107 0 2-.893 2-2 0-.52-.193-.987-.52-1.34-.313-.353-.5-.813-.5-1.327 0-1.106.893-2 2-2h2.353c3.68 0 6.667-2.986 6.667-6.666C54 438.773 48.627 434 42 434"/>
        </g>
    </g>
</svg>
