<svg xmlns="http://www.w3.org/2000/svg" width="22" height="21" viewBox="0 0 22 21">
    <defs>
        <linearGradient id="80mbqappia" x1="-41.27%" x2="100%" y1="50%" y2="50%">
            <stop offset="0%" stop-color="#FF4659"/>
            <stop offset="100%" stop-color="#FF264D"/>
        </linearGradient>
        <linearGradient id="780uxqxwrb" x1="-41.27%" x2="100%" y1="50%" y2="50%">
            <stop offset="0%" stop-color="#FF4659"/>
            <stop offset="100%" stop-color="#FF264D"/>
        </linearGradient>
    </defs>
    <g fill="none" fill-rule="evenodd">
        <g fill-rule="nonzero">
            <g>
                <path fill="url(#80mbqappia)" d="M14.524 4.436l.135.005c.98.066 1.77.854 1.836 1.832l.005.135v11.83l-.005.14c-.071 1.066-.949 1.861-1.94 1.925l-.13.005H7.363c-1.185 0-2.075-.986-2.075-2.07V6.505c0-1.183.988-2.07 2.075-2.07h.988C8.605 2.856 9.59 1.48 10.965.694c.36.203.69.448.989.727-1.216.523-2.138 1.621-2.417 3.015h4.987zM13.588 0c2.668 0 4.841 1.873 5.236 4.436h.988c1.087 0 1.976.887 1.976 1.972v11.83c0 1.182-.988 2.07-2.074 2.07h-2.147c.394-.592.625-1.302.625-2.07V6.407l-.004-.177-.013-.181c-.058-.59-.256-1.14-.561-1.614h.025c-.373-1.765-1.886-3.18-3.714-3.337-.287-.387-.615-.743-.977-1.06.21-.026.423-.039.64-.039z" opacity=".501" transform="translate(-32 -186) translate(32 186)"/>
                <path fill="url(#780uxqxwrb)" d="M14.524 4.436h-.988C13.14 1.873 10.967 0 8.299 0 5.632 0 3.46 1.972 3.063 4.436h-.988C.988 4.436 0 5.323 0 6.506v11.731c0 1.085.89 2.07 2.075 2.07h12.35c1.087 0 2.075-.887 2.075-2.07V6.407c0-1.084-.89-1.97-1.976-1.97zM8.299 1.084c1.976 0 3.656 1.48 4.051 3.352H4.25c.395-1.971 2.074-3.352 4.05-3.352z" transform="translate(-32 -186) translate(32 186)"/>
            </g>
        </g>
    </g>
</svg>
