<svg xmlns="http://www.w3.org/2000/svg" width="28" height="28" viewBox="0 0 28 28">
    <g fill="none" fill-rule="evenodd">
        <g fill="#0371E2" fill-rule="nonzero">
            <path d="M272.444 843.444h-10.888v-10.888c0-.86-.697-1.556-1.556-1.556-.86 0-1.556.696-1.556 1.556v10.888h-10.888c-.86 0-1.556.697-1.556 1.556 0 .86.696 1.556 1.556 1.556h10.888v10.888c0 .86.697 1.556 1.556 1.556.86 0 1.556-.696 1.556-1.556v-10.888h10.888c.86 0 1.556-.697 1.556-1.556 0-.86-.696-1.556-1.556-1.556z" transform="translate(-246 -831)"/>
        </g>
    </g>
</svg>
