<svg xmlns="http://www.w3.org/2000/svg" id="icon-b-catalog-32" viewBox="0 0 32 32" preserveAspectRatio="xMidYMin slice" width="100%"><path fill="#FFF" d="M10,8.479375 C10,9.319375 9.319375,10 8.479375,10 L5.520625,10 C4.680625,10 4,9.319375 4,8.479375 L4,5.520625 C4,4.680625 4.680625,4 5.520625,4 L8.4803125,4 C9.319375,4 10,4.680625 10,5.520625 L10,8.479375 Z M10,17.479375 C10,18.319375 9.319375,19 8.479375,19 L5.520625,19 C4.680625,19 4,18.3203125 4,17.479375 L4,14.520625 C4,13.6796875 4.680625,13 5.520625,13 L8.4803125,13 C9.319375,13 10,13.6796875 10,14.520625 L10,17.479375 Z M9.99906265,26.4803125 C9.99906265,27.319375 9.31854398,28 8.47867521,28 L5.52038744,28 C4.68051867,28 4,27.3184375 4,26.4803125 L4,23.5215625 C4,22.6815625 4.68051867,22 5.52038744,22 L8.47961256,22 C9.31948133,22 10,22.6825 10,23.5215625 L9.99906265,26.4803125 Z M19,8.479375 C19,9.319375 18.319375,10 17.479375,10 L14.5196875,10 C13.6796875,10 13,9.319375 13,8.479375 L13,5.520625 C13,4.680625 13.6796875,4 14.5196875,4 L17.479375,4 C18.319375,4 19,4.680625 19,5.520625 L19,8.479375 Z M19,17.479375 C19,18.319375 18.3194813,19 17.4796126,19 L14.5203874,19 C13.6805187,19 13,18.319375 13,17.479375 L13,14.520625 C13.0009374,13.6796875 13.6805187,13 14.5203874,13 L17.4796126,13 C18.3194813,13 19,13.680625 19,14.520625 L19,17.479375 Z M18.9990626,26.4803125 C18.9990626,27.3203125 18.318544,28 17.4786752,28 L14.5194501,28 C13.6795813,28 13,27.3184375 13,26.4803125 L13,23.5215625 C13,22.6815625 13.6805187,22 14.5203874,22 L17.4796126,22 C18.3194813,22 19,22.6825 19,23.5215625 L18.9990626,26.4803125 Z M28,8.479375 C28,9.319375 27.3184375,10 26.4803125,10 L23.5215625,10 C22.6815625,10 22,9.319375 22,8.479375 L22,5.520625 C22,4.680625 22.6815625,4 23.5215625,4 L26.4784375,4 C27.3184375,4 28,4.680625 28,5.520625 L28,8.479375 Z M28,17.479375 C28,18.319375 27.3184375,19 26.4803125,19 L23.5215625,19 C22.6815625,19 22,18.319375 22,17.479375 L22,14.520625 C22,13.680625 22.6825,13 23.5215625,13 L26.4784375,13 C27.3184375,13 28,13.6796875 28,14.520625 L28,17.479375 L28,17.479375 Z M28,26.4803125 C28,27.3184375 27.3184375,28 26.4803125,28 L23.5215625,28 C22.6815625,28 22,27.3184375 22,26.4803125 L22,23.5215625 C22,22.6815625 22.6825,22 23.5215625,22 L26.4784375,22 C27.3184375,22 28,22.6825 28,23.5215625 L28,26.4803125 L28,26.4803125 Z"></path>
</svg>