<svg xmlns="http://www.w3.org/2000/svg" id="icon-subscriptions" viewBox="0 0 32 32"><g id="Icons-/-APPS-/-EXTERNAL-/-subscriptions-1" stroke="none" stroke-width="1" fill="none" fill-rule="evenodd"><path d="M9,22 L5,22 C3.8954305,22 3,21.1045695 3,20 L3,9 C3,7.8954305 3.8954305,7 5,7 L27,7 C28.1045695,7 29,7.8954305 29,9 L29,20 C29,21.1045695 28.1045695,22 27,22 L25,22" id="subscriptions-Path" stroke="#FFF" stroke-width="2" stroke-linecap="round"></path><path d="M17.4023938,12.5750874 L21.1079708,19.0430035 C21.3935,19.5413819 21.2209518,20.1768646 20.7225734,20.4623938 C20.5651896,20.5525617 20.3869602,20.6 20.2055769,20.6 L18,20.6 L18,20.6 L18,25.5 C18,26.3284271 17.3284271,27 16.5,27 C15.6715729,27 15,26.3284271 15,25.5 L15,20.6 L15,20.6 L12.7944231,20.6 C12.2200469,20.6 11.7544231,20.1343761 11.7544231,19.56 C11.7544231,19.3786167 11.8018614,19.2003873 11.8920292,19.0430035 L15.5976062,12.5750874 C15.8831354,12.0767091 16.5186181,11.9041608 17.0169965,12.1896901 C17.1774391,12.2816103 17.3104736,12.4146448 17.4023938,12.5750874 Z" id="subscriptions-Line-3" fill="#FFF" fill-rule="nonzero" transform="translate(16.500000, 19.000000) rotate(-30.000000) translate(-16.500000, -19.000000) "></path></g></svg>