<svg xmlns="http://www.w3.org/2000/svg" width="12" height="12" viewBox="0 0 12 12">
    <path fill="#FFF" d="M6 0c2.53 0 4.588 2.058 4.588 4.588v5.647c0 .584-.475 1.06-1.059 1.06H6.994C6.848 11.703 6.459 12 6 12c-.584 0-1.059-.475-1.059-1.059S5.416 9.882 6 9.882c.46 0 .848.296.994.706h2.535c.195 0 .353-.158.353-.353v-.418c-.11.04-.228.065-.353.065-.583 0-1.058-.475-1.058-1.059V5.294c0-.584.475-1.059 1.058-1.059.12 0 .232.021.338.058C9.715 2.29 8.041.706 6 .706c-2.042 0-3.717 1.585-3.868 3.59.107-.037.22-.06.339-.06.583 0 1.058.474 1.058 1.058v3.53c0 .583-.475 1.058-1.058 1.058-.584 0-1.06-.475-1.06-1.059V4.588C1.412 2.058 3.472 0 6 0zm5.294 5.006c.41.146.706.534.706.994v2.118c0 .46-.296.847-.706.993zm-10.588 0v4.105C.296 8.965 0 8.577 0 8.118V6c0-.46.296-.848.706-.994z"/>
</svg>
