<?xml version="1.0" encoding="UTF-8"?>
<svg width="66px" height="66px" viewBox="0 0 66 66" version="1.1" xmlns="http://www.w3.org/2000/svg" xmlns:xlink="http://www.w3.org/1999/xlink">
    <!-- Generator: Sketch 63.1 (92452) - https://sketch.com -->
    <title>ICONS / Products / Dropdown - Add to Collection Copy 18</title>
    <desc>Created with Sketch.</desc>
    <g id="Transactions" stroke="none" stroke-width="1" fill="none" fill-rule="evenodd">
        <g id="5.1-Transactions---Filter---Payment-Type" transform="translate(-703.000000, -789.000000)" fill="#F9F9F9" fill-rule="nonzero">
            <g id="Icons-/-APPS-/-EXTERNAL-/-TWILIO-1" transform="translate(702.000000, 788.000000)">
                <path d="M34,1 C15.784,1 1,15.784 1,34 C1,52.216 15.784,67 34,67 C52.216,67 67,52.216 67,34 C67,15.784 52.216,1 34,1 Z M34.0896739,58.3913043 C20.6511364,58.3913043 9.78804348,47.4951929 9.78804348,34.0896739 C9.78804348,20.6511364 20.684155,9.78804348 34.0896739,9.78804348 C47.5282114,9.78804348 58.3913043,20.684155 58.3913043,34.0896739 C58.3913043,47.5282114 47.5282114,58.3913043 34.0896739,58.3913043 Z M42.3396739,32.7445652 C46.1531401,32.7445652 49.2445652,29.6531401 49.2445652,25.8396739 C49.2445652,22.0262077 46.1531401,18.9347826 42.3396739,18.9347826 C38.5262077,18.9347826 35.4347826,22.0262077 35.4347826,25.8396739 C35.4347826,29.6531401 38.5262077,32.7445652 42.3396739,32.7445652 Z M42.3396739,49.2445652 C46.1531401,49.2445652 49.2445652,46.1531401 49.2445652,42.3396739 C49.2445652,38.5262077 46.1531401,35.4347826 42.3396739,35.4347826 C38.5262077,35.4347826 35.4347826,38.5262077 35.4347826,42.3396739 C35.4347826,46.1531401 38.5262077,49.2445652 42.3396739,49.2445652 Z M25.8396739,49.2445652 C29.6531401,49.2445652 32.7445652,46.1531401 32.7445652,42.3396739 C32.7445652,38.5262077 29.6531401,35.4347826 25.8396739,35.4347826 C22.0262077,35.4347826 18.9347826,38.5262077 18.9347826,42.3396739 C18.9347826,46.1531401 22.0262077,49.2445652 25.8396739,49.2445652 Z M25.8396739,32.7445652 C29.6531401,32.7445652 32.7445652,29.6531401 32.7445652,25.8396739 C32.7445652,22.0262077 29.6531401,18.9347826 25.8396739,18.9347826 C22.0262077,18.9347826 18.9347826,22.0262077 18.9347826,25.8396739 C18.9347826,29.6531401 22.0262077,32.7445652 25.8396739,32.7445652 Z" id="Combined-Shape"></path>
            </g>
        </g>
    </g>
</svg>