<svg xmlns="http://www.w3.org/2000/svg" id="icon-communication-twillio" viewBox="0 0 16 16"><g id="Page-1" stroke="none" stroke-width="1" fill="none" fill-rule="evenodd"><g id="A3-Connect-Twillio-2" transform="translate(-524.000000, -254.000000)" fill="#FFF"><path d="M531.68,260.026667 C531.68,260.933333 530.933333,261.68 530.026667,261.68 C529.12,261.68 528.373333,260.933333 528.373333,260.026667 C528.373333,259.12 529.12,258.373333 530.026667,258.373333 C530.933333,258.373333 531.68,259.12 531.68,260.026667 Z M531.68,263.973333 C531.68,264.88 530.933333,265.626667 530.026667,265.626667 C529.12,265.626667 528.373333,264.88 528.373333,263.973333 C528.373333,263.066667 529.12,262.32 530.026667,262.32 C530.933333,262.32 531.68,263.066667 531.68,263.973333 Z M535.626667,263.973333 C535.626667,264.88 534.88,265.626667 533.973333,265.626667 C533.066667,265.626667 532.32,264.88 532.32,263.973333 C532.32,263.066667 533.066667,262.32 533.973333,262.32 C534.88,262.32 535.626667,263.066667 535.626667,263.973333 Z M535.626667,260.026667 C535.626667,260.933333 534.88,261.68 533.973333,261.68 C533.066667,261.68 532.32,260.933333 532.32,260.026667 C532.32,259.12 533.066667,258.373333 533.973333,258.373333 C534.88,258.373333 535.626667,259.12 535.626667,260.026667 Z M532,267.866667 C528.746667,267.866667 526.133333,265.253333 526.133333,262 C526.133333,258.746667 528.746667,256.133333 532,256.133333 C535.253333,256.133333 537.866667,258.746667 537.866667,262 C537.866667,265.253333 535.253333,267.866667 532,267.866667 Z M532,254 C527.573333,254 524,257.573333 524,262 C524,266.426667 527.573333,270 532,270 C536.426667,270 540,266.426667 540,262 C540,257.573333 536.426667,254 532,254 Z" id="twilio-mark-red"></path></g></g></svg>