<svg xmlns="http://www.w3.org/2000/svg" width="32" height="26" viewBox="0 0 32 26">
    <g fill="none" fill-rule="evenodd">
        <g fill="#FFF" fill-rule="nonzero">
            <g>
                <g>
                    <path d="M45.937 19.096c-1.18.519-2.44.872-3.766 1.033 1.352-.814 2.392-2.098 2.884-3.63-1.268.74-2.674 1.279-4.17 1.579C39.692 16.8 37.989 16 36.099 16c-3.623 0-6.56 2.936-6.56 6.554 0 .52.06 1.02.17 1.498-5.454-.257-10.287-2.875-13.521-6.832-.57.962-.888 2.08-.888 3.298 0 2.28 1.16 4.283 2.917 5.46-1.076-.035-2.088-.33-2.97-.821v.081c0 3.179 2.257 5.83 5.26 6.434-.55.148-1.132.228-1.728.228-.418 0-.82-.04-1.22-.115.84 2.603 3.259 4.501 6.138 4.554-2.24 1.758-5.079 2.806-8.136 2.806-.52 0-1.039-.03-1.56-.09C16.919 40.915 20.357 42 24.076 42c12.071 0 18.664-9.991 18.664-18.641 0-.279 0-.56-.02-.84 1.281-.918 2.4-2.08 3.28-3.396l-.063-.027z" transform="translate(-721 -206) translate(412 135) translate(295 55)"/>
                </g>
            </g>
        </g>
    </g>
</svg>
