<svg xmlns="http://www.w3.org/2000/svg" width="12" height="12" viewBox="0 0 12 12">
    <path fill="#FFF" d="M6 0C2.692 0 0 2.692 0 6s2.692 6 6 6 6-2.692 6-6-2.692-6-6-6zM4.05 1.161c-.362.493-.631 1.077-.823 1.65-.35-.126-.673-.276-.964-.448.502-.515 1.109-.928 1.786-1.202zM1.754 2.97c.375.233.798.432 1.258.593-.152.64-.243 1.331-.267 2.046H.797c.073-.98.418-1.884.958-2.64zm0 6.06C1.215 8.275.87 7.37.797 6.391h1.949c.024.715.115 1.405.267 2.046-.46.16-.883.36-1.258.593zm.508.607c.29-.172.614-.322.964-.447.192.572.46 1.156.822 1.649-.677-.274-1.284-.687-1.786-1.202zm3.346 1.508C4.8 10.85 4.256 9.786 3.977 8.968c.512-.122 1.062-.197 1.632-.22v2.397zm0-3.18c-.643.024-1.264.11-1.845.25-.132-.57-.212-1.185-.235-1.824h2.08v1.573zm0-2.356h-2.08c.023-.64.103-1.255.235-1.825.58.141 1.202.227 1.845.252v1.573zm0-2.357c-.57-.023-1.12-.098-1.632-.22.279-.818.823-1.88 1.632-2.177v2.397zm4.636-.282c.54.755.885 1.66.958 2.639H9.254c-.024-.715-.115-1.405-.267-2.046.46-.16.883-.36 1.258-.593zm-.508-.607c-.29.172-.614.322-.964.447-.192-.572-.46-1.156-.822-1.649.677.274 1.284.687 1.786 1.202zM6.39.855c.808.296 1.353 1.359 1.632 2.177-.512.122-1.062.197-1.632.22V.855zm0 3.18c.643-.024 1.264-.11 1.845-.25.132.57.212 1.185.235 1.824h-2.08V4.036zm0 2.354h2.08c-.023.638-.103 1.257-.235 1.827-.58-.141-1.202-.227-1.845-.252V6.39zm0 4.756V8.748c.57.023 1.12.098 1.632.22-.279.818-.823 1.88-1.632 2.177zm1.56-.306c.361-.493.63-1.077.822-1.65.35.126.673.276.964.448-.502.515-1.109.928-1.786 1.202zm2.294-1.809c-.375-.233-.798-.432-1.258-.593.152-.64.243-1.334.267-2.048h1.949c-.073.979-.418 1.886-.958 2.641z"/>
</svg>
