<svg xmlns="http://www.w3.org/2000/svg" xmlns:xlink="http://www.w3.org/1999/xlink" width="32" height="32" viewBox="0 0 32 32">
    <defs>
        <path id="wxbkdqvw0a" d="M0 0L31.034 0 31.034 31.183 0 31.183z"/>
    </defs>
    <g fill="none" fill-rule="evenodd">
        <g>
            <g>
                <g>
                    <g transform="translate(-628 -203) translate(412 135) translate(203 55) translate(13 13)">
                        <mask id="3qj8dc7jsb" fill="#fff">
                            <use xlink:href="#wxbkdqvw0a"/>
                        </mask>
                        <path fill="#FFF" d="M22.627 18.687c-.386-.194-2.285-1.127-2.639-1.256-.353-.13-.61-.194-.868.193-.258.386-.998 1.256-1.223 1.514-.225.257-.45.29-.836.096-.386-.193-1.63-.6-3.105-1.916-1.148-1.024-1.923-2.288-2.148-2.675-.225-.386-.024-.595.17-.788.173-.173.385-.45.578-.676.193-.226.258-.387.386-.644.13-.258.065-.483-.032-.677-.096-.193-.868-2.093-1.19-2.866-.314-.753-.632-.651-.869-.663-.225-.011-.482-.014-.74-.014-.257 0-.675.097-1.03.483-.353.387-1.35 1.321-1.35 3.221 0 1.9 1.383 3.737 1.576 3.994.193.258 2.722 4.158 6.595 5.83.922.398 1.64.636 2.202.813.924.294 1.766.253 2.431.153.742-.11 2.285-.933 2.606-1.835.322-.902.322-1.675.226-1.836-.097-.161-.354-.258-.74-.451m-7.045 9.619h-.005c-2.305-.001-4.565-.62-6.537-1.79l-.47-.279-4.86 1.275 1.297-4.74-.305-.485c-1.286-2.045-1.964-4.408-1.964-6.835C2.741 8.37 8.503 2.61 15.587 2.61c3.43 0 6.655 1.339 9.08 3.766 2.425 2.428 3.76 5.655 3.758 9.086-.003 7.082-5.764 12.844-12.843 12.844m10.93-23.774C23.595 1.61 19.715.002 15.582 0 7.065 0 .132 6.931.13 15.451c-.002 2.723.71 5.382 2.062 7.725L0 31.183l8.191-2.149c2.257 1.231 4.798 1.88 7.385 1.881h.006c8.516 0 15.448-6.932 15.452-15.452.002-4.128-1.604-8.01-4.522-10.931" mask="url(#3qj8dc7jsb)"/>
                    </g>
                </g>
            </g>
        </g>
    </g>
</svg>
