<svg xmlns="http://www.w3.org/2000/svg" width="96" height="96" viewBox="0 0 96 96">
	<path d="M48,96 C74.509668,96 96,74.509668 96,48 C96,21.490332 74.509668,0 48,0 C21.490332,0 0,21.490332 0,48 C0,74.509668 21.490332,96 48,96 Z" id="Oval-281-Copy-2" fill="#FFF" opacity="0.1"></path>
	<g id="Payments-/-Round-/-Transfer-Money-96x96" stroke="none" stroke-width="1" fill="none" fill-rule="evenodd">
	<g id="Group-3"><polygon id="Shape-Copy" fill="#FFF" fill-rule="nonzero" points="47.7693615 63.8172628 59.2477438 63.817205 58.0289876 62.598455 58.0289876 68.9105237 58.0289876 71.8235805 60.1033894 69.7784014 72.9079069 57.1542641 73.7881863 56.2863854 72.9079059 55.4185077 60.1033884 42.7943993 58.0289876 40.7492258 58.0289876 43.662278 58.0289876 49.9743177 59.2477407 48.7555677 36.2904505 48.7555099 35.0716974 48.7555068 35.0716974 49.9742599 35.0716974 56.2863286 37.1460983 55.4184501 24.3415812 42.7943359 24.3415826 44.5300915 37.1460997 31.9059368 35.0716974 31.0380597 35.0716974 37.3501341 35.0716974 38.5688958 36.2904591 38.5688841 47.769367 38.5687743 47.7693437 36.1312743 36.2904358 36.1313841 37.5091974 37.3501341 37.5091974 31.0380597 37.5091974 28.125 35.4347951 30.1701826 22.630278 42.7943373 21.75 43.6622158 22.6302793 44.5300928 35.4347965 57.154207 37.5091974 59.1993817 37.5091974 56.2863286 37.5091974 49.9742599 36.2904444 51.1930099 59.2477346 51.1930677 60.4664876 51.1930708 60.4664876 49.9743177 60.4664876 43.662278 58.3920869 44.5301566 71.1966045 57.1542651 71.1966035 55.4185087 58.3920859 68.042646 60.4664876 68.9105237 60.4664876 62.598455 60.4664876 61.3796989 59.2477315 61.379705 47.7693492 61.3797628"></polygon></g></g>
</svg>
