<?xml version="1.0" encoding="UTF-8"?>
<svg width="66px" height="44px" viewBox="0 0 66 44" version="1.1" xmlns="http://www.w3.org/2000/svg" xmlns:xlink="http://www.w3.org/1999/xlink">
    <!-- Generator: Sketch 63.1 (92452) - https://sketch.com -->
    <title>ICONS / Products / Dropdown - Add to Collection Copy 17</title>
    <desc>Created with Sketch.</desc>
    <g id="Transactions" stroke="none" stroke-width="1" fill="none" fill-rule="evenodd">
        <g id="5.1-Transactions---Filter---Payment-Type" transform="translate(-591.000000, -799.000000)" fill="#F9F9F9">
            <g id="Icons-/-APPS-/-EXTERNAL-/-XT-1" transform="translate(590.000000, 788.000000)">
                <path d="M59.4134815,11 L59.4134815,22.899992 L66.3376381,22.899992 L66.3376381,31.6043219 L59.560804,31.6043219 L59.560804,42.2185271 C59.560804,44.2753159 59.9285209,46.6259316 61.7706412,46.6259316 C63.6115829,46.6259316 65.8214202,45.8913642 65.8214202,45.8913642 L65.8214202,45.8913642 L67,54.1185191 C67,54.1185191 62.0367506,54.9322198 56.8778187,54.9960395 L56.2454589,55 C50.8687776,55 47.6265045,51.4740764 47.6265045,45.5246681 L47.6265045,45.5246681 L47.6265045,31.6043219 L43.1337581,31.6043219 L43.1337581,22.899992 L47.5534325,22.899992 L47.4803606,17.0974971 L59.4134815,11 Z M16.099965,22.900227 L21.1089293,31.5681224 L26.7071836,22.900227 L40.2608519,22.900227 L29.5063108,37.9958811 L41.2190373,54.5594946 L26.7071836,54.5594946 L20.9616069,44.4224644 L14.2590233,54.4866255 L1,54.4866255 L12.416903,37.9958811 L1.73543382,22.900227 L16.099965,22.900227 Z" id="XT"></path>
            </g>
        </g>
    </g>
</svg>