<?xml version="1.0" encoding="UTF-8"?>
<svg width="68px" height="68px" viewBox="0 0 68 68" version="1.1" xmlns="http://www.w3.org/2000/svg" xmlns:xlink="http://www.w3.org/1999/xlink">
    <!-- Generator: Sketch 59 (86127) - https://sketch.com -->
    <title>Icons / APPS Main / API</title>
    <desc>Created with Sketch.</desc>
    <g id="Icons-/-APPS-Main-/-API" stroke="none" stroke-width="1" fill="none" fill-rule="evenodd">
        <g id="API-ICon-48x48" transform="translate(0.000000, 16.000000)" fill="#FFFFFF" fill-rule="nonzero">
            <path d="M14.784,0 L17.16,0 L31.68,36.4137931 L29.304,36.4137931 L24.816,24.625155 L7.392,24.625155 L2.64,36.4137931 L0,36.4137931 L14.784,0 Z M24.024,22.7913669 L16.104,2.09575788 L16.104,2.09575788 L7.92,22.7913669 L24.024,22.7913669 Z M34.32,0 L50.16,0 C51.216,0 52.272,0 53.592,0.261969735 C54.912,0.523939469 55.968,1.04787894 57.024,1.83378814 C58.08,2.61969735 59.136,3.66757628 59.664,4.97742496 C60.192,6.28727363 60.72,8.12106177 60.72,10.2168196 C60.72,13.3604565 59.664,15.9801538 57.816,17.5519722 C55.704,19.3857604 53.064,20.1716696 49.104,20.1716696 L36.432,20.1716696 L36.432,36.4137931 L34.32,36.4137931 L34.32,0 Z M36.432,18.0759117 L49.368,18.0759117 C50.952,18.0759117 52.536,17.8139419 53.592,17.2900025 C54.648,16.766063 55.704,16.2421235 56.496,15.4562143 C57.288,14.6703051 57.816,13.8843959 58.08,12.836517 C58.344,11.7886381 58.608,11.0027289 58.608,9.95484991 C58.608,9.16894071 58.608,8.38303151 58.344,7.5971223 C58.08,6.8112131 57.816,5.76333416 57.024,4.97742496 C56.496,4.19151575 55.44,3.40560655 54.384,2.88166708 C53.328,2.35772761 51.744,2.09575788 49.896,2.09575788 L36.432,2.09575788 L36.432,18.0759117 L36.432,18.0759117 Z M63.888,0 L66,0 L66,36.4137931 L63.888,36.4137931 L63.888,0 Z" id="API"></path>
        </g>
    </g>
</svg>