<?xml version="1.0" encoding="UTF-8"?>
<svg width="68px" height="68px" viewBox="0 0 68 68" version="1.1" xmlns="http://www.w3.org/2000/svg" xmlns:xlink="http://www.w3.org/1999/xlink">
    <!-- Generator: Sketch 59 (86127) - https://sketch.com -->
    <title>Icons / APPS / EXTERNAL / DHL 1</title>
    <desc>Created with Sketch.</desc>
    <g id="Icons-/-APPS-/-EXTERNAL-/-DHL-1" stroke="none" stroke-width="1" fill="none" fill-rule="evenodd">
        <path d="M20.59375,36.2790698 C20.0664062,36.2790698 20.0195312,35.9302326 20.1484375,35.6627907 C20.2539062,35.4418605 20.9570312,34.0232558 21.0976562,33.755814 C21.2617187,33.4186047 21.2148437,33.0697674 20.40625,33.0697674 L15.8476562,33.0697674 L12.4140625,40 L21.4609375,40 C23.9335937,40 25.7265625,39.1162791 26.9570312,36.6395349 C27.015625,36.5232558 27.0742188,36.3953488 27.1328125,36.2790698 L20.59375,36.2790698 L20.59375,36.2790698 Z M28.1757812,36.2790698 L26.3359375,40 L31.9492187,40 L33.8007812,36.2790698 L28.1757812,36.2790698 L28.1757812,36.2790698 Z M36.0742187,36.2790698 L34.234375,40 L39.8476562,40 L41.6992187,36.2790698 L36.0742187,36.2790698 Z M41.875,35.9186047 L45.296875,29 L39.6835937,29 L37.8320312,32.755814 L35.5351562,32.755814 L37.3984375,29 L31.7734375,29 L28.3632813,35.9186047 L41.875,35.9186047 L41.875,35.9186047 Z M46.7265625,29 L52.3515625,29 L48.9179688,35.9186047 L43.3046875,35.9186047 L46.7265625,29 Z M43.1289062,36.2790698 L55.703125,36.2790698 L53.8632813,40 L44.59375,40 C42.6601562,40 42.0390625,38.5348837 42.7304687,37.1162791 C42.7890625,36.9534884 43.1289062,36.2790698 43.1289062,36.2790698 Z M13.375,36.2790698 L12.8359375,37.372093 L4,37.372093 L4,36.2790698 L13.375,36.2790698 Z M12.7304687,37.5813953 L12.1796875,38.6860465 L4,38.6860465 L4,37.5813953 L12.7304687,37.5813953 Z M12.0742188,38.9069767 L11.5234375,40 L4,40 L4,38.9069767 L12.0742188,38.9069767 Z M64,37.372093 L55.9375,37.372093 L56.4765625,36.2790698 L64,36.2790698 L64,37.372093 Z M64,38.6860465 L55.28125,38.6860465 L55.8203125,37.5813953 L64,37.5813953 L64,38.6860465 Z M64,38.9069767 L64,40 L54.625,40 L55.1757812,38.9069767 L64,38.9069767 Z M25.6750139,29 C28.9562639,29 29.9406389,31.6511628 28.9914201,33.5465116 C28.7922014,33.9418605 28.3468889,34.8604651 27.8195451,35.9186047 L27.8195451,35.9186047 L23.3312639,35.9186047 C22.8039201,35.9186047 22.8859514,35.5 23.0500139,35.1627907 C23.1906389,34.8837209 23.6828264,33.8837209 23.9172014,33.4069767 C24.1515764,32.9186047 23.8703264,32.755814 23.0851701,32.755814 L23.0851701,32.755814 L13.0304826,32.755814 L14.8937639,29 Z" id="Shape" fill="#FFFFFF" fill-rule="nonzero"></path>
    </g>
</svg>