<?xml version="1.0" encoding="UTF-8"?>
<svg width="68px" height="68px" viewBox="0 0 68 68" version="1.1" xmlns="http://www.w3.org/2000/svg" xmlns:xlink="http://www.w3.org/1999/xlink">
    <!-- Generator: Sketch 59 (86127) - https://sketch.com -->
    <title>Icons / APPS / EXTERNAL / GOOGLE 1</title>
    <desc>Created with Sketch.</desc>
    <defs>
        <path d="M66.2325581,28 L34.7674419,28 L34.7674419,40.75 L52.8790698,40.75 C51.1906977,48.85 44.1302326,53.5 34.7674419,53.5 C23.7162791,53.5 14.8139535,44.8 14.8139535,34 C14.8139535,23.2 23.7162791,14.5 34.7674419,14.5 C39.5255814,14.5 43.8232558,16.15 47.2,18.85 L57.0232558,9.25 C51.0372093,4.15 43.3627907,1 34.7674419,1 C16.0418605,1 1,15.7 1,34 C1,52.3 16.0418605,67 34.7674419,67 C51.6511628,67 67,55 67,34 C67,32.05 66.6930233,29.95 66.2325581,28 Z" id="path-1"></path>
    </defs>
    <g id="Icons-/-APPS-/-EXTERNAL-/-GOOGLE-1" stroke="none" stroke-width="1" fill="none" fill-rule="evenodd">
        <mask id="mask-2" fill="white">
            <use xlink:href="#path-1"></use>
        </mask>
        <use id="a" fill="#FFFFFF" xlink:href="#path-1"></use>
    </g>
</svg>