<?xml version="1.0" encoding="UTF-8"?>
<svg width="68px" height="68px" viewBox="0 0 68 68" version="1.1" xmlns="http://www.w3.org/2000/svg" xmlns:xlink="http://www.w3.org/1999/xlink">
    <!-- Generator: Sketch 59 (86127) - https://sketch.com -->
    <title>Icons / APPS / EXTERNAL / Hermes 1</title>
    <desc>Created with Sketch.</desc>
    <g id="Icons-/-APPS-/-EXTERNAL-/-Hermes-1" stroke="none" stroke-width="1" fill="none" fill-rule="evenodd">
        <path d="M55.9141791,43.2 L53.1772388,52.9714286 L47.5208955,52.9714286 L50.2578358,43.2 L55.9141791,43.2 Z M38.7626866,52.9714286 L30.916791,45.9428571 L30.916,43.395 L30.7343284,43.2 L47.7033582,43.2 L45.1488806,52.9714286 L38.7626866,52.9714286 Z M59.1985075,30.6857143 L56.4615672,40.4571429 L50.8052239,40.4571429 L53.5421642,30.6857143 L59.1985075,30.6857143 Z M51.1701493,30.5142857 L48.433209,40.2857143 L25.9902985,40.2857143 L24.7130597,40.4571429 L16.8671642,33.4285714 L16.8671642,30.5142857 L51.1701493,30.5142857 Z M62.4828358,18 L54.2720149,27.7714286 L56.8264925,18 L62.4828358,18 Z M54.4544776,18 L51.9,27.7714286 L10.4809701,27.7714286 L3,21.0857143 L3,18 L54.4544776,18 Z" id="Combined-Shape" fill="#FFFFFF" fill-rule="nonzero"></path>
    </g>
</svg>