<?xml version="1.0" encoding="UTF-8"?>
<svg width="68px" height="68px" viewBox="0 0 68 68" version="1.1" xmlns="http://www.w3.org/2000/svg" xmlns:xlink="http://www.w3.org/1999/xlink">
    <!-- Generator: Sketch 59 (86127) - https://sketch.com -->
    <title>Icons / APPS / EXTERNAL / QR 3</title>
    <desc>Created with Sketch.</desc>
    <g id="Icons-/-APPS-/-EXTERNAL-/-QR-3" stroke="none" stroke-width="1" fill="none" fill-rule="evenodd">
        <path d="M22.3333333,36.5555556 C26.2606916,36.5555556 29.4444444,39.7393084 29.4444444,43.6666667 L29.4444444,57.8888889 C29.4444444,61.8162471 26.2606916,65 22.3333333,65 L8.11111111,65 C4.18375289,65 1,61.8162471 1,57.8888889 L1,43.6666667 C1,39.7393084 4.18375289,36.5555556 8.11111111,36.5555556 L22.3333333,36.5555556 Z M65,36.5555556 L65,65 L36.5555556,65 L36.5555556,36.5555556 L65,36.5555556 Z M22.3333333,40.8222222 L8.11111111,40.8222222 C6.54016782,40.8222222 5.26666667,42.0957234 5.26666667,43.6666667 L5.26666667,57.8888889 C5.26666667,59.4598322 6.54016782,60.7333333 8.11111111,60.7333333 L22.3333333,60.7333333 C23.9042766,60.7333333 25.1777778,59.4598322 25.1777778,57.8888889 L25.1777778,43.6666667 C25.1777778,42.0957234 23.9042766,40.8222222 22.3333333,40.8222222 Z M60.7333333,40.8222222 L40.8222222,40.8222222 L40.8222222,60.7333333 L60.7333333,60.7333333 L60.7333333,40.8222222 Z M19.4888889,46.5111111 L19.4888889,55.0444444 L10.9555556,55.0444444 L10.9555556,46.5111111 L19.4888889,46.5111111 Z M55.0444444,46.5111111 L55.0444444,55.0444444 L46.5111111,55.0444444 L46.5111111,46.5111111 L55.0444444,46.5111111 Z M29.4444444,1 L29.4444444,29.4444444 L1,29.4444444 L1,8.11111111 C1,4.18375289 4.18375289,1 8.11111111,1 L29.4444444,1 Z M57.8888889,1 C61.8162471,1 65,4.18375289 65,8.11111111 L65,29.4444444 L43.6666667,29.4444444 C39.7393084,29.4444444 36.5555556,26.2606916 36.5555556,22.3333333 L36.5555556,1 L57.8888889,1 Z M25.1777778,5.26666667 L8.11111111,5.26666667 C6.54016782,5.26666667 5.26666667,6.54016782 5.26666667,8.11111111 L5.26666667,25.1777778 L25.1777778,25.1777778 L25.1777778,5.26666667 Z M57.8888889,5.26666667 L40.8222222,5.26666667 L40.8222222,22.3333333 C40.8222222,23.9042766 42.0957234,25.1777778 43.6666667,25.1777778 L60.7333333,25.1777778 L60.7333333,8.11111111 C60.7333333,6.54016782 59.4598322,5.26666667 57.8888889,5.26666667 Z M19.4888889,10.9555556 L19.4888889,19.4888889 L10.9555556,19.4888889 L10.9555556,10.9555556 L19.4888889,10.9555556 Z M55.0444444,10.9555556 L55.0444444,19.4888889 L46.5111111,19.4888889 L46.5111111,10.9555556 L55.0444444,10.9555556 Z" id="Combined-Shape" fill="#FFFFFF" fill-rule="nonzero"></path>
    </g>
</svg>