<?xml version="1.0" encoding="UTF-8"?>
<svg width="68px" height="68px" viewBox="0 0 68 68" version="1.1" xmlns="http://www.w3.org/2000/svg" xmlns:xlink="http://www.w3.org/1999/xlink">
    <!-- Generator: Sketch 59 (86127) - https://sketch.com -->
    <title>Icons / APPS / EXTERNAL / UPS 1</title>
    <desc>Created with Sketch.</desc>
    <g id="Icons-/-APPS-/-EXTERNAL-/-UPS-1" stroke="none" stroke-width="1" fill="none" fill-rule="evenodd">
        <g id="Group" transform="translate(5.000000, 1.000000)" fill="#FFFFFF">
            <path d="M49.3156667,61.0264391 L49.3156667,61.0264391 L48.947,61.0264391 L48.947,62.3172691 L49.1313333,62.3172691 C49.8686667,62.3172691 50.053,61.9494645 50.053,61.5793173 C50.053,61.3942436 49.8686667,61.0264391 49.3156667,61.0264391 M49.5,59 C51.341,59 53,60.6586345 53,62.5 C53,64.5264391 51.341,66 49.5,66 C47.4746667,66 46,64.3413655 46,62.5 C46,60.4735609 47.659,59 49.5,59 M51.1426667,64.6880857 C51.8146667,64.1750335 52.265,63.3691432 52.265,62.5 C52.265,61.0264391 51.159,59.7356091 49.5,59.7356091 C48.0253333,59.7356091 46.7373333,61.0264391 46.7373333,62.5 C46.7373333,63.9735609 48.0253333,65.2643909 49.5,65.2643909 C50.0926667,65.2643909 50.655,65.0558902 51.1146667,64.70917 L50.2373333,64.70917 L49.1313333,63.0528782 L48.947,63.0528782 L48.947,64.70917 L48.2096667,64.70917 L48.2096667,60.4735609 L49.3156667,60.4735609 C50.4216667,60.4735609 50.7903333,61.20917 50.7903333,61.7620482 C50.7903333,62.3172691 50.4216667,62.6850736 49.8686667,62.8678046 C50.0413333,63.038822 51.0143333,64.4936412 51.1426667,64.6880857" id="Fill-4"></path>
            <path d="M2.39680543,38.9032067 C2.39680543,45.0803467 4.79113738,50.1354814 9.43386576,53.6432756 C13.6288936,56.8748462 26.0556743,62.069315 29.5012367,63.4748771 C32.9443257,62.069315 45.5244623,56.7330678 49.5636608,53.6432756 C54.2063891,50.1354814 56.6031946,44.9410127 56.6031946,38.9032067 L56.6031946,6.61194468 C39.234394,5.06704857 18.56844,5.90794139 2.39680543,19.9488959 L2.39680543,38.9032067 Z M29.481628,0.0113009598 L29.5208425,0.0113009598 C30.1586965,-0.00771025797 46.2327196,-0.418310399 59,6.04971983 L59,38.7614283 C59,45.3614591 56.4523121,51.1181527 51.0625917,55.3299501 C45.9721628,59.2606352 29.5012367,66 29.5012367,66 C29.5012367,66 13.0278372,59.2606352 7.93740829,55.4692841 C2.54768792,51.2599311 0,45.5007931 0,38.9032067 L0,6.04971983 C12.7672804,-0.418310399 28.843679,-0.00771025797 29.481628,0.0113009598 Z M29.6430872,20.1458811 C26.8894507,20.1458811 24.7164297,20.681603 22.8300416,21.7530468 L22.8300416,52 L27.7591491,52 L27.7591491,42.2290015 C28.1952232,42.3617467 28.9203801,42.4968624 30.0791613,42.4968624 C35.7334257,42.4968624 38.9231364,37.8128515 38.9231364,31.1210687 C38.9231364,24.2941701 35.5888843,20.1458811 29.6430872,20.1458811 Z M10.0736488,20.413742 L5,20.413742 L5,35.0014967 C5,39.9557391 7.60909513,42.4968624 12.5382025,42.4968624 C15.5833718,42.4968624 18.1924669,41.8283953 20.0764051,40.6242062 L20.0764051,20.413742 L15.0027563,20.413742 L15.0027563,37.9455967 C14.4221407,38.3485734 13.6969838,38.4836891 12.682744,38.4836891 C10.3627317,38.4836891 10.0736488,36.4735467 10.0736488,35.2693577 L10.0736488,20.413742 Z M46.6058804,20.0131358 C43.2716283,20.1458811 39.7928348,22.2863982 39.7928348,26.0340811 C39.939826,28.5775749 40.8070746,30.4502311 44.8664836,32.5931186 C47.0419545,33.7973077 47.909203,34.6008905 48.0561943,36.0729405 C48.0561943,37.6801062 46.8949632,38.6140639 45.011025,38.6140639 C43.4161697,38.6140639 41.5322315,37.8128515 40.2289089,36.7414077 L40.2289089,41.0248124 C41.8213144,41.8283953 43.7077024,42.4968624 45.736182,42.4968624 C50.6652894,42.4968624 52.9853017,39.2872719 52.9853017,36.3408015 C53.1298431,33.662192 52.2601447,31.5216748 48.0561943,29.246042 C46.1722561,28.1745982 44.7219422,27.5061311 44.7219422,25.9013358 C44.7219422,24.2941701 46.3167975,23.625703 47.6201201,23.625703 C49.3595169,23.625703 51.0989137,24.5620311 52.1156033,25.5007296 L52.1156033,21.4851858 C51.2459049,20.8143482 49.3595169,19.8780201 46.6058804,20.0131358 Z M29.5009957,23.625703 C32.3991736,23.625703 33.5579549,25.7662201 33.5579549,30.9883234 C33.5579549,36.0729405 32.1076409,38.4836891 29.209463,38.4836891 C28.484306,38.4836891 27.9036905,38.3485734 27.6146076,38.2134577 L27.6146076,24.0263092 L27.7591491,24.0263092 C28.1952232,23.8935639 28.9203801,23.625703 29.5009957,23.625703 Z" id="Combined-Shape"></path>
        </g>
    </g>
</svg>